<svg width="18" height="18" viewBox="0 0 18 18" fill="none" xmlns="http://www.w3.org/2000/svg">
<path fill-rule="evenodd" clip-rule="evenodd" d="M11.4217 12.5999C10.2928 13.4775 8.87425 14 7.33366 14C3.65176 14 0.666992 11.0153 0.666992 7.33335C0.666992 3.65146 3.65176 0.666687 7.33366 0.666687C11.0156 0.666687 14.0003 3.65146 14.0003 7.33335C14.0003 8.87395 13.4778 10.2925 12.6002 11.4214L17.0896 15.9108C17.415 16.2362 17.415 16.7638 17.0896 17.0893C16.7641 17.4147 16.2365 17.4147 15.9111 17.0893L11.4217 12.5999ZM12.3337 7.33335C12.3337 10.0948 10.0951 12.3334 7.33366 12.3334C4.57224 12.3334 2.33366 10.0948 2.33366 7.33335C2.33366 4.57193 4.57224 2.33335 7.33366 2.33335C10.0951 2.33335 12.3337 4.57193 12.3337 7.33335Z" fill="#A2A9B0"/>
</svg>
