<svg width="14" height="12" viewBox="0 0 14 12" fill="none" xmlns="http://www.w3.org/2000/svg">
<path d="M1.00016 0H13.0002C13.177 0 13.3465 0.0702379 13.4716 0.195262C13.5966 0.320286 13.6668 0.489856 13.6668 0.666667V11.3333C13.6668 11.5101 13.5966 11.6797 13.4716 11.8047C13.3465 11.9298 13.177 12 13.0002 12H1.00016C0.823352 12 0.653782 11.9298 0.528758 11.8047C0.403734 11.6797 0.333496 11.5101 0.333496 11.3333V0.666667C0.333496 0.489856 0.403734 0.320286 0.528758 0.195262C0.653782 0.0702379 0.823352 0 1.00016 0ZM3.66683 6.66667V9.33333H5.00016V6.66667H3.66683ZM6.3335 2.66667V9.33333H7.66683V2.66667H6.3335ZM9.00016 4.66667V9.33333H10.3335V4.66667H9.00016Z" fill="#376BB2"/>
</svg>
