<svg width="18" height="18" viewBox="0 0 18 18" fill="none" xmlns="http://www.w3.org/2000/svg">
<g clip-path="url(#clip0_232_435)">
<path opacity="0.7" d="M9.38672 2.72461C9.36598 2.0475 9.49219 0.489026 11.2475 0.65426C10.4275 0.406304 9.57543 0.280616 8.71875 0.281252C8.59184 0.281252 8.46598 0.284416 8.34047 0.290041C7.89434 0.946409 7.66758 1.80422 7.69922 2.78086C7.77656 5.28399 5.27344 8.04375 2.49961 7.97695C1.51945 7.93512 0.665158 8.16856 0.00879101 8.61821C0.00351757 8.74477 1.94511e-06 8.87203 1.94511e-06 9C-0.000573263 9.86134 0.12643 10.718 0.376877 11.5422C0.200393 9.77344 1.76555 9.65074 2.44688 9.66797C4.11328 9.73125 6.01875 8.91211 7.32305 7.60078C8.62735 6.29649 9.43946 4.38047 9.38672 2.72461ZM17.0599 6.45574C17.2357 8.22164 15.666 8.34258 14.9906 8.32852C13.3453 8.26172 11.4223 9.08789 10.1145 10.3957C8.80664 11.7035 7.99805 13.616 8.05078 15.2719C8.07153 15.9536 7.94074 17.512 6.17555 17.3415C6.99998 17.5923 7.85703 17.7194 8.71875 17.7188C8.84426 17.7188 8.96906 17.7156 9.09352 17.7103C9.54317 17.0539 9.76992 16.1958 9.73828 15.2191C9.65391 12.4945 12.4242 9.92813 14.9379 10.0195C15.9163 10.0512 16.7755 9.82371 17.4291 9.37582C17.4343 9.25137 17.4375 9.12586 17.4375 9C17.4382 8.13791 17.3109 7.28048 17.0599 6.45574Z" fill="white"/>
<path d="M14.9379 10.0195C12.4242 9.92813 9.65391 12.4945 9.73828 15.2191C9.76992 16.2 9.54141 17.0613 9.08789 17.7188C13.3418 17.5395 17.2301 14.1996 17.434 9.37266C16.7801 9.82266 15.9187 10.0512 14.9379 10.0195ZM2.49961 7.97695C5.27344 8.04375 7.77656 5.28398 7.69922 2.78086C7.66758 1.8 7.89609 0.938672 8.34609 0.28125C4.00078 0.464062 0.203906 3.88828 0 8.62383C0.657422 8.17031 1.51523 7.93477 2.49961 7.97695ZM10.1145 10.3957C11.4223 9.08789 13.3453 8.26172 14.9906 8.32852C15.6727 8.34258 17.2688 8.21953 17.0543 6.40195C16.6343 5.0514 15.8923 3.82319 14.8921 2.82309C13.892 1.82298 12.6638 1.08097 11.3133 0.660937C9.4957 0.45 9.36563 2.03906 9.38672 2.72461C9.43945 4.38047 8.62734 6.29648 7.32305 7.60078C6.01875 8.91211 4.11328 9.73125 2.44687 9.66797C1.75781 9.65039 0.165234 9.77695 0.383203 11.6016C0.801999 12.9508 1.54286 14.1779 2.54185 15.1769C3.54083 16.1759 4.76791 16.9167 6.11719 17.3355C7.93828 17.5465 8.07187 15.9609 8.05078 15.2719C7.99805 13.616 8.81016 11.7 10.1145 10.3957Z" fill="white"/>
</g>
<defs>
<clipPath id="clip0_232_435">
<rect width="17.4375" height="18" fill="white"/>
</clipPath>
</defs>
</svg>
