<svg width="12" height="12" viewBox="0 0 12 12" fill="none" xmlns="http://www.w3.org/2000/svg">
<path d="M11.5 0.5H9.25V0.25C9.25 0.112 9.138 0 9 0H3C2.862 0 2.75 0.112 2.75 0.25V0.5H0.5C0.362 0.5 0.25 0.612 0.25 0.75V3C0.25 4.6545 1.5955 6 3.25 6C3.26 6 3.2685 5.9955 3.278 5.9945C3.7285 6.6845 4.4305 7.2005 5.243 7.4035C5.2115 8.0285 5.052 9.331 4.571 9.826L4.435 9.965C3.747 10.671 3.25 11.181 3.25 11.75C3.25 11.888 3.362 12 3.5 12H8.5C8.638 12 8.75 11.888 8.75 11.75C8.75 11.181 8.253 10.671 7.565 9.965L7.4295 9.8255C6.9485 9.3305 6.789 8.028 6.7575 7.403C7.57 7.2005 8.272 6.684 8.7225 5.994C8.7315 5.9955 8.74 6 8.75 6C10.4045 6 11.75 4.6545 11.75 3V0.75C11.75 0.612 11.638 0.5 11.5 0.5ZM0.75 3V1H2.75V4.25C2.75 4.6805 2.84 5.0945 3 5.475C1.7405 5.3475 0.75 4.293 0.75 3ZM11.25 3C11.25 4.293 10.2595 5.3475 9 5.475C9.16 5.095 9.25 4.681 9.25 4.25V1H11.25V3Z" fill="#376BB2"/>
</svg>
