<svg width="28" height="20" viewBox="0 0 28 20" fill="none" xmlns="http://www.w3.org/2000/svg">
<rect x="0.25" y="0.25" width="27.5" height="19.5" rx="1.75" fill="white" stroke="#F5F5F5" stroke-width="0.5"/>
<mask id="mask0_60_4198" style="mask-type:alpha" maskUnits="userSpaceOnUse" x="0" y="0" width="28" height="20">
<rect x="0.25" y="0.25" width="27.5" height="19.5" rx="1.75" fill="white" stroke="white" stroke-width="0.5"/>
</mask>
<g mask="url(#mask0_60_4198)">
<rect x="10.6665" width="6.66667" height="20" fill="#D6182D"/>
<rect y="6.6665" width="28" height="6.66667" fill="#1425A2"/>
<path fill-rule="evenodd" clip-rule="evenodd" d="M11.3332 11.6665L10.8618 11.8046L10.9998 11.3332L10.8618 10.8618L11.3332 10.9998L11.8046 10.8618L11.6665 11.3332L11.8046 11.8046L11.3332 11.6665Z" fill="white"/>
<path fill-rule="evenodd" clip-rule="evenodd" d="M16.6667 11.6665L16.1953 11.8046L16.3333 11.3332L16.1953 10.8618L16.6667 10.9998L17.1381 10.8618L17 11.3332L17.1381 11.8046L16.6667 11.6665Z" fill="white"/>
<path fill-rule="evenodd" clip-rule="evenodd" d="M8.66667 10.3335L8.19526 10.4716L8.33333 10.0002L8.19526 9.52876L8.66667 9.66683L9.13807 9.52876L9 10.0002L9.13807 10.4716L8.66667 10.3335Z" fill="white"/>
<path fill-rule="evenodd" clip-rule="evenodd" d="M19.3332 10.3335L18.8618 10.4716L18.9998 10.0002L18.8618 9.52876L19.3332 9.66683L19.8046 9.52876L19.6665 10.0002L19.8046 10.4716L19.3332 10.3335Z" fill="white"/>
<path fill-rule="evenodd" clip-rule="evenodd" d="M14.0002 9L13.5288 9.13807L13.6668 8.66667L13.5288 8.19526L14.0002 8.33333L14.4716 8.19526L14.3335 8.66667L14.4716 9.13807L14.0002 9Z" fill="white"/>
</g>
</svg>
