<svg width="28" height="20" viewBox="0 0 28 20" fill="none" xmlns="http://www.w3.org/2000/svg">
<mask id="mask0_60_2218" style="mask-type:alpha" maskUnits="userSpaceOnUse" x="0" y="0" width="28" height="20">
<rect width="28" height="20" rx="2" fill="white"/>
</mask>
<g mask="url(#mask0_60_2218)">
<rect width="28" height="20" fill="#EE343C"/>
<path fill-rule="evenodd" clip-rule="evenodd" d="M12.3866 4.38646C12.1619 4.16175 11.8098 4.12689 11.5454 4.30316L10.956 4.6961C10.5301 4.98004 10.5698 5.61817 11.0277 5.84709L12.2983 6.4824C12.5242 6.59533 12.6668 6.82617 12.6668 7.07869V7.33333C12.6668 7.70152 12.3684 8 12.0002 8H11.4909C11.3874 8 11.2853 7.9759 11.1927 7.92962L9.09661 6.88156C8.83995 6.75323 8.52997 6.80353 8.32706 7.00644L7.98754 7.34596C7.66577 7.66772 7.7538 8.21015 8.1608 8.41365L9.10474 8.88562C9.50373 9.08511 9.53835 9.64121 9.16718 9.88865V9.88865C8.73652 10.1758 8.86797 10.8402 9.37551 10.9417L9.93745 11.0541C10.477 11.162 10.6347 11.8574 10.1945 12.1875L9.69145 12.5649C9.36323 12.811 9.53733 13.3333 9.94761 13.3333V13.3333C9.98251 13.3333 10.0173 13.3291 10.0512 13.3206L11.3129 13.0051C11.7914 12.8855 12.1663 13.4175 11.8927 13.8278V13.8278C11.6537 14.1864 11.9107 14.6667 12.3416 14.6667H12.9251C13.169 14.6667 13.3855 14.8227 13.4626 15.0541V15.0541C13.6348 15.5707 14.3655 15.5707 14.5377 15.0541V15.0541C14.6148 14.8227 14.8313 14.6667 15.0752 14.6667H15.6587C16.0896 14.6667 16.3467 14.1864 16.1076 13.8278V13.8278C15.8341 13.4175 16.209 12.8855 16.6874 13.0051L17.9492 13.3206C17.983 13.3291 18.0178 13.3333 18.0527 13.3333V13.3333C18.463 13.3333 18.6371 12.811 18.3089 12.5649L17.8058 12.1875C17.3656 11.8574 17.5233 11.162 18.0629 11.0541L18.6248 10.9417C19.1324 10.8402 19.2638 10.1758 18.8331 9.88865V9.88865C18.462 9.64121 18.4966 9.08511 18.8956 8.88562L19.8395 8.41365C20.2465 8.21015 20.3346 7.66772 20.0128 7.34596L19.6733 7.00644C19.4704 6.80353 19.1604 6.75323 18.9037 6.88156L16.8076 7.92962C16.715 7.9759 16.6129 8 16.5095 8H16.0002C15.632 8 15.3335 7.70152 15.3335 7.33333V7.07869C15.3335 6.82617 15.4761 6.59534 15.702 6.48242C16.0946 6.28612 16.5622 6.05229 16.9729 5.84697C17.4307 5.61805 17.4702 4.98004 17.0443 4.6961L16.4549 4.30316C16.1905 4.12689 15.8384 4.16175 15.6137 4.38646L14.4716 5.5286C14.2112 5.78895 13.7891 5.78894 13.5288 5.5286L12.3866 4.38646Z" fill="#262626"/>
</g>
</svg>
