<svg width="28" height="20" viewBox="0 0 28 20" fill="none" xmlns="http://www.w3.org/2000/svg">
<rect width="28" height="20" rx="2" fill="white"/>
<mask id="mask0_60_2371" style="mask-type:alpha" maskUnits="userSpaceOnUse" x="0" y="0" width="28" height="20">
<rect width="28" height="20" rx="2" fill="white"/>
</mask>
<g mask="url(#mask0_60_2371)">
<rect width="28" height="20" fill="#0B36B2"/>
<g filter="url(#filter0_d_60_2371)">
<path fill-rule="evenodd" clip-rule="evenodd" d="M22.6665 20V0H8.6665L22.6665 20Z" fill="#FFD045"/>
</g>
<path fill-rule="evenodd" clip-rule="evenodd" d="M17.3333 18.6665L16.3905 18.9426L16.6667 17.9998L16.3905 17.057L17.3333 17.3332L18.2761 17.057L18 17.9998L18.2761 18.9426L17.3333 18.6665Z" fill="white"/>
<path fill-rule="evenodd" clip-rule="evenodd" d="M14.6668 14.6665L13.724 14.9426L14.0002 13.9998L13.724 13.057L14.6668 13.3332L15.6096 13.057L15.3335 13.9998L15.6096 14.9426L14.6668 14.6665Z" fill="white"/>
<path fill-rule="evenodd" clip-rule="evenodd" d="M11.9998 10.6665L11.057 10.9426L11.3332 9.99984L11.057 9.05703L11.9998 9.33317L12.9426 9.05703L12.6665 9.99984L12.9426 10.9426L11.9998 10.6665Z" fill="white"/>
<path fill-rule="evenodd" clip-rule="evenodd" d="M9.33333 6.6665L8.39052 6.94265L8.66667 5.99984L8.39052 5.05703L9.33333 5.33317L10.2761 5.05703L10 5.99984L10.2761 6.94265L9.33333 6.6665Z" fill="white"/>
<path fill-rule="evenodd" clip-rule="evenodd" d="M6.66683 2.6665L5.72402 2.94265L6.00016 1.99984L5.72402 1.05703L6.66683 1.33317L7.60964 1.05703L7.3335 1.99984L7.60964 2.94265L6.66683 2.6665Z" fill="white"/>
</g>
<defs>
<filter id="filter0_d_60_2371" x="8.6665" y="0" width="14" height="20" filterUnits="userSpaceOnUse" color-interpolation-filters="sRGB">
<feFlood flood-opacity="0" result="BackgroundImageFix"/>
<feColorMatrix in="SourceAlpha" type="matrix" values="0 0 0 0 0 0 0 0 0 0 0 0 0 0 0 0 0 0 127 0" result="hardAlpha"/>
<feOffset/>
<feColorMatrix type="matrix" values="0 0 0 0 0 0 0 0 0 0 0 0 0 0 0 0 0 0 0.06 0"/>
<feBlend mode="normal" in2="BackgroundImageFix" result="effect1_dropShadow_60_2371"/>
<feBlend mode="normal" in="SourceGraphic" in2="effect1_dropShadow_60_2371" result="shape"/>
</filter>
</defs>
</svg>
