<svg width="28" height="20" viewBox="0 0 28 20" fill="none" xmlns="http://www.w3.org/2000/svg">
<rect width="28" height="20" rx="2" fill="white"/>
<mask id="mask0_60_2424" style="mask-type:alpha" maskUnits="userSpaceOnUse" x="0" y="0" width="28" height="20">
<rect width="28" height="20" rx="2" fill="white"/>
</mask>
<g mask="url(#mask0_60_2424)">
<rect width="28" height="20" fill="#05AB41"/>
<path fill-rule="evenodd" clip-rule="evenodd" d="M3.53152 10.5596C3.12552 10.2968 3.12552 9.70283 3.53152 9.44012L13.6377 2.90085C13.8581 2.75824 14.1416 2.75824 14.362 2.90085L24.4682 9.44012C24.8742 9.70283 24.8742 10.2968 24.4682 10.5596L14.362 17.0988C14.1416 17.2414 13.8581 17.2414 13.6377 17.0988L3.53152 10.5596Z" fill="#FDD216"/>
<path fill-rule="evenodd" clip-rule="evenodd" d="M14.0002 14.6668C16.5775 14.6668 18.6668 12.5775 18.6668 10.0002C18.6668 7.42283 16.5775 5.3335 14.0002 5.3335C11.4228 5.3335 9.3335 7.42283 9.3335 10.0002C9.3335 12.5775 11.4228 14.6668 14.0002 14.6668Z" fill="#053087"/>
<mask id="mask1_60_2424" style="mask-type:alpha" maskUnits="userSpaceOnUse" x="9" y="5" width="10" height="10">
<path fill-rule="evenodd" clip-rule="evenodd" d="M14.0002 14.6668C16.5775 14.6668 18.6668 12.5775 18.6668 10.0002C18.6668 7.42283 16.5775 5.3335 14.0002 5.3335C11.4228 5.3335 9.3335 7.42283 9.3335 10.0002C9.3335 12.5775 11.4228 14.6668 14.0002 14.6668Z" fill="white"/>
</mask>
<g mask="url(#mask1_60_2424)">
<path d="M8.77987 8.78057C9.51257 8.18724 11.8769 8.74931 14.084 9.33806C16.291 9.9268 18.5929 11.1608 19.179 11.8846" stroke="white" stroke-width="1.33333" stroke-linecap="square"/>
</g>
</g>
</svg>
