<svg width="28" height="20" viewBox="0 0 28 20" fill="none" xmlns="http://www.w3.org/2000/svg">
<rect x="0.25" y="0.25" width="27.5" height="19.5" rx="1.75" fill="white" stroke="#F5F5F5" stroke-width="0.5"/>
<mask id="mask0_60_2482" style="mask-type:alpha" maskUnits="userSpaceOnUse" x="0" y="0" width="28" height="20">
<rect x="0.25" y="0.25" width="27.5" height="19.5" rx="1.75" fill="white" stroke="white" stroke-width="0.5"/>
</mask>
<g mask="url(#mask0_60_2482)">
<rect x="20" width="8" height="20" fill="#FF3131"/>
<path fill-rule="evenodd" clip-rule="evenodd" d="M0 20H8V0H0V20Z" fill="#FF3131"/>
<path fill-rule="evenodd" clip-rule="evenodd" d="M16.112 9.22169C15.8788 9.4549 15.4847 9.24401 15.5494 8.92062L16.0002 6.66683L14.6668 7.3335L14.0002 5.3335L13.3335 7.3335L12.0002 6.66683L12.4509 8.92062C12.5156 9.24401 12.1216 9.4549 11.8884 9.22169L11.5692 8.90253C11.439 8.77236 11.228 8.77236 11.0978 8.90253L10.6668 9.3335L9.3335 8.66683L10.0002 10.0002L9.5692 10.4311C9.43902 10.5613 9.43902 10.7724 9.5692 10.9025L11.3335 12.6668H13.3335L13.6668 14.6668H14.3335L14.6668 12.6668H16.6668L18.4311 10.9025C18.5613 10.7724 18.5613 10.5613 18.4311 10.4311L18.0002 10.0002L18.6668 8.66683L17.3335 9.3335L16.9025 8.90253C16.7724 8.77236 16.5613 8.77236 16.4311 8.90253L16.112 9.22169Z" fill="#FF3131"/>
</g>
</svg>
