<svg width="28" height="20" viewBox="0 0 28 20" fill="none" xmlns="http://www.w3.org/2000/svg">
<rect width="28" height="20" rx="2" fill="white"/>
<mask id="mask0_60_4130" style="mask-type:alpha" maskUnits="userSpaceOnUse" x="0" y="0" width="28" height="20">
<rect width="28" height="20" rx="2" fill="white"/>
</mask>
<g mask="url(#mask0_60_4130)">
<rect width="28" height="20" fill="#19BFBF"/>
<path fill-rule="evenodd" clip-rule="evenodd" d="M5.4824 8.36836C5.40007 8.53302 5.46682 8.73325 5.63148 8.81558L7.70186 9.85077C7.86652 9.9331 7.93326 10.1333 7.85093 10.298L7.4824 11.035C7.40007 11.1997 7.19985 11.2664 7.03519 11.1841L6.07038 10.7017C6.0241 10.6786 5.97306 10.6665 5.92131 10.6665H4.33333C4.14924 10.6665 4 10.8157 4 10.9998V11.7596C4 11.9031 4.09181 12.0304 4.22792 12.0758L5.48833 12.4959C5.72341 12.5743 5.79384 12.8727 5.61863 13.0479L5.43096 13.2355C5.36845 13.2981 5.33333 13.3828 5.33333 13.4712V13.9457C5.33333 13.9816 5.33911 14.0172 5.35044 14.0512L5.95634 15.8689C5.98429 15.9527 6.04442 16.022 6.12349 16.0616L7.11844 16.5591C7.24677 16.6232 7.40176 16.5981 7.50322 16.4966L8.66667 15.3332L9.00631 14.9935C9.16719 14.8326 9.12318 14.5614 8.91968 14.4597L8.18426 14.092C8.07133 14.0355 8 13.9201 8 13.7938V13.7601C8 13.5432 8.2038 13.3841 8.41418 13.4367L10.4142 13.9367C10.5626 13.9738 10.6667 14.1071 10.6667 14.2601V15.2322C10.6667 15.2981 10.6861 15.3624 10.7226 15.4171L11.901 17.1847C11.9629 17.2775 12.0669 17.3332 12.1784 17.3332H12.441C12.5773 17.3332 12.6999 17.2502 12.7505 17.1236L13.7243 14.689C13.8311 14.422 14.2033 14.4065 14.332 14.6638L14.6425 15.2848C14.6585 15.3168 14.6796 15.3461 14.7049 15.3714L15.9618 16.6283C15.9871 16.6536 16.0163 16.6747 16.0484 16.6907L16.8509 17.092C17.0726 17.2028 17.3333 17.0416 17.3333 16.7938V16.1379C17.3333 16.0495 17.2982 15.9647 17.2357 15.9022L16.9024 15.5689C16.7722 15.4387 16.7722 15.2276 16.9024 15.0975L17.2357 14.7641C17.2982 14.7016 17.383 14.6665 17.4714 14.6665H18.588C18.6397 14.6665 18.6908 14.6545 18.737 14.6313L19.8157 14.092C19.9287 14.0355 20 13.9201 20 13.7938V12.8046C20 12.7162 19.9649 12.6314 19.9024 12.5689L19.569 12.2355C19.4389 12.1054 19.4389 11.8943 19.569 11.7641L20.3396 10.9935C20.5005 10.8326 20.7717 10.8767 20.8735 11.0802L21.2509 11.835C21.3014 11.936 21.4047 11.9998 21.5176 11.9998C21.7392 11.9998 21.8834 11.7666 21.7843 11.5684L21.4824 10.9646C21.4001 10.8 21.4668 10.5998 21.6315 10.5174L22.3685 10.1489C22.5332 10.0666 22.5999 9.86635 22.5176 9.70169L22.0617 8.79C22.0222 8.71093 21.9529 8.6508 21.869 8.62284L20.5117 8.17039C20.2766 8.09203 20.2062 7.79368 20.3814 7.61846L21.2357 6.76413C21.2982 6.70162 21.383 6.6665 21.4714 6.6665H23.1273C23.2536 6.6665 23.369 6.59517 23.4255 6.48224L23.7816 5.76999C23.8866 5.56002 23.7474 5.31021 23.5136 5.28895L17.3754 4.73094C17.094 4.70535 16.9701 4.36311 17.1699 4.16327L17.2357 4.09747C17.2982 4.03496 17.3333 3.95017 17.3333 3.86177V2.99984C17.3333 2.81574 17.1841 2.6665 17 2.6665H14.1381C14.0497 2.6665 13.9649 2.70162 13.9024 2.76414L12.0653 4.60122C12.0226 4.64394 11.969 4.67424 11.9104 4.6889L9.33333 5.33317L6.78629 5.96993C6.7091 5.98923 6.62755 5.98028 6.55638 5.94469L6.05311 5.69306C5.7875 5.56025 5.4939 5.81488 5.58781 6.09661L5.95634 7.20218C5.98429 7.28605 5.97779 7.37759 5.93825 7.45667L5.4824 8.36836ZM14.6667 16.6665C14.6667 17.0347 14.3682 17.3332 14 17.3332C13.6318 17.3332 13.3333 17.0347 13.3333 16.6665C13.3333 16.2983 13.6318 15.9998 14 15.9998C14.3682 15.9998 14.6667 16.2983 14.6667 16.6665ZM10 10.6665C10.3682 10.6665 10.6667 10.368 10.6667 9.99984C10.6667 9.63165 10.3682 9.33317 10 9.33317C9.63181 9.33317 9.33333 9.63165 9.33333 9.99984C9.33333 10.368 9.63181 10.6665 10 10.6665ZM22.6667 12.6665V13.3332L21.9024 14.0975C21.6924 14.3075 21.8411 14.6665 22.1381 14.6665H22.4607C22.5869 14.6665 22.7023 14.5952 22.7588 14.4822L23.3333 13.3332L22.6667 12.6665ZM22.6667 12.6665L23.0352 12.4822C23.2755 12.3621 23.19 11.9998 22.9213 11.9998C22.7807 11.9998 22.6667 12.1138 22.6667 12.2545V12.6665Z" fill="white"/>
</g>
</svg>
