<svg width="28" height="20" viewBox="0 0 28 20" fill="none" xmlns="http://www.w3.org/2000/svg">
<rect width="28" height="20" rx="2" fill="white"/>
<mask id="mask0_60_4121" style="mask-type:alpha" maskUnits="userSpaceOnUse" x="0" y="0" width="28" height="20">
<rect width="28" height="20" rx="2" fill="white"/>
</mask>
<g mask="url(#mask0_60_4121)">
<rect width="28" height="20" fill="#19BFBF"/>
<path fill-rule="evenodd" clip-rule="evenodd" d="M17.0975 17.7641L16.0555 16.7221C16.0189 16.6856 15.9913 16.6409 15.975 16.5919L15.4091 14.8943C15.3638 14.7582 15.2365 14.6665 15.0931 14.6665C14.8764 14.6665 14.7174 14.8701 14.77 15.0804L15.2874 17.1501C15.3158 17.2637 15.2825 17.3838 15.1997 17.4666L14.9022 17.7641C14.772 17.8943 14.561 17.8943 14.4308 17.7641L14.0975 17.4308C14.035 17.3683 13.9998 17.2835 13.9998 17.1951V16.0785C13.9998 16.0268 13.9878 15.9757 13.9646 15.9295L13.4253 14.8508C13.3688 14.7378 13.2534 14.6665 13.1272 14.6665H11.4119C11.3601 14.6665 11.3091 14.6786 11.2628 14.7017L10.1233 15.2714C10.0443 15.311 9.98413 15.3803 9.95618 15.4642L9.37683 17.2022C9.34888 17.2861 9.28875 17.3554 9.20968 17.3949L8.14891 17.9253C8.05507 17.9722 7.94461 17.9722 7.85077 17.9253L6.85077 17.4253C6.73784 17.3688 6.6665 17.2534 6.6665 17.1272V14.9998C6.6665 14.8157 6.81574 14.6665 6.99984 14.6665H8.33317C8.51727 14.6665 8.6665 14.5173 8.6665 14.3332V13.3873C8.6665 13.3514 8.67228 13.3158 8.68361 13.2819L9.2572 11.5611C9.30257 11.425 9.42995 11.3332 9.57342 11.3332H10.5878C10.6396 11.3332 10.6906 11.3211 10.7369 11.298L11.9295 10.7017C11.9757 10.6786 12.0268 10.6665 12.0785 10.6665H12.9998C13.1839 10.6665 13.3332 10.5173 13.3332 10.3332V10.1379C13.3332 10.0495 13.3683 9.96472 13.4308 9.90221L13.6728 9.66019C13.8337 9.49931 14.1049 9.54332 14.2067 9.74682L14.5744 10.4822C14.6308 10.5952 14.7463 10.6665 14.8725 10.6665H16.4263C16.5697 10.6665 16.6971 10.5747 16.7425 10.4386L17.2572 8.89443C17.3026 8.75831 17.4299 8.6665 17.5734 8.6665H18.3332C18.5173 8.6665 18.6665 8.51727 18.6665 8.33317C18.6665 8.14908 18.5173 7.99984 18.3332 7.99984H17.6665C17.4824 7.99984 17.3332 7.8506 17.3332 7.6665V6.74519C17.3332 6.69344 17.3452 6.64241 17.3684 6.59612L17.8924 5.54806C17.9566 5.41973 17.9314 5.26474 17.83 5.16329L17.5689 4.90221C17.4387 4.77203 17.2276 4.77203 17.0975 4.90221L16.0975 5.90221C16.035 5.96472 15.9998 6.0495 15.9998 6.13791V7.27908C15.9998 7.31491 15.9941 7.3505 15.9827 7.38449L15.4091 9.10525C15.3638 9.24136 15.2364 9.33317 15.0929 9.33317H14.8046C14.7162 9.33317 14.6314 9.29805 14.5689 9.23554L14.0959 8.76259C14.0344 8.70107 13.9998 8.61763 13.9998 8.53062C13.9998 8.28676 13.7432 8.12815 13.5251 8.23721L12.8814 8.55906C12.7531 8.62322 12.5981 8.59807 12.4966 8.49662L12.0975 8.09747C12.035 8.03496 11.9998 7.95017 11.9998 7.86177V6.80458C11.9998 6.71617 12.035 6.63138 12.0975 6.56887L13.3332 5.33317L15.2775 3.38881C15.3141 3.35222 15.3587 3.32465 15.4078 3.30829L17.2819 2.68361C17.3158 2.67228 17.3514 2.6665 17.3873 2.6665H18.4605C18.5868 2.6665 18.7022 2.73784 18.7586 2.85077L19.298 3.92946C19.3211 3.97574 19.3332 4.02678 19.3332 4.07853V5.86177C19.3332 5.95017 19.3683 6.03496 19.4308 6.09747L19.8542 6.52083C19.9434 6.61011 19.9746 6.74217 19.9347 6.86194L19.4137 8.42497C19.3661 8.56757 19.4199 8.72435 19.545 8.80773L21.3332 9.99984L22.3288 10.4976C22.5081 10.5873 22.5683 10.8139 22.4571 10.9807L21.3892 12.5825C21.3527 12.6373 21.3332 12.7016 21.3332 12.7674V14.4263C21.3332 14.5697 21.2414 14.6971 21.1052 14.7425L19.4642 15.2895C19.3803 15.3175 19.311 15.3776 19.2714 15.4567L18.6907 16.6181C18.6747 16.6502 18.6536 16.6794 18.6283 16.7048L17.5689 17.7641C17.4387 17.8943 17.2276 17.8943 17.0975 17.7641ZM11.3332 17.3332C11.7014 17.3332 11.9998 17.0347 11.9998 16.6665C11.9998 16.2983 11.7014 15.9998 11.3332 15.9998C10.965 15.9998 10.6665 16.2983 10.6665 16.6665C10.6665 17.0347 10.965 17.3332 11.3332 17.3332ZM9.33317 8.6665C9.33317 9.03469 9.03469 9.33317 8.6665 9.33317C8.29831 9.33317 7.99984 9.03469 7.99984 8.6665C7.99984 8.29831 8.29831 7.99984 8.6665 7.99984C9.03469 7.99984 9.33317 8.29831 9.33317 8.6665Z" fill="white"/>
<path fill-rule="evenodd" clip-rule="evenodd" d="M9.96497 8.73689C9.98811 8.6906 10.0002 8.63956 10.0002 8.58781V8.07853C10.0002 8.02678 9.98811 7.97574 9.96497 7.92946L9.5747 7.14891C9.46388 6.92727 9.62505 6.6665 9.87284 6.6665H10.3335C10.5176 6.6665 10.6668 6.81574 10.6668 6.99984V8.58781C10.6668 8.63956 10.6789 8.6906 10.702 8.73689L11.0923 9.51743C11.2031 9.73907 11.0419 9.99984 10.7942 9.99984H9.87284C9.62505 9.99984 9.46388 9.73907 9.5747 9.51743L9.96497 8.73689Z" fill="white"/>
</g>
</svg>
