<svg width="28" height="20" viewBox="0 0 28 20" fill="none" xmlns="http://www.w3.org/2000/svg">
<rect width="28" height="20" rx="2" fill="white"/>
<mask id="mask0_60_4105" style="mask-type:alpha" maskUnits="userSpaceOnUse" x="0" y="0" width="28" height="20">
<rect width="28" height="20" rx="2" fill="white"/>
</mask>
<g mask="url(#mask0_60_4105)">
<rect width="28" height="20" fill="#19BFBF"/>
<path fill-rule="evenodd" clip-rule="evenodd" d="M13.3333 14.6665L12.7588 13.5174C12.7023 13.4045 12.5869 13.3332 12.4607 13.3332H12.1381C12.0497 13.3332 11.9649 13.2981 11.9024 13.2355L9.43096 10.7641C9.36845 10.7016 9.33333 10.6168 9.33333 10.5284V9.47124C9.33333 9.38284 9.29821 9.29805 9.2357 9.23554L8.06529 8.06512C8.02257 8.0224 7.99226 7.96888 7.97761 7.91027L7.37771 5.51069C7.35007 5.40013 7.26786 5.31135 7.15974 5.27531L5.35581 4.674C5.34084 4.66901 5.32625 4.66296 5.31215 4.65591L4.18426 4.09197C4.07133 4.0355 4 3.92008 4 3.79383V2.99984C4 2.81574 4.14924 2.6665 4.33333 2.6665H5.19526C5.28367 2.6665 5.36845 2.70162 5.43096 2.76413L5.90237 3.23554C5.96488 3.29805 6.04967 3.33317 6.13807 3.33317H7.19526C7.28367 3.33317 7.36845 3.29805 7.43096 3.23554L7.90237 2.76413C7.96488 2.70162 8.04967 2.6665 8.13807 2.6665H10.588C10.6397 2.6665 10.6908 2.67855 10.737 2.70169L11.9296 3.29798C11.9759 3.32112 12.0269 3.33317 12.0787 3.33317H13.2546C13.3064 3.33317 13.3574 3.32112 13.4037 3.29798L14.5963 2.70169C14.6426 2.67855 14.6936 2.6665 14.7454 2.6665H17C17.1841 2.6665 17.3333 2.81574 17.3333 2.99984V3.6665C17.3333 3.8506 17.1841 3.99984 17 3.99984H16.3333C16.1492 3.99984 16 4.14908 16 4.33317V5.79383C16 5.92008 16.0713 6.0355 16.1843 6.09197L16.8509 6.4253C17.0726 6.53612 17.3333 6.37495 17.3333 6.12716V4.99984C17.3333 4.81574 17.4826 4.6665 17.6667 4.6665H19C19.1841 4.6665 19.3333 4.81574 19.3333 4.99984V4.99984C19.3333 5.18393 19.4826 5.33317 19.6667 5.33317H21C21.1841 5.33317 21.3333 5.48241 21.3333 5.6665V6.61241C21.3333 6.64824 21.3276 6.68383 21.3162 6.71782L20.6915 8.59185C20.6752 8.64095 20.6476 8.68555 20.611 8.72215L18.7049 10.6283C18.6796 10.6536 18.6585 10.6828 18.6425 10.7149L18.0352 11.9295C18.012 11.9757 18 12.0268 18 12.0785V12.9998C18 13.1839 17.8508 13.3332 17.6667 13.3332H17.5393C17.4131 13.3332 17.2977 13.2618 17.2412 13.1489L16.7588 12.1841C16.7023 12.0712 16.5869 11.9998 16.4607 11.9998H14.8727C14.7464 11.9998 14.631 12.0712 14.5745 12.1841L14.0745 13.1841C14.0276 13.2779 14.0276 13.3884 14.0745 13.4822L14.5745 14.4822C14.631 14.5952 14.7464 14.6665 14.8727 14.6665H15.8619C15.9503 14.6665 16.0351 14.7016 16.0976 14.7641L17.2357 15.9022C17.2982 15.9647 17.3333 16.0495 17.3333 16.1379V16.9998C17.3333 17.1839 17.1841 17.3332 17 17.3332H16.206C16.0798 17.3332 15.9643 17.2618 15.9079 17.1489L15.4255 16.1841C15.369 16.0712 15.2536 15.9998 15.1273 15.9998H14.206C14.0798 15.9998 13.9643 15.9285 13.9079 15.8156L13.3333 14.6665Z" fill="white"/>
</g>
</svg>
