<svg width="28" height="20" viewBox="0 0 28 20" fill="none" xmlns="http://www.w3.org/2000/svg">
<rect width="28" height="20" rx="2" fill="white"/>
<mask id="mask0_60_4141" style="mask-type:alpha" maskUnits="userSpaceOnUse" x="0" y="0" width="28" height="20">
<rect width="28" height="20" rx="2" fill="white"/>
</mask>
<g mask="url(#mask0_60_4141)">
<rect width="28" height="20" fill="url(#paint0_linear_60_4141)"/>
<path fill-rule="evenodd" clip-rule="evenodd" d="M13.4444 3.33317C13.3723 3.33317 13.3021 3.35656 13.2444 3.39984L10.7205 5.29278C10.6849 5.31944 10.6444 5.33872 10.6013 5.3495L8.03545 5.99096C8.01186 5.99686 7.98898 6.00532 7.96722 6.0162L5.43267 7.28348C5.36816 7.31573 5.31585 7.36804 5.28359 7.43255L4.08646 9.82682C4.03297 9.93381 4.0409 10.0613 4.10725 10.1608L5.2773 11.9159C5.31381 11.9706 5.33329 12.035 5.33329 12.1008V13.8618C5.33329 13.9502 5.3684 14.035 5.43092 14.0975L6.49673 15.1633C6.59819 15.2647 6.75318 15.2899 6.88151 15.2257L10.5962 13.3684C10.6425 13.3452 10.6936 13.3332 10.7453 13.3332H13.2126C13.2906 13.3332 13.3661 13.3605 13.426 13.4104L17.2406 16.5892C17.3005 16.6392 17.376 16.6665 17.454 16.6665H19.8216C19.933 16.6665 20.0371 16.6108 20.0989 16.5181L22.6106 12.7505C22.6471 12.6957 22.6666 12.6314 22.6666 12.5656V10.1008C22.6666 10.035 22.6471 9.97062 22.6106 9.91586L20 5.99984L18.0971 2.82834C18.0368 2.72794 17.9283 2.6665 17.8112 2.6665H17.3927C17.1247 2.6665 16.9906 2.99044 17.18 3.1799C17.2715 3.27143 17.2942 3.41127 17.2363 3.52705L16.7587 4.48224C16.7023 4.59517 16.5869 4.6665 16.4606 4.6665H14.8726C14.7464 4.6665 14.631 4.59517 14.5745 4.48224L14.0921 3.51743C14.0356 3.4045 13.9202 3.33317 13.7939 3.33317H13.4444ZM19.3333 17.3332H18L18.4309 17.7641C18.5611 17.8943 18.7721 17.8943 18.9023 17.7641L19.3333 17.3332Z" fill="white"/>
</g>
<defs>
<linearGradient id="paint0_linear_60_4141" x1="0" y1="0" x2="0" y2="20" gradientUnits="userSpaceOnUse">
<stop stop-color="#19BFBF"/>
<stop offset="1" stop-color="#10ACAC"/>
</linearGradient>
</defs>
</svg>
