<svg width="28" height="20" viewBox="0 0 28 20" fill="none" xmlns="http://www.w3.org/2000/svg">
<rect width="28" height="20" rx="2" fill="white"/>
<mask id="mask0_60_4110" style="mask-type:alpha" maskUnits="userSpaceOnUse" x="0" y="0" width="28" height="20">
<rect width="28" height="20" rx="2" fill="white"/>
</mask>
<g mask="url(#mask0_60_4110)">
<rect width="28" height="20" fill="#19BFBF"/>
<path fill-rule="evenodd" clip-rule="evenodd" d="M10.0002 16.0409C10.0002 16.0136 10.0035 15.9865 10.0101 15.96L10.6668 13.3332L11.31 10.7607C11.3253 10.6992 11.3228 10.6346 11.3028 10.5744L10.7105 8.79749C10.6825 8.71362 10.6224 8.64429 10.5433 8.60476L9.51776 8.09197C9.40483 8.0355 9.3335 7.92008 9.3335 7.79383V5.41186C9.3335 5.36011 9.34554 5.30907 9.36869 5.26279L10.0002 3.99984L10.5747 2.85077C10.6312 2.73784 10.7466 2.6665 10.8728 2.6665H14.3335C14.5176 2.6665 14.6668 2.81574 14.6668 2.99984V3.6665C14.6668 3.8506 14.8161 3.99984 15.0002 3.99984H15.6668C15.8509 3.99984 16.0002 4.14908 16.0002 4.33317V5.12716C16.0002 5.25342 16.0715 5.36884 16.1844 5.4253L18.4826 6.57437C18.5955 6.63084 18.6668 6.74626 18.6668 6.87252V7.92115C18.6668 7.9729 18.6548 8.02393 18.6316 8.07022L18.0398 9.25399C18.0138 9.30588 17.9748 9.3501 17.9265 9.38227L16.0738 10.6174C16.0256 10.6496 15.9865 10.6938 15.9606 10.7457L14.7064 13.254C14.6805 13.3059 14.6414 13.3501 14.5932 13.3823L12.7405 14.6174C12.6922 14.6496 12.6532 14.6938 12.6272 14.7457L11.4256 17.1489C11.3692 17.2618 11.2537 17.3332 11.1275 17.3332H10.3335C10.1494 17.3332 10.0002 17.1839 10.0002 16.9998V16.0409Z" fill="white"/>
</g>
</svg>
