<svg width="28" height="20" viewBox="0 0 28 20" fill="none" xmlns="http://www.w3.org/2000/svg">
<rect x="0.25" y="0.25" width="27.5" height="19.5" rx="1.75" fill="white" stroke="#F5F5F5" stroke-width="0.5"/>
<mask id="mask0_60_2653" style="mask-type:alpha" maskUnits="userSpaceOnUse" x="0" y="0" width="28" height="20">
<rect x="0.25" y="0.25" width="27.5" height="19.5" rx="1.75" fill="white" stroke="white" stroke-width="0.5"/>
</mask>
<g mask="url(#mask0_60_2653)">
<path fill-rule="evenodd" clip-rule="evenodd" d="M0 6.66667H28V0H0V6.66667Z" fill="#E41D33"/>
<path fill-rule="evenodd" clip-rule="evenodd" d="M0 20.0002H28V13.3335H0V20.0002Z" fill="#262626"/>
<path d="M12.3684 9.4824L12.6526 10.0509L12.9586 9.49398L12.9586 9.49396L12.9586 9.49391L12.9587 9.49382L12.9588 9.49366L12.9599 9.49162L12.9652 9.48219C12.97 9.4736 12.9775 9.46052 12.9873 9.44361C13.007 9.40975 13.0361 9.3607 13.0731 9.30155C13.1473 9.18264 13.2512 9.0259 13.3714 8.8708C13.493 8.71374 13.6232 8.56902 13.7488 8.46658C13.8828 8.3572 13.966 8.33333 13.9998 8.33333C14.0572 8.33333 14.1509 8.3644 14.2812 8.46862C14.4068 8.56914 14.5334 8.71141 14.6498 8.86667C14.7648 9.01999 14.8619 9.17512 14.9307 9.29296C14.9648 9.35153 14.9915 9.40005 15.0094 9.43345C15.0183 9.45013 15.025 9.46298 15.0294 9.47137L15.0341 9.48049L15.035 9.48238L15.035 9.4824L15.0351 9.48251L15.0351 9.48258L15.0351 9.48263L15.3332 10.0787L15.6313 9.4824L16.2058 8.33333L16.6665 8.33333C16.8506 8.33333 16.9998 8.48257 16.9998 8.66667V10.7543C16.9998 11.0206 16.7031 11.1794 16.4816 11.0317L15.5181 10.3893L15.4341 10.3333H15.3332H14.6665H14.3332V10.6667V11.3333C14.3332 11.5174 14.1839 11.6667 13.9998 11.6667C13.8157 11.6667 13.6665 11.5174 13.6665 11.3333V10.6667V10.3333H13.3332H12.6665H12.5656L12.4816 10.3893L11.5181 11.0317C11.2966 11.1794 10.9998 11.0206 10.9998 10.7543V8.66667C10.9998 8.48257 11.1491 8.33333 11.3332 8.33333H11.7938L12.3684 9.4824Z" fill="#F4B32E" fill-opacity="0.25" stroke="#C6A846" stroke-width="0.666667"/>
</g>
</svg>
