<svg width="28" height="20" viewBox="0 0 28 20" fill="none" xmlns="http://www.w3.org/2000/svg">
<rect width="28" height="20" rx="2" fill="white"/>
<mask id="mask0_60_2659" style="mask-type:alpha" maskUnits="userSpaceOnUse" x="0" y="0" width="28" height="20">
<rect width="28" height="20" rx="2" fill="white"/>
</mask>
<g mask="url(#mask0_60_2659)">
<path fill-rule="evenodd" clip-rule="evenodd" d="M28 0V10H0V0H28Z" fill="#29C53F"/>
<path fill-rule="evenodd" clip-rule="evenodd" d="M28 10V20.6667H0V10H28Z" fill="#579DED"/>
<path fill-rule="evenodd" clip-rule="evenodd" d="M0 20L28 10L0 0V20Z" fill="#F42D56"/>
<path d="M12.6667 10.0002C12.6667 12.2093 10.8758 14.0002 8.66667 14.0002C6.45753 14.0002 4.66667 12.2093 4.66667 10.0002C4.66667 7.79102 6.45753 6.00016 8.66667 6.00016C10.8758 6.00016 12.6667 7.79102 12.6667 10.0002Z" stroke="#FFC63C" stroke-width="1.33333"/>
<path fill-rule="evenodd" clip-rule="evenodd" d="M8.00016 9.33333C8.36835 9.33333 8.66683 9.03486 8.66683 8.66667C8.66683 8.29848 8.36835 8 8.00016 8C7.63197 8 7.3335 8.29848 7.3335 8.66667C7.3335 9.03486 7.63197 9.33333 8.00016 9.33333Z" fill="#FFC63C"/>
<path fill-rule="evenodd" clip-rule="evenodd" d="M9.33317 9.99984C9.70136 9.99984 9.99984 9.70136 9.99984 9.33317C9.99984 8.96498 9.70136 8.6665 9.33317 8.6665C8.96498 8.6665 8.6665 8.96498 8.6665 9.33317C8.6665 9.70136 8.96498 9.99984 9.33317 9.99984Z" fill="#FFC63C"/>
<path fill-rule="evenodd" clip-rule="evenodd" d="M8.66667 8.66683C9.03486 8.66683 9.33333 8.36835 9.33333 8.00016C9.33333 7.63197 9.03486 7.3335 8.66667 7.3335C8.29848 7.3335 8 7.63197 8 8.00016C8 8.36835 8.29848 8.66683 8.66667 8.66683Z" fill="#FFC63C"/>
<path fill-rule="evenodd" clip-rule="evenodd" d="M8.00016 10.6668C8.36835 10.6668 8.66683 10.3684 8.66683 10.0002C8.66683 9.63197 8.36835 9.3335 8.00016 9.3335C7.63197 9.3335 7.3335 9.63197 7.3335 10.0002C7.3335 10.3684 7.63197 10.6668 8.00016 10.6668Z" fill="#FFC63C"/>
<path fill-rule="evenodd" clip-rule="evenodd" d="M9.33317 11.3333C9.70136 11.3333 9.99984 11.0349 9.99984 10.6667C9.99984 10.2985 9.70136 10 9.33317 10C8.96498 10 8.6665 10.2985 8.6665 10.6667C8.6665 11.0349 8.96498 11.3333 9.33317 11.3333Z" fill="#FFC63C"/>
<path fill-rule="evenodd" clip-rule="evenodd" d="M8.00016 11.9998C8.36835 11.9998 8.66683 11.7014 8.66683 11.3332C8.66683 10.965 8.36835 10.6665 8.00016 10.6665C7.63197 10.6665 7.3335 10.965 7.3335 11.3332C7.3335 11.7014 7.63197 11.9998 8.00016 11.9998Z" fill="#FFC63C"/>
<path fill-rule="evenodd" clip-rule="evenodd" d="M9.33317 12.6668C9.70136 12.6668 9.99984 12.3684 9.99984 12.0002C9.99984 11.632 9.70136 11.3335 9.33317 11.3335C8.96498 11.3335 8.6665 11.632 8.6665 12.0002C8.6665 12.3684 8.96498 12.6668 9.33317 12.6668Z" fill="#FFC63C"/>
</g>
</svg>
