<svg width="28" height="20" viewBox="0 0 28 20" fill="none" xmlns="http://www.w3.org/2000/svg">
<rect width="28" height="20" rx="2" fill="white"/>
<mask id="mask0_60_2731" style="mask-type:alpha" maskUnits="userSpaceOnUse" x="0" y="0" width="28" height="20">
<rect width="28" height="20" rx="2" fill="white"/>
</mask>
<g mask="url(#mask0_60_2731)">
<rect width="28" height="20" fill="#95CEF5"/>
<path fill-rule="evenodd" clip-rule="evenodd" d="M12.4324 6.82405L13.9999 5.76L15.5673 6.82405L15.0397 5.00453L16.536 3.84262L14.6425 3.78214L13.9999 2L13.3572 3.78214L11.4637 3.84262L12.96 5.00453L12.4324 6.82405ZM12.4324 17.4907L13.9999 16.4267L15.5673 17.4907L15.0397 15.6712L16.536 14.5093L14.6425 14.4488L13.9999 12.6667L13.3572 14.4488L11.4637 14.5093L12.96 15.6712L12.4324 17.4907ZM19.3332 11.0933L17.7658 12.1574L18.2934 10.3379L16.797 9.17595L18.6905 9.11547L19.3332 7.33333L19.9758 9.11547L21.8693 9.17595L20.373 10.3379L20.9006 12.1574L19.3332 11.0933ZM7.09909 12.1574L8.66652 11.0933L10.2339 12.1574L9.70634 10.3379L11.2027 9.17595L9.30917 9.11547L8.66652 7.33333L8.02388 9.11547L6.13037 9.17595L7.6267 10.3379L7.09909 12.1574Z" fill="white"/>
</g>
</svg>
