<svg width="28" height="20" viewBox="0 0 28 20" fill="none" xmlns="http://www.w3.org/2000/svg">
<rect x="0.25" y="0.25" width="27.5" height="19.5" rx="1.75" fill="white" stroke="#F5F5F5" stroke-width="0.5"/>
<mask id="mask0_60_2817" style="mask-type:alpha" maskUnits="userSpaceOnUse" x="0" y="0" width="28" height="20">
<rect x="0.25" y="0.25" width="27.5" height="19.5" rx="1.75" fill="white" stroke="white" stroke-width="0.5"/>
</mask>
<g mask="url(#mask0_60_2817)">
<rect x="18.6665" width="9.33333" height="20" fill="#63AEE3"/>
<path fill-rule="evenodd" clip-rule="evenodd" d="M0 20H9.33333V0H0V20Z" fill="#63AEE3"/>
<path d="M12.0002 9.3335C12.0002 8.96531 11.7017 8.66683 11.3335 8.66683C10.9653 8.66683 10.6668 8.96531 10.6668 9.3335H12.0002ZM12.3292 12.2183C12.6477 12.4031 13.0556 12.2947 13.2404 11.9762C13.4252 11.6578 13.3168 11.2498 12.9984 11.065L12.3292 12.2183ZM15.0758 11.02C14.7656 11.2184 14.675 11.6306 14.8734 11.9408C15.0718 12.251 15.484 12.3416 15.7942 12.1433L15.0758 11.02ZM17.3335 9.3335C17.3335 8.96531 17.035 8.66683 16.6668 8.66683C16.2986 8.66683 16.0002 8.96531 16.0002 9.3335H17.3335ZM10.6668 9.3335C10.6668 10.5666 11.3367 11.6424 12.3292 12.2183L12.9984 11.065C12.4001 10.7179 12.0002 10.072 12.0002 9.3335H10.6668ZM15.7942 12.1433C16.7184 11.5521 17.3335 10.5149 17.3335 9.3335H16.0002C16.0002 10.0412 15.6331 10.6636 15.0758 11.02L15.7942 12.1433Z" fill="#628A40"/>
<path fill-rule="evenodd" clip-rule="evenodd" d="M13.9998 10.6667C14.7362 10.6667 15.3332 10.0697 15.3332 9.33333C15.3332 8.59695 14.7362 8 13.9998 8C13.2635 8 12.6665 8.59695 12.6665 9.33333C12.6665 10.0697 13.2635 10.6667 13.9998 10.6667Z" fill="#DCC26D"/>
</g>
</svg>
