<svg width="28" height="20" viewBox="0 0 28 20" fill="none" xmlns="http://www.w3.org/2000/svg">
<rect width="28" height="20" rx="2" fill="#D01129"/>
<mask id="mask0_60_4251" style="mask-type:alpha" maskUnits="userSpaceOnUse" x="0" y="0" width="28" height="20">
<rect width="28" height="20" rx="2" fill="white"/>
</mask>
<g mask="url(#mask0_60_4251)">
<path fill-rule="evenodd" clip-rule="evenodd" d="M13.888 10.0407C14.549 10.0407 15.0848 9.47817 15.0848 8.78435C15.0848 8.0904 14.549 7.52783 13.888 7.52783C13.2271 7.52783 12.6914 8.0904 12.6914 8.78435C12.6914 9.47817 13.2271 10.0407 13.888 10.0407" fill="#FFF101"/>
<path fill-rule="evenodd" clip-rule="evenodd" d="M12.7973 8.27913C13.1362 8.16561 13.5759 8.29772 13.8652 8.58922C14.1723 8.5305 14.4802 8.12561 14.5756 7.76512C14.4708 6.5672 13.7244 5.65968 13.4975 5.03693C13.4257 4.84011 13.093 4.53063 12.747 4.67472C12.4625 4.79326 12.3186 4.70102 11.363 5.20145C10.8463 5.47203 10.4114 5.74995 10.1822 5.79839C9.95294 5.84683 9.71108 5.89001 9.5277 5.73919C9.27546 5.53173 8.99259 5.47436 8.82599 5.31803C8.62187 5.12647 8.49092 4.98188 8.35286 4.92329C8.2148 4.86457 7.9811 4.99497 8.07977 5.30531C8.30242 6.00622 8.82727 6.11974 9.05259 6.77491C9.15896 7.08463 9.31018 7.31742 9.64816 7.08268C9.98614 6.84794 10.4638 6.53613 11.2782 6.50335C11.8251 6.48121 12.3902 6.27008 12.6499 5.92365C12.6473 6.22335 12.748 6.46898 12.7214 6.85882C12.695 7.24879 12.6992 7.73381 12.7973 8.27913" fill="white"/>
<path fill-rule="evenodd" clip-rule="evenodd" d="M13.438 8.31217C13.3376 7.72244 13.5197 7.63743 13.3023 6.94617C13.1715 6.53051 13.088 6.00954 13.0859 5.76709L12.9985 5.79376C13.0006 6.0362 13.0843 6.5573 13.2149 6.97296C13.4252 7.64134 13.2617 7.74287 13.3416 8.2822C13.3663 8.28746 13.4182 8.30483 13.438 8.31217" fill="#FFF101"/>
<path fill-rule="evenodd" clip-rule="evenodd" d="M12.9235 8.2475C12.9242 8.17251 12.9197 8.09423 12.9086 8.02695C13.0623 7.98817 13.3254 8.13728 13.3181 8.02646C13.3159 7.99135 13.3193 7.87783 13.3214 7.81765C13.318 7.91172 12.952 7.75294 12.889 7.79392C12.8213 7.4508 12.9052 7.09777 12.8515 6.88236C12.9737 6.84725 13.1983 6.92383 13.1708 6.82328C13.1552 6.77178 13.1254 6.64371 13.1057 6.56358C13.1249 6.6475 12.9466 6.57802 12.8862 6.62597C12.8549 6.43991 12.8091 6.08689 12.81 5.92554L12.65 5.92383C12.6474 6.22352 12.748 6.46915 12.7215 6.859C12.695 7.24897 12.6992 7.73398 12.7973 8.2793C12.8324 8.26854 12.8902 8.25471 12.9235 8.2475" fill="#FFF101"/>
<path fill-rule="evenodd" clip-rule="evenodd" d="M12.5192 5.50796C12.2806 5.86967 11.7106 6.11934 11.1837 6.17451C10.5669 6.23909 10.1529 6.45463 9.84797 6.66564C9.82176 6.6161 9.77445 6.58943 9.73263 6.55677C9.28653 6.20986 9.46991 5.73977 9.63884 5.80692C9.57511 5.78099 9.53807 5.746 9.50323 5.71971C9.44428 5.67383 9.27418 5.84961 9.2955 6.12876C9.30459 6.24766 9.40152 6.42307 9.4804 6.51604C9.3364 6.48851 9.26743 6.44986 9.18284 6.34258C9.23038 6.31151 9.29189 6.29389 9.34152 6.28986C9.32463 6.24729 9.3011 6.20007 9.2955 6.12876C9.22502 6.12815 9.13904 6.15396 9.06529 6.20656C8.88832 6.02148 8.70611 5.87383 8.60044 5.65536C8.43139 5.30539 8.60335 5.08448 8.82599 5.31811C8.62187 5.12656 8.49092 4.98197 8.35286 4.92337C8.2148 4.86466 7.9811 4.99506 8.07977 5.30539C8.30242 6.00631 8.82727 6.11983 9.05259 6.775C9.15896 7.08472 9.31577 7.32607 9.64816 7.08276C9.69197 7.05071 9.70362 7.04313 9.74172 7.01475C9.84715 6.95078 10.0142 7.05818 9.9964 7.29169C10.0818 7.07726 10.0273 7.01157 9.9548 6.88301C9.90121 6.91298 9.90552 6.73744 9.87244 6.71432C10.0621 6.59053 10.2928 6.46637 10.5838 6.37793C10.5945 6.48276 10.622 6.59408 10.7139 6.57793C10.7632 6.56643 10.8132 6.55604 10.8658 6.54686C10.7738 6.56301 10.748 6.44117 10.7374 6.33646C10.8753 6.30319 11.0261 6.27799 11.1913 6.2638C11.3816 6.24741 11.5784 6.2068 11.7632 6.1438C11.7907 6.24435 11.8475 6.41377 11.9423 6.3805C12.0263 6.35224 12.1079 6.32032 12.1846 6.28325C12.0528 6.34919 12.001 6.16093 11.9693 6.06136C12.2101 5.95139 12.4153 5.80142 12.5379 5.62246L12.5192 5.50796" fill="#FFF101"/>
<path fill-rule="evenodd" clip-rule="evenodd" d="M13.5729 5.68723C13.6892 5.59255 13.789 5.54778 13.6887 5.34729C13.5247 5.01946 13.6266 5.01833 13.2674 4.80977C12.9016 4.59766 12.9479 4.58102 12.4638 4.76023C12.3447 4.80427 12.3713 4.84928 12.3921 5.03057C12.437 5.42127 12.5222 5.7359 12.6002 6.05737C12.9045 6.01565 13.3727 5.85053 13.5729 5.68723Z" fill="#FFF101"/>
<path fill-rule="evenodd" clip-rule="evenodd" d="M12.4377 5.59881C12.3738 5.407 12.3909 5.43306 12.6223 5.49153C12.6981 5.23869 12.8026 5.02528 12.8612 4.82063C12.9267 4.59152 12.9472 4.5503 13.0436 4.60644C13.1668 4.67813 13.3022 4.75384 13.3904 4.79935C13.5444 4.87861 13.5217 4.90638 13.4482 5.03238C13.3747 5.15837 13.1342 5.41373 12.9859 5.68015C13.1815 5.82474 13.2443 5.83783 13.1054 5.90009C12.9498 5.9697 12.6914 6.05593 12.5826 6.07636C12.5627 5.95049 12.4984 5.78071 12.4377 5.59881Z" fill="#FFF101"/>
<path fill-rule="evenodd" clip-rule="evenodd" d="M10.141 7.40238L10.1257 7.59969L9.98713 7.46758L9.83218 7.57804L9.84243 7.3811L9.66406 7.32446L9.81645 7.20972L9.74923 7.02673L9.92806 7.08153L10.0225 6.91211L10.0943 7.09303L10.2789 7.06379L10.1885 7.23639L10.3245 7.36972L10.141 7.40238" fill="#FFF101"/>
<path fill-rule="evenodd" clip-rule="evenodd" d="M14.0172 10.0288C13.754 9.77725 13.6431 9.31144 13.739 8.90263C13.537 8.65285 13.049 8.57517 12.7039 8.66863C11.7683 9.36306 11.3929 10.4954 10.9927 11.0132C10.8662 11.1769 10.7773 11.634 11.0693 11.8767C11.3093 12.0761 11.3052 12.253 12.1956 12.8717C12.6771 13.2062 13.1238 13.4628 13.2784 13.647C13.4331 13.8312 13.5896 14.0296 13.5569 14.2717C13.5119 14.6048 13.6059 14.8908 13.5604 15.1202C13.5043 15.4016 13.4506 15.593 13.4712 15.7479C13.492 15.9028 13.7163 16.05 13.9229 15.8051C14.3896 15.2522 14.221 14.7183 14.6488 14.1858C14.8509 13.9342 14.9674 13.6802 14.6048 13.4903C14.2422 13.3004 13.7462 13.0219 13.3119 12.298C13.0203 11.8117 12.5636 11.4033 12.1479 11.3404C12.3964 11.193 12.5488 10.9786 12.8836 10.8077C13.2184 10.6368 13.6164 10.3907 14.0172 10.0288" fill="white"/>
<path fill-rule="evenodd" clip-rule="evenodd" d="M13.7234 9.42969C13.2874 9.81586 13.1261 9.69268 12.6646 10.236C12.3872 10.5628 11.9993 10.8993 11.8003 11.0223L11.866 11.0884C12.065 10.9653 12.453 10.6288 12.7305 10.3021C13.1767 9.77672 13.3421 9.87458 13.7471 9.5322C13.7391 9.50724 13.7273 9.45134 13.7234 9.42969" fill="#FFF101"/>
<path fill-rule="evenodd" clip-rule="evenodd" d="M13.9273 9.93011C13.8652 9.96693 13.8029 10.0102 13.7529 10.0539C13.6441 9.93354 13.6355 9.61965 13.5479 9.68192C13.5199 9.70124 13.4246 9.75507 13.3738 9.7832C13.4533 9.73929 13.5051 10.1514 13.5705 10.1882C13.3213 10.4214 12.9882 10.5215 12.8374 10.6781C12.7474 10.5844 12.6982 10.3421 12.629 10.4173C12.5944 10.4572 12.5036 10.5483 12.4474 10.6063C12.507 10.5469 12.5388 10.7438 12.6085 10.7746C12.4708 10.8962 12.2025 11.1143 12.0688 11.1942L12.1475 11.3406C12.396 11.1932 12.5484 10.9788 12.8832 10.8079C13.2181 10.637 13.616 10.3909 14.0168 10.0289C13.9904 10.0024 13.9499 9.95678 13.9273 9.93011" fill="#FFF101"/>
<path fill-rule="evenodd" clip-rule="evenodd" d="M11.8701 11.6673C12.2878 11.7034 12.7786 12.0968 13.0876 12.5484C13.4492 13.077 13.8342 13.3456 14.1606 13.5173C14.1329 13.566 14.1345 13.6223 14.1286 13.6767C14.0654 14.2558 13.586 14.324 13.5569 14.1369C13.5674 14.2078 13.557 14.259 13.5528 14.3039C13.5444 14.3804 13.7745 14.4471 13.994 14.2882C14.0876 14.2204 14.1837 14.0447 14.2211 13.9265C14.2702 14.0711 14.2728 14.1532 14.2268 14.2837C14.1773 14.256 14.1321 14.2088 14.1039 14.1659C14.0772 14.2025 14.05 14.2475 13.994 14.2882C14.0287 14.3527 14.093 14.4179 14.1733 14.4586C14.1091 14.7121 14.0785 14.9516 13.951 15.1568C13.747 15.4855 13.4787 15.4396 13.5601 15.1204C13.5041 15.4017 13.4504 15.5932 13.471 15.748C13.4917 15.9029 13.716 16.0502 13.9227 15.8053C14.3894 15.2524 14.2207 14.7184 14.6485 14.1859C14.8507 13.9343 14.9715 13.6711 14.6046 13.4904C14.5561 13.4667 14.5441 13.4599 14.5017 13.4394C14.3962 13.3755 14.4013 13.1699 14.6027 13.0694C14.3832 13.099 14.3563 13.1814 14.2865 13.3116C14.3379 13.3452 14.191 13.4291 14.1884 13.4708C13.9916 13.3603 13.7739 13.2126 13.5554 12.9921C13.6366 12.93 13.7146 12.8493 13.6552 12.7738C13.6211 12.7348 13.5875 12.6944 13.5536 12.6513C13.613 12.7269 13.5255 12.8111 13.4443 12.8733C13.348 12.7645 13.2519 12.64 13.1575 12.4969C13.0488 12.3319 12.9169 12.1733 12.7726 12.0368C12.8418 11.9615 12.953 11.8252 12.8782 11.7556C12.813 11.6933 12.7458 11.635 12.6769 11.584C12.7971 11.6708 12.6677 11.8121 12.6015 11.8907C12.3903 11.7267 12.1641 11.6151 11.9552 11.5932L11.8701 11.6673" fill="#FFF101"/>
<path fill-rule="evenodd" clip-rule="evenodd" d="M11.3218 10.6976C11.1854 10.6393 11.2527 10.5604 11.1375 10.7519C10.9491 11.0649 10.9127 10.9928 10.9204 11.4238C10.9282 11.8623 11.0093 11.7923 11.3992 12.1429C11.699 11.9069 12.0568 11.5502 12.2829 11.3186C12.0964 11.0628 11.5565 10.7983 11.3218 10.6976Z" fill="#FFF101"/>
<path fill-rule="evenodd" clip-rule="evenodd" d="M11.9857 11.6961C11.8594 11.8501 11.8724 11.8216 11.8049 11.5819C11.5585 11.6394 11.3684 11.7058 11.1705 11.7549C10.9487 11.8098 10.9045 11.8117 10.9025 11.6961C10.9001 11.5481 10.8949 11.3873 10.8883 11.2843C10.8768 11.1047 10.9109 11.1113 11.0516 11.1152C11.1924 11.119 11.4847 11.1553 11.7787 11.1569C11.8001 10.9068 11.7795 10.8432 11.9004 10.9385C12.0355 11.045 12.2359 11.2369 12.3072 11.3256C12.2132 11.4066 12.1055 11.5501 11.9857 11.6961Z" fill="#FFF101"/>
<path fill-rule="evenodd" clip-rule="evenodd" d="M14.6217 12.883L14.7921 12.7982L14.7524 12.9902L14.9211 13.0759L14.7534 13.165L14.7958 13.3555L14.6249 13.2743L14.5076 13.427L14.4635 13.2369L14.2765 13.2357L14.3899 13.0801L14.2734 12.9269L14.4611 12.9228L14.5031 12.7324L14.6217 12.883" fill="#FFF101"/>
<path fill-rule="evenodd" clip-rule="evenodd" d="M14.85 8.04502C14.7743 8.40991 14.4454 8.74373 14.0604 8.86104C13.9553 9.16954 14.1352 9.65187 14.3848 9.91915C15.4253 10.4226 16.5472 10.1978 17.1743 10.3028C17.3726 10.3359 17.7941 10.1881 17.8483 9.80147C17.8928 9.48355 18.0406 9.3989 18.1058 8.27976C18.1409 7.67462 18.1292 7.14019 18.2039 6.90753C18.2785 6.67486 18.3639 6.43327 18.5799 6.34202C18.8771 6.21639 19.066 5.98777 19.2783 5.9145C19.5382 5.82471 19.723 5.77786 19.8403 5.68171C19.9577 5.58557 19.967 5.30789 19.6618 5.24245C18.9723 5.09444 18.6163 5.51486 17.9632 5.39205C17.6545 5.33407 17.3868 5.35499 17.4115 5.77982C17.4362 6.20453 17.4545 6.79474 17.0745 7.55156C16.8192 8.05994 16.7107 8.67939 16.8666 9.08881C16.6208 8.93652 16.3677 8.9052 16.0595 8.68624C15.7511 8.46716 15.349 8.2285 14.85 8.04502" fill="white"/>
<path fill-rule="evenodd" clip-rule="evenodd" d="M14.5029 8.61087C15.0396 8.81429 15.0186 9.02249 15.6975 9.1705C16.1057 9.25943 16.5772 9.4439 16.7783 9.56328L16.7998 9.47044C16.5989 9.35105 16.1272 9.16671 15.7191 9.07766C15.0626 8.93454 15.0606 8.73515 14.5757 8.53809C14.5592 8.55802 14.5189 8.59656 14.5029 8.61087" fill="#FFF101"/>
<path fill-rule="evenodd" clip-rule="evenodd" d="M14.8134 8.17556C14.8749 8.21361 14.9418 8.24859 15.0027 8.27232C14.958 8.43134 14.7033 8.59624 14.7985 8.6448C14.8284 8.66058 14.9203 8.72027 14.9689 8.75232C14.8931 8.70205 15.2069 8.44884 15.2047 8.37092C15.5217 8.48101 15.7708 8.73385 15.9754 8.79269C15.9432 8.92137 15.7678 9.08725 15.8645 9.11257C15.9147 9.12407 16.0353 9.16101 16.1112 9.18315C16.0324 9.15868 16.1789 9.03122 16.1695 8.95257C16.3387 9.01691 16.6526 9.15183 16.7853 9.23342L16.8668 9.08871C16.621 8.93642 16.3679 8.90511 16.0596 8.68615C15.7512 8.46706 15.3492 8.22841 14.8502 8.04492C14.8416 8.08211 14.8241 8.14168 14.8134 8.17556" fill="#FFF101"/>
<path fill-rule="evenodd" clip-rule="evenodd" d="M17.2748 9.17774C17.0957 8.77994 17.1749 8.13688 17.3929 7.63009C17.6481 7.03694 17.6772 6.55266 17.6555 6.17003C17.7096 6.17101 17.7552 6.14129 17.8032 6.11951C18.3123 5.88746 18.6083 6.28918 18.4684 6.40918C18.5218 6.36416 18.5692 6.34814 18.6082 6.32954C18.6755 6.29872 18.6155 6.05627 18.3747 5.93615C18.2721 5.8849 18.079 5.88538 17.9628 5.91046C18.0576 5.7934 18.1239 5.75009 18.2546 5.72673C18.2566 5.78557 18.2403 5.85028 18.2189 5.89737C18.2624 5.90324 18.3131 5.90545 18.3747 5.93615C18.4105 5.8723 18.4322 5.78129 18.4256 5.68783C18.6668 5.61957 18.8797 5.52771 19.1127 5.54092C19.4858 5.56208 19.5822 5.82899 19.2782 5.9145C19.5382 5.82471 19.7229 5.77786 19.8402 5.68171C19.9577 5.58557 19.967 5.30789 19.6618 5.24245C18.9723 5.09444 18.6162 5.51486 17.9631 5.39205C17.6545 5.33407 17.377 5.35584 17.4115 5.77982C17.416 5.83572 17.4165 5.85003 17.4208 5.89884C17.4208 6.02679 17.2487 6.1249 17.0651 5.99193C17.1992 6.17688 17.2806 6.16012 17.4229 6.15853C17.425 6.0948 17.5676 6.18642 17.6032 6.16795C17.6106 6.40233 17.5975 6.67413 17.5249 6.983C17.4331 6.94031 17.3277 6.9096 17.295 7.00135C17.2798 7.05187 17.2634 7.10251 17.2448 7.15486C17.2774 7.06312 17.3907 7.10067 17.4824 7.14337C17.4409 7.28538 17.3863 7.43511 17.3155 7.59242C17.2337 7.7737 17.1689 7.97285 17.1285 8.17248C17.0318 8.14716 16.8637 8.11413 16.8436 8.21701C16.825 8.3074 16.8104 8.39768 16.8027 8.48587C16.8143 8.33309 16.9954 8.38006 17.0934 8.40098C17.0638 8.67499 17.0848 8.93652 17.1711 9.13762L17.2748 9.17774" fill="#FFF101"/>
<path fill-rule="evenodd" clip-rule="evenodd" d="M16.5586 10.0094C16.5786 10.1626 16.5656 10.2757 16.7811 10.2847C17.1335 10.2995 17.1049 10.3451 17.4565 10.1227C17.8143 9.8963 17.8238 9.94101 17.9181 9.41122C17.9412 9.28095 17.8908 9.28254 17.7308 9.21085C17.3863 9.05624 17.0852 9.0668 16.7811 8.97689C16.6633 9.2745 16.5241 9.74572 16.5586 10.0094Z" fill="#FFF101"/>
<path fill-rule="evenodd" clip-rule="evenodd" d="M17.2412 9.05821C17.4314 9.09588 17.4014 9.09845 17.2375 9.27973C17.4081 9.47496 17.5388 9.61232 17.6784 9.76792C17.8346 9.94211 17.8582 9.98125 17.7639 10.0408C17.6431 10.117 17.513 10.2022 17.4314 10.2598C17.2889 10.3601 17.2773 10.3256 17.2101 10.1957C17.1429 10.0659 17.0456 9.78395 16.9001 9.51606C16.6829 9.62151 16.6407 9.67215 16.6589 9.5146C16.6793 9.33845 16.7374 9.06029 16.7749 8.95117C16.8886 8.99594 17.0608 9.02224 17.2412 9.05821Z" fill="#FFF101"/>
<path fill-rule="evenodd" clip-rule="evenodd" d="M16.9016 6.06808L16.7466 5.95542L16.9248 5.89548L16.9111 5.69927L17.0684 5.80716L17.2044 5.67334L17.2229 5.8693L17.4074 5.89964L17.2727 6.03493L17.3652 6.20545L17.1801 6.18013L17.1119 6.36264L17.0148 6.19407L16.8368 6.2512L16.9016 6.06808" fill="#FFF101"/>
<path fill-rule="evenodd" clip-rule="evenodd" d="M13.8602 8.59453C13.5706 8.30268 13.1333 8.17442 12.7996 8.28621L12.7902 8.28034C12.7025 7.79301 12.6828 7.32234 12.7143 6.85807C12.7265 6.67848 12.7159 6.54704 12.6808 6.31264C12.6662 6.21543 12.6642 6.20183 12.659 6.16159C12.6487 6.08086 12.6432 6.01252 12.6427 5.9451C12.3864 6.27006 11.8443 6.48788 11.2785 6.51079C10.6093 6.53773 10.1913 6.71444 9.65225 7.08885C9.35276 7.29686 9.18173 7.17307 9.04582 6.7773C8.95582 6.51561 8.84607 6.36455 8.58284 6.08649L8.56259 6.06509C8.2869 5.77375 8.16706 5.60381 8.07294 5.30752C7.98505 5.03112 8.17493 4.83913 8.35566 4.916C8.36797 4.92122 8.38032 4.92716 8.3928 4.93383C8.451 4.96496 8.51073 5.01098 8.58976 5.08312C8.61683 5.10782 8.69615 5.18358 8.75757 5.24226L8.75759 5.24227L8.7576 5.24228C8.79127 5.27445 8.81956 5.30147 8.83091 5.31212C8.83992 5.32057 8.84921 5.32874 8.85894 5.33673C8.84513 5.32762 8.83076 5.32168 8.81605 5.31866L8.74758 5.25338C8.6862 5.19475 8.60713 5.11923 8.58021 5.09466C8.50199 5.02327 8.44312 4.97791 8.38619 4.94745C8.37408 4.94098 8.36211 4.93522 8.3502 4.93017C8.18109 4.85825 8.00277 5.03855 8.08676 5.30268C8.17999 5.5962 8.29869 5.76451 8.57292 6.05431L8.59317 6.07571C8.85779 6.35524 8.9686 6.50777 9.05951 6.77211C9.1927 7.15991 9.3547 7.27718 9.64422 7.0761C10.1853 6.70027 10.6056 6.52257 11.278 6.49551C11.8496 6.47236 12.3967 6.24898 12.6443 5.91872L12.6573 5.92352C12.6566 5.99729 12.6621 6.07081 12.6735 6.15954C12.6786 6.19962 12.6806 6.21319 12.6952 6.31026C12.7305 6.54571 12.7411 6.67814 12.7288 6.85916C12.6976 7.31949 12.7169 7.78611 12.803 8.26906L12.7952 8.27164L12.8045 8.27751L12.803 8.26906C13.141 8.16008 13.5792 8.29019 13.8639 8.5815C14.1515 8.52651 14.4675 8.14525 14.5684 7.76562C14.5186 7.19586 14.3346 6.68067 14.0037 6.0478C13.9527 5.95014 13.8133 5.69388 13.7456 5.56956L13.7085 5.50122C13.603 5.30397 13.5365 5.16495 13.4908 5.03946C13.396 4.77963 13.0418 4.56 12.7497 4.68163C12.71 4.69818 12.6713 4.71137 12.629 4.72322C12.6019 4.73081 12.5743 4.73763 12.5365 4.74627C12.1476 4.83529 11.9324 4.91166 11.3663 5.20809L11.3185 5.23325C11.2098 5.29083 10.9478 5.43545 10.7846 5.52551L10.7845 5.52558L10.7845 5.52559C10.7152 5.56384 10.6638 5.59223 10.6495 5.59991C10.4254 5.72067 10.285 5.78427 10.1837 5.80569C9.84877 5.87645 9.67942 5.87343 9.52328 5.745C9.47411 5.70456 9.42155 5.66799 9.36366 5.63314C9.34872 5.62414 9.33356 5.61534 9.31792 5.60655L9.32256 5.60082L9.32053 5.59069C9.33781 5.60033 9.35448 5.60999 9.37091 5.61987C9.42938 5.65507 9.48251 5.69205 9.53226 5.73297C9.68384 5.85764 9.84995 5.86061 10.1809 5.7907C10.2804 5.76966 10.4199 5.70641 10.6429 5.58631C10.657 5.57866 10.7083 5.55038 10.7773 5.51226L10.7775 5.51219L10.7775 5.51217C10.9406 5.42213 11.203 5.27729 11.312 5.21959L11.3598 5.19441C11.927 4.89738 12.1434 4.82061 12.5334 4.73133C12.571 4.72273 12.5984 4.71596 12.6253 4.70844C12.6671 4.69674 12.7052 4.68374 12.7443 4.66742C13.0448 4.5423 13.407 4.76687 13.5044 5.03399C13.5498 5.15862 13.6161 5.29708 13.7212 5.49374L13.7582 5.56179C13.8258 5.68601 13.9654 5.94261 14.0165 6.04044C14.3482 6.67499 14.5329 7.19198 14.5827 7.76697C14.4801 8.15448 14.1604 8.54036 13.8602 8.59453ZM9.30493 5.58207L9.32053 5.59069L9.32019 5.58899C9.31511 5.5864 9.31002 5.58409 9.30493 5.58207ZM9.25224 5.57119C9.26972 5.57148 9.28732 5.57507 9.30493 5.58207C9.27825 5.56748 9.24991 5.55275 9.21866 5.5371C9.20349 5.5295 9.16984 5.51304 9.13852 5.49774L9.13815 5.49459C9.12576 5.4887 9.11366 5.48376 9.10181 5.4798L9.07363 5.46602C8.98205 5.42057 8.9195 5.38449 8.86898 5.34479L8.869 5.34401C8.86568 5.34139 8.86233 5.33896 8.85894 5.33673L8.86898 5.34479L8.86866 5.35648L8.86385 5.35985C8.85967 5.35662 8.85558 5.35336 8.85155 5.35007L8.85165 5.35C8.85455 5.35192 8.85742 5.35399 8.86025 5.35623L8.86059 5.34375L8.85165 5.35C8.85134 5.34979 8.85102 5.34958 8.8507 5.34938C8.84047 5.341 8.83068 5.33242 8.82121 5.32352L8.81605 5.31866C8.7225 5.29949 8.6155 5.39905 8.55471 5.55928L8.56552 5.56847L8.86385 5.35985C8.91029 5.3958 8.96654 5.42889 9.04485 5.46854C8.93093 5.46299 8.83524 5.56931 8.71299 5.84141L8.72408 5.85068L9.13387 5.51234C9.16474 5.52742 9.19752 5.54345 9.21239 5.5509C9.22621 5.55782 9.23946 5.56456 9.25224 5.57119ZM9.29917 5.59616C9.28413 5.58793 9.26856 5.57965 9.25224 5.57119C9.12235 5.56904 8.99876 5.74916 8.92466 6.06978L8.93728 6.07654L9.31792 5.60655L9.30474 5.59922L9.3052 5.59865L9.31383 5.60274L9.31147 5.59091L9.3052 5.59865L9.29917 5.59616ZM8.94642 6.04165C9.02948 5.70759 9.1662 5.54443 9.29917 5.59616L9.30474 5.59922L8.94642 6.04165ZM8.94642 6.04165L8.93881 6.07339L8.92618 6.06663L8.94642 6.04165ZM9.11906 5.50511L9.13387 5.51234L9.13965 5.50756L9.13852 5.49774L9.1191 5.48826L9.10181 5.4798C9.08221 5.47327 9.06329 5.46944 9.04485 5.46854L9.0674 5.47984L9.09673 5.49419C8.96907 5.45224 8.87162 5.53314 8.73963 5.81839L8.71508 5.83866L8.72616 5.84794L8.73963 5.81839L9.11906 5.50511ZM9.12104 5.50348C9.11281 5.49991 9.10471 5.49681 9.09673 5.49419L9.11309 5.5022L9.11311 5.5022L9.11317 5.50223L9.11906 5.50511L9.12104 5.50348ZM9.12104 5.50348L9.13215 5.50852L9.13065 5.49555L9.12104 5.50348ZM8.57759 5.54166L8.85155 5.35007C8.85127 5.34984 8.85098 5.34961 8.8507 5.34938C8.76306 5.2926 8.64651 5.37911 8.57759 5.54166ZM8.57759 5.54166L8.55744 5.55574L8.56824 5.56493C8.57125 5.55701 8.57437 5.54925 8.57759 5.54166Z" fill="black"/>
<path fill-rule="evenodd" clip-rule="evenodd" d="M13.4176 7.76009C13.4072 7.98614 13.4108 8.10776 13.4453 8.3104L13.4357 8.31896C13.4247 8.31488 13.4105 8.31 13.3957 8.30493C13.3736 8.29735 13.3503 8.28935 13.3346 8.28295C13.3083 8.10526 13.3061 7.99462 13.3157 7.78597L13.3176 7.74263C13.3292 7.47455 13.3088 7.295 13.2081 6.97494C13.0867 6.58866 12.9937 6.06141 12.9966 5.786L13.0933 5.7666C13.0956 6.03313 13.1884 6.5587 13.3093 6.94336C13.4106 7.26537 13.4311 7.4468 13.4195 7.71668L13.4176 7.76009ZM13.4406 8.30454L13.431 8.31309C13.4302 8.30879 13.4295 8.30453 13.4288 8.3003C13.433 8.30178 13.4369 8.3032 13.4406 8.30454ZM13.3432 8.27429C13.3618 8.27824 13.4006 8.29038 13.4288 8.3003C13.3961 8.1039 13.3928 7.98166 13.403 7.75936L13.405 7.71599C13.4165 7.44789 13.3962 7.2683 13.2955 6.94815C13.1741 6.56207 13.0811 6.03496 13.0881 5.77401L13.006 5.79327C13.0083 6.05958 13.101 6.58529 13.2219 6.97014C13.3232 7.29207 13.3438 7.47347 13.3322 7.74332L13.3302 7.78671C13.3207 7.99441 13.3228 8.10413 13.3432 8.27429Z" fill="black"/>
<path fill-rule="evenodd" clip-rule="evenodd" d="M11.7188 5.01025C11.6372 5.047 11.6379 5.17722 11.7038 5.38007C11.7566 5.54229 11.85 5.74609 11.9624 5.95426L11.9757 5.94844L11.7287 5.01523L11.7188 5.01025ZM12.916 8.02528C12.9266 8.09026 12.9317 8.16807 12.931 8.2472L12.9252 8.25461L12.9002 8.26014C12.8638 8.2683 12.8225 8.27756 12.7904 8.28035C12.7027 7.79302 12.6829 7.32234 12.7144 6.85808C12.7266 6.67849 12.7161 6.54704 12.6809 6.31265C12.6663 6.21544 12.6643 6.20183 12.6592 6.16159C12.6477 6.07219 12.6422 5.99797 12.6502 5.91581L12.8175 5.92522C12.8167 6.06354 12.8533 6.38162 12.8917 6.61303C12.9124 6.60152 12.9415 6.59838 12.9872 6.59926L13.0059 6.59974C13.0486 6.60096 13.065 6.60052 13.08 6.59636C13.0972 6.59158 13.1029 6.5829 13.0988 6.565L13.113 6.5613C13.1181 6.58204 13.1404 6.67455 13.139 6.66887L13.1411 6.67733C13.1586 6.74964 13.1701 6.79456 13.178 6.8208C13.1872 6.85449 13.1719 6.87414 13.1368 6.88127C13.112 6.88632 13.0879 6.88608 13.0185 6.8823C12.9983 6.8812 12.987 6.88064 12.9744 6.8802C12.9417 6.87906 12.9148 6.87951 12.8931 6.87987C12.8797 6.8801 12.8683 6.88029 12.8587 6.88005C12.8803 6.9667 12.8817 7.04547 12.8733 7.26737C12.8652 7.48293 12.8663 7.59307 12.8847 7.7232C12.8876 7.74329 12.8908 7.76302 12.8945 7.78244C12.9218 7.77207 12.9705 7.78061 13.0941 7.80965L13.1024 7.81161C13.178 7.82934 13.2175 7.83709 13.252 7.83939C13.2936 7.84216 13.3136 7.83469 13.3143 7.81706L13.3133 7.8457C13.3002 7.85391 13.2791 7.85652 13.2511 7.85465C13.2156 7.85228 13.1756 7.84444 13.0992 7.82653L13.0909 7.82457C12.9603 7.79388 12.9135 7.78673 12.893 7.80005L12.8821 7.7951C12.8776 7.77232 12.8737 7.74912 12.8703 7.72545C12.8517 7.59408 12.8506 7.48325 12.8588 7.26676C12.8671 7.04664 12.8657 6.96849 12.8498 6.87462C12.8818 6.86541 12.9207 6.86302 12.9749 6.86492C12.9876 6.86536 12.9989 6.86592 13.0193 6.86703C13.0872 6.87072 13.1109 6.87096 13.134 6.86626C13.1615 6.86068 13.1706 6.84902 13.1641 6.82523C13.1561 6.7988 13.1446 6.75375 13.1269 6.6811L13.1249 6.67264C13.1259 6.6766 13.115 6.6318 13.1068 6.59779C13.1143 6.58908 13.1165 6.57699 13.113 6.56143L13.0989 6.56512L13.1068 6.59779C13.1016 6.6039 13.0938 6.60834 13.0837 6.61114C13.0668 6.61584 13.0499 6.6163 13.0056 6.61502L12.987 6.61455C12.9369 6.61359 12.9084 6.61772 12.8908 6.63169L12.8792 6.62693C12.84 6.39383 12.8021 6.06686 12.8101 5.93282L12.6574 5.92353C12.6568 5.99729 12.6622 6.07082 12.6736 6.15955C12.6788 6.19963 12.6807 6.2132 12.6953 6.31027C12.7306 6.54572 12.7413 6.67815 12.7289 6.85917C12.6975 7.32218 12.7173 7.79155 12.7955 8.27159C12.825 8.26252 12.8757 8.24987 12.9165 8.2409L12.9164 8.24705L12.9222 8.23964L12.9165 8.2409C12.9169 8.16476 12.912 8.08998 12.9071 8.01914C12.948 8.00882 12.9975 8.01052 13.061 8.0216C13.0823 8.02532 13.1036 8.02974 13.1335 8.03644C13.2252 8.057 13.2388 8.05966 13.2658 8.0602C13.2992 8.06086 13.3127 8.05129 13.311 8.02659C13.3094 8.00024 13.3106 7.93021 13.3133 7.8457C13.3231 7.83959 13.3284 7.83036 13.3288 7.81757L13.3143 7.817L13.3143 7.81699L13.3288 7.81756C13.3255 7.91386 13.3238 7.99708 13.3256 8.02556C13.3279 8.06102 13.3064 8.0763 13.2655 8.07549C13.2371 8.07492 13.2236 8.07229 13.1304 8.05139C13.1007 8.04474 13.0797 8.04036 13.0586 8.03669C12.9969 8.02591 12.9491 8.02427 12.916 8.02528ZM11.717 5.0282L11.7147 5.01933L11.7246 5.02431C11.722 5.02548 11.7195 5.02678 11.717 5.0282ZM11.9454 5.89113C11.8468 5.70329 11.7653 5.52186 11.7176 5.37513C11.6564 5.18684 11.6536 5.06548 11.717 5.0282L11.9454 5.89113ZM11.9454 5.89113C11.9551 5.90961 11.965 5.92815 11.975 5.94672L11.9617 5.95254L11.9454 5.89113ZM11.7613 6.14807L11.7612 6.14812L11.7612 6.14813L11.7608 6.14828L11.7657 6.16478C11.8346 6.13783 11.9035 6.10617 11.9724 6.07013L11.9669 6.05393L11.9666 6.05407L11.9666 6.05406L11.9665 6.05414L11.7613 6.14807ZM11.7613 6.14807C11.8296 6.12133 11.898 6.08991 11.9665 6.05414L11.9666 6.05407L11.9721 6.07026L11.766 6.16462L11.7612 6.14813L11.7613 6.14807ZM10.5822 6.37624C10.5822 6.37626 10.5821 6.37628 10.582 6.3763L10.5859 6.39319L10.7394 6.34573L10.736 6.32873C10.7359 6.32874 10.7358 6.32876 10.7358 6.32878L10.7358 6.32878L10.7357 6.32881C10.6833 6.34321 10.6323 6.35898 10.5823 6.3762L10.5822 6.37623L10.5822 6.37624ZM10.5822 6.37624L10.586 6.39312C10.6359 6.37591 10.6869 6.36016 10.7392 6.34578L10.7358 6.32878C10.7357 6.32879 10.7357 6.3288 10.7357 6.32881L10.5823 6.3762C10.5823 6.37621 10.5823 6.37622 10.5822 6.37624Z" fill="black"/>
<path fill-rule="evenodd" clip-rule="evenodd" d="M11.183 6.1666C11.7405 6.10824 12.2879 5.84504 12.5133 5.50331L12.5264 5.50637L12.5439 5.62663C12.4248 5.80039 12.2243 5.95297 11.9763 6.05864C11.9757 6.0568 11.9864 6.0907 11.9897 6.10093C11.9953 6.1183 12.0005 6.13319 12.0058 6.14738C12.0496 6.26361 12.1012 6.31328 12.177 6.27825C12.1584 6.28714 12.1394 6.29582 12.1199 6.30432C12.0668 6.29775 12.0264 6.24359 11.9923 6.153C11.9868 6.13855 11.9816 6.12344 11.9759 6.10587C11.9726 6.09556 11.9619 6.06159 11.9665 6.05405C12.2163 5.93997 12.4147 5.78897 12.5308 5.62346L12.5151 5.5271C12.5185 5.52209 12.5219 5.51706 12.5253 5.51202L12.5121 5.50896L12.5151 5.5271C12.2809 5.86568 11.7376 6.12391 11.1845 6.18182C10.6497 6.23782 10.2398 6.40336 9.84168 6.66905C9.82508 6.63769 9.80516 6.61921 9.75506 6.58257L9.75487 6.58243C9.7416 6.57273 9.73563 6.56829 9.72837 6.56262C9.52675 6.40582 9.43449 6.20841 9.44791 6.02569C9.45729 5.89801 9.5206 5.80274 9.59352 5.7932C9.60709 5.80081 9.62115 5.8076 9.63629 5.81375L9.64149 5.79948C9.62535 5.79306 9.60922 5.79114 9.59352 5.7932C9.58035 5.78581 9.56764 5.77764 9.55485 5.76853C9.5428 5.75994 9.51088 5.7349 9.50155 5.72757C9.50002 5.72637 9.4991 5.72565 9.49897 5.72555C9.42854 5.67075 9.2849 5.89308 9.30283 6.12785C9.31096 6.23414 9.39692 6.40576 9.48591 6.51065L9.47917 6.52326C9.33191 6.49512 9.26212 6.45472 9.17907 6.33579C9.22184 6.30783 9.27862 6.28883 9.33096 6.28292L9.33487 6.2925L9.33511 6.2921L9.34103 6.28194C9.33776 6.2822 9.33447 6.28252 9.33116 6.2829C9.3311 6.2829 9.33103 6.28291 9.33096 6.28292L9.32023 6.25663C9.30983 6.23075 9.30215 6.20801 9.29808 6.1862C9.29492 6.16928 9.29393 6.15293 9.29552 6.13611C9.29334 6.13609 9.29115 6.13609 9.28896 6.13612C9.21797 6.13715 9.13657 6.16449 9.06022 6.21168C9.04934 6.2003 9.03808 6.18868 9.02622 6.17659C9.0058 6.15577 8.95284 6.10305 8.91574 6.06613C8.89745 6.04792 8.88302 6.03355 8.87825 6.02875C8.73552 5.88492 8.6546 5.78377 8.59401 5.65852C8.51395 5.49278 8.50445 5.34181 8.56057 5.26301C8.59798 5.21049 8.65716 5.19962 8.72409 5.23094C8.7321 5.23859 8.73997 5.24611 8.74758 5.25337C8.76108 5.26627 8.77373 5.27836 8.78478 5.2889C8.69649 5.21379 8.61648 5.21004 8.57223 5.27217C8.52005 5.34544 8.52918 5.49051 8.607 5.6516C8.66667 5.77496 8.74669 5.87498 8.88834 6.01771C8.89307 6.02248 8.90743 6.03678 8.92566 6.05493C8.96276 6.09186 9.01586 6.14472 9.03636 6.16561C9.04827 6.17775 9.05957 6.18941 9.06127 6.19993C9.12892 6.15169 9.20993 6.1236 9.28815 6.12685C9.27051 5.88239 9.4228 5.64725 9.50756 5.7132C9.50773 5.71333 9.50884 5.7142 9.51065 5.71562C9.52057 5.7234 9.55146 5.74764 9.56303 5.75588C9.58812 5.77376 9.61282 5.78781 9.64155 5.7995L9.63634 5.81378C9.55661 5.78208 9.47319 5.8804 9.46243 6.02686C9.44941 6.20417 9.53932 6.39657 9.73705 6.55034C9.74416 6.55589 9.75005 6.56027 9.7632 6.56989L9.76339 6.57003C9.81528 6.60798 9.83637 6.62755 9.84404 6.65896C10.2337 6.38929 10.6458 6.22286 11.183 6.1666ZM9.33753 6.2976C9.28594 6.30258 9.229 6.32087 9.18853 6.33741C9.26705 6.437 9.33125 6.47679 9.46132 6.50412C9.41463 6.44542 9.3699 6.37053 9.33753 6.2976ZM8.79483 5.27782C8.77072 5.25726 8.74695 5.24164 8.72409 5.23094C8.66741 5.17682 8.6038 5.11618 8.58021 5.09465C8.50199 5.02326 8.44312 4.9779 8.38619 4.94745C8.37408 4.94097 8.36211 4.93522 8.3502 4.93016C8.18109 4.85824 8.00277 5.03854 8.08676 5.30268C8.17999 5.5962 8.29869 5.76451 8.57292 6.05431L8.59317 6.0757C8.85779 6.35524 8.9686 6.50777 9.05951 6.77211C9.12114 6.95155 9.18681 7.06909 9.26985 7.12969C9.36865 7.2018 9.49025 7.18879 9.64407 7.07619C9.66228 7.06287 9.67494 7.05375 9.69623 7.03848L9.69687 7.03802C9.71116 7.02774 9.7224 7.01953 9.73815 7.00783C9.85543 6.93667 9.9991 7.0554 10.0048 7.24828C10.0003 7.2611 9.99532 7.27447 9.98975 7.28845L10.0037 7.29201C10.0049 7.27706 10.0052 7.26247 10.0048 7.24828C10.0435 7.13697 10.0407 7.06655 10.005 6.98955C9.99821 6.975 9.99027 6.9599 9.97932 6.94043C9.97912 6.94008 9.9789 6.93968 9.97865 6.93924C9.97293 6.9291 9.95424 6.89599 9.9583 6.88946C9.93979 6.89981 9.92482 6.89149 9.91429 6.86963C9.90706 6.85463 9.9023 6.83668 9.89468 6.80049L9.89283 6.79167C9.88318 6.74572 9.87699 6.72634 9.86847 6.72039L9.86866 6.70753C10.0936 6.56071 10.3209 6.44959 10.5911 6.37682C10.6051 6.51333 10.6403 6.58284 10.7124 6.57017C10.7469 6.56214 10.7805 6.55491 10.8141 6.54836C10.8292 6.55568 10.8467 6.55767 10.867 6.55411C10.8167 6.5629 10.767 6.5731 10.7152 6.58518C10.6304 6.60007 10.5914 6.52304 10.5859 6.38498C10.3294 6.46292 10.1056 6.57178 9.88431 6.71534C9.89283 6.72693 9.89851 6.74773 9.90705 6.78838L9.9089 6.79719C9.91623 6.83203 9.92082 6.84932 9.92728 6.86273C9.93454 6.87779 9.94138 6.8816 9.96114 6.87882L9.99186 6.93265C10.003 6.95244 10.0111 6.96787 10.0181 6.98285C10.0599 7.07292 10.0586 7.15516 10.0032 7.29435L9.98921 7.29079C10.005 7.08379 9.85995 6.95159 9.746 7.02069C9.73075 7.03205 9.71946 7.04031 9.7051 7.05064L9.70446 7.0511C9.68317 7.06636 9.67056 7.07545 9.6524 7.08874C9.49398 7.2047 9.36588 7.2184 9.26154 7.14225C9.17535 7.07935 9.10839 6.95949 9.04582 6.7773C8.95582 6.51561 8.84607 6.36455 8.58284 6.08648L8.56259 6.06509C8.2869 5.77375 8.16706 5.60381 8.07294 5.30752C7.98505 5.03111 8.17493 4.83913 8.35566 4.91599C8.36797 4.92121 8.38032 4.92715 8.3928 4.93382C8.451 4.96496 8.51073 5.01098 8.58976 5.08311C8.61683 5.10781 8.69616 5.18359 8.75759 5.24227C8.77112 5.25519 8.78378 5.26729 8.79483 5.27782ZM10.8646 6.53902L10.867 6.55411L10.8646 6.53902C10.8646 6.53902 10.8646 6.53902 10.8646 6.53902ZM10.8646 6.53902C10.7932 6.55156 10.7591 6.47813 10.7447 6.33536C10.8817 6.30921 11.0323 6.28483 11.1919 6.27113C11.3849 6.25451 11.5821 6.21331 11.7655 6.15078C11.8035 6.31851 11.8607 6.41693 11.9446 6.38745C12.0319 6.35812 12.1108 6.32678 12.1826 6.29234C12.1843 6.29155 12.1861 6.29072 12.1878 6.28986L12.1816 6.27601C12.1801 6.27676 12.1785 6.27751 12.177 6.27825C12.1785 6.27755 12.18 6.27682 12.1815 6.27605L12.1877 6.2899C12.186 6.29072 12.1843 6.29153 12.1826 6.29234C12.1599 6.30287 12.1391 6.30669 12.1199 6.30432C12.0642 6.32855 12.0045 6.35127 11.9401 6.37292C11.869 6.39789 11.8149 6.30479 11.7703 6.1414C11.5787 6.1984 11.3826 6.23937 11.1907 6.25589C11.0305 6.26965 10.8791 6.29414 10.7358 6.32872C10.7432 6.44973 10.7665 6.52537 10.8141 6.54836C10.8309 6.54508 10.8477 6.54198 10.8646 6.53902ZM8.79483 5.27782C8.80689 5.28811 8.81904 5.29964 8.83121 5.31241L8.82121 5.32352C8.81435 5.31708 8.80137 5.30473 8.78478 5.2889C8.7967 5.29904 8.80876 5.31048 8.82091 5.32323L8.83091 5.31212C8.82412 5.30575 8.81127 5.29351 8.79483 5.27782Z" fill="black"/>
<path fill-rule="evenodd" clip-rule="evenodd" d="M13.746 8.90432C13.65 9.3136 13.7629 9.77528 14.0221 10.023L14.0219 10.0344C13.6639 10.3577 13.2858 10.6108 12.8868 10.8144C12.7695 10.8743 12.6695 10.9414 12.5603 11.029C12.5332 11.0508 12.5064 11.073 12.4717 11.1023C12.4749 11.0997 12.4058 11.1583 12.3867 11.1743C12.3014 11.2458 12.2379 11.2939 12.1694 11.3361C12.5656 11.4066 13.0163 11.7907 13.318 12.2938C13.675 12.8888 14.0302 13.1808 14.6081 13.4833C14.9293 13.6516 14.9127 13.869 14.6543 14.1906C14.4822 14.4048 14.4138 14.5778 14.314 14.9642C14.2053 15.3851 14.1296 15.5717 13.9284 15.8101C13.7443 16.0282 13.4912 15.9516 13.464 15.7488C13.4544 15.6763 13.46 15.5942 13.4799 15.48C13.4888 15.4287 13.5253 15.2532 13.5433 15.1665L13.5532 15.1185C13.5556 15.1064 13.5577 15.0946 13.5594 15.0828C13.5591 15.0992 13.5613 15.1145 13.566 15.1288L13.5574 15.1701C13.5394 15.2571 13.5031 15.4318 13.4942 15.4827C13.4745 15.5955 13.469 15.6761 13.4784 15.7467C13.5038 15.9364 13.7416 16.0083 13.9175 15.7999C14.1168 15.5638 14.1918 15.379 14.3 14.9602C14.4003 14.5718 14.4694 14.3971 14.6432 14.1807C14.8964 13.8656 14.9121 13.6597 14.6016 13.497C14.0215 13.1933 13.6643 12.8997 13.3057 12.3019C13.0008 11.7936 12.5431 11.4078 12.1468 11.3479L12.1443 11.3336C12.219 11.2893 12.2855 11.2396 12.3777 11.1623C12.3967 11.1464 12.4657 11.0878 12.4626 11.0904C12.4973 11.061 12.5243 11.0387 12.5514 11.0169C12.6614 10.9287 12.7622 10.861 12.8804 10.8007C13.2761 10.5987 13.6511 10.3481 14.0062 10.0284L14.0123 10.0343L14.0124 10.0228L14.0062 10.0284C13.7472 9.77543 13.6354 9.31202 13.7334 8.90744C13.5442 8.67348 13.0717 8.57678 12.7081 8.67473C12.3584 8.93432 12.0672 9.26683 11.7908 9.69126C11.7148 9.80813 11.5609 10.0759 11.4111 10.3365L11.4111 10.3365C11.2555 10.6073 11.1043 10.8703 11.0494 10.9485C11.0321 10.9731 11.0151 10.9962 10.9984 11.0179C10.8313 11.2339 10.8273 11.6657 11.0738 11.8706C11.0853 11.8801 11.0964 11.8898 11.1073 11.8997C11.1406 11.9298 11.1709 11.961 11.2065 12.001L11.2485 12.0493C11.2765 12.0817 11.3103 12.1206 11.3257 12.1378C11.3791 12.1977 11.4324 12.2529 11.4962 12.3131C11.6608 12.4686 11.8836 12.6456 12.1996 12.8652C12.3604 12.9769 12.8661 13.3108 12.8635 13.3091C13.087 13.4599 13.2137 13.5581 13.2839 13.6418C13.5096 13.9105 13.5919 14.0664 13.5641 14.2726C13.5525 14.358 13.5491 14.4337 13.5524 14.5286L13.5455 14.5273L13.5381 14.5342C13.5344 14.4361 13.5378 14.3584 13.5496 14.2705C13.5767 14.0703 13.4959 13.9174 13.2729 13.6519C13.204 13.5697 13.078 13.472 12.8557 13.322C12.8583 13.3238 12.3525 12.9897 12.1916 12.8779C11.875 12.658 11.6517 12.4805 11.4865 12.3245C11.4224 12.2639 11.3688 12.2084 11.3151 12.1483C11.2996 12.1309 11.2656 12.0918 11.2376 12.0594L11.1958 12.0115C11.1606 11.9718 11.1307 11.941 11.0978 11.9112C11.0871 11.9015 11.0761 11.892 11.0647 11.8826C10.8112 11.6718 10.8153 11.2304 10.987 11.0083C11.0037 10.9867 11.0205 10.9638 11.0377 10.9394C11.0922 10.8619 11.2427 10.6 11.3979 10.3299L11.3979 10.3299L11.3979 10.3299L11.3979 10.3299L11.3979 10.3299L11.3979 10.3299L11.3979 10.3299C11.5479 10.0688 11.7024 9.8001 11.7788 9.68264C12.056 9.25682 12.3484 8.923 12.7021 8.66108C13.073 8.56064 13.5512 8.65851 13.746 8.90432ZM13.5388 14.5527L13.5381 14.5342L13.5369 14.5353C13.5373 14.5413 13.538 14.5471 13.5388 14.5527ZM13.5563 14.6062C13.5478 14.5901 13.5419 14.5723 13.5388 14.5527C13.5412 14.6057 13.5455 14.6648 13.5515 14.7345L13.5525 14.7461L13.5501 14.748C13.5514 14.7622 13.5534 14.7756 13.556 14.7884C13.5673 14.9279 13.5697 15.0001 13.5615 15.0675L13.5605 15.0681C13.5599 15.0731 13.5595 15.078 13.5594 15.0828L13.5615 15.0675L13.5709 15.0621L13.5765 15.065C13.5759 15.0704 13.5752 15.0757 13.5744 15.081L13.5741 15.0808C13.5742 15.0772 13.5745 15.0736 13.5749 15.0699L13.5645 15.0758L13.5741 15.0808C13.574 15.0819 13.574 15.0829 13.574 15.084C13.5722 15.0964 13.57 15.1089 13.5675 15.1217L13.566 15.1288C13.5969 15.2235 13.7326 15.2711 13.8951 15.2461L13.8972 15.2317L13.5765 15.065C13.5831 15.0079 13.5822 14.9468 13.575 14.8455C13.6272 14.9521 13.7629 14.9861 14.0488 14.9611L14.0509 14.9464L13.5668 14.743L13.566 14.7331C13.562 14.6865 13.5587 14.6446 13.5563 14.6062ZM13.5533 14.5509C13.5541 14.5686 13.5551 14.587 13.5563 14.6062C13.6197 14.7251 13.83 14.7474 14.1312 14.6545L14.1304 14.6397L13.5524 14.5286L13.5531 14.5443L13.5524 14.5441L13.5514 14.5342L13.5428 14.5423L13.5524 14.5441L13.5533 14.5509ZM14.0971 14.6488C13.7802 14.7403 13.5773 14.6976 13.5533 14.5509L13.5531 14.5443L14.0971 14.6488ZM14.0971 14.6488L14.1271 14.6399L14.1278 14.6547L14.0971 14.6488ZM13.5683 14.7601L13.5668 14.743L13.56 14.7402L13.5525 14.7461L13.556 14.7884C13.5604 14.8093 13.5666 14.8283 13.575 14.8455C13.5737 14.827 13.5722 14.8072 13.5704 14.7858C13.5995 14.9228 13.7151 14.971 14.0164 14.9484L14.0454 14.9606L14.0476 14.9459L14.0164 14.9484L13.5683 14.7601ZM13.5659 14.7591C13.5671 14.7684 13.5686 14.7773 13.5704 14.7858L13.5683 14.7601L13.5659 14.7591ZM13.5659 14.7591L13.5646 14.7465L13.5546 14.7544L13.5659 14.7591ZM13.8691 15.2341L13.5744 15.081C13.5743 15.082 13.5741 15.083 13.574 15.084C13.5726 15.1909 13.7017 15.2527 13.8691 15.2341ZM13.8691 15.2341L13.8908 15.2454L13.893 15.231C13.8849 15.2322 13.877 15.2332 13.8691 15.2341Z" fill="black"/>
<path fill-rule="evenodd" clip-rule="evenodd" d="M13.2617 9.73357C13.4754 9.6179 13.5642 9.5609 13.719 9.42383L13.7309 9.42827C13.733 9.44022 13.7362 9.45586 13.7395 9.47217C13.7443 9.4958 13.7493 9.52084 13.7519 9.53813C13.6137 9.65498 13.5333 9.70543 13.334 9.81329L13.293 9.83567C13.0839 9.9509 12.9426 10.0641 12.7362 10.3072C12.4783 10.6108 12.09 10.9589 11.8612 11.0939L11.7969 11.0157C12.0155 10.8805 12.4027 10.5334 12.6595 10.2309C12.8672 9.98636 13.0099 9.87202 13.2207 9.75593L13.2617 9.73357ZM13.7166 9.43107L13.7284 9.43552C13.7252 9.43833 13.7221 9.44112 13.7189 9.44387C13.7181 9.4393 13.7173 9.435 13.7166 9.43107ZM13.7189 9.44387C13.5689 9.57587 13.4786 9.63338 13.2683 9.74716L13.2274 9.76946C13.0182 9.88474 12.8769 9.99795 12.6704 10.2411C12.4126 10.5447 12.0243 10.8928 11.8056 11.0168L11.8626 11.0818C12.0812 10.9466 12.4684 10.5995 12.7253 10.297C12.9329 10.0525 13.0756 9.93819 13.2862 9.82213L13.3273 9.7997C13.5258 9.69228 13.6056 9.64226 13.7405 9.53463C13.7344 9.51581 13.7248 9.47411 13.7189 9.44387Z" fill="black"/>
<path fill-rule="evenodd" clip-rule="evenodd" d="M12.5972 11.8964L12.6061 11.8843C12.6665 11.9311 12.7238 11.9799 12.7777 12.0309L12.7682 12.0425L12.5972 11.8964ZM12.5974 11.8966C12.6575 11.9431 12.7144 11.9916 12.7679 12.0423L12.7774 12.0307L12.6064 11.8845L12.5974 11.8966ZM13.5608 13.0071C13.561 13.0073 13.5611 13.0075 13.5613 13.0077L13.5726 12.996L13.5723 12.9957C13.5725 12.9958 13.5726 12.996 13.5727 12.9961L13.5614 13.0078L13.5608 13.0071ZM13.4398 12.8798L13.5608 13.0071C13.5213 12.9678 13.4812 12.9256 13.4398 12.8798ZM13.4394 12.8793C13.4395 12.8794 13.4397 12.8796 13.4398 12.8798L13.4394 12.8793L13.4394 12.8793ZM13.4509 12.8679L13.4394 12.8793C13.4393 12.8792 13.4393 12.8792 13.4392 12.8791L13.4508 12.8677L13.4509 12.8679ZM13.4513 12.8683L13.5723 12.9957C13.5328 12.9564 13.4928 12.9142 13.4513 12.8683ZM13.4513 12.8683L13.4509 12.8679L13.4509 12.8678C13.4511 12.868 13.4512 12.8681 13.4513 12.8683Z" fill="black"/>
<path fill-rule="evenodd" clip-rule="evenodd" d="M11.875 11.6731L11.871 11.6596C11.8768 11.6601 11.8827 11.6607 11.8885 11.6613L11.875 11.6731ZM12.7259 11.631C12.738 11.6605 12.7359 11.6942 12.7212 11.7314C12.7078 11.7653 12.6852 11.8003 12.6527 11.8412C12.6406 11.8564 12.6286 11.8706 12.5975 11.8968C12.3781 11.7265 12.1545 11.6217 11.9601 11.599L11.8885 11.6613C12.2849 11.7049 12.7695 12.0698 13.0938 12.5439C13.4072 13.0021 13.7486 13.2918 14.1671 13.5212C14.1495 13.5521 14.1442 13.5795 14.1391 13.6437L14.139 13.6453C14.1377 13.6605 14.137 13.6685 14.1361 13.6775C14.1075 13.9393 13.9908 14.1218 13.8334 14.201C13.7235 14.2562 13.6133 14.2464 13.5689 14.185C13.5684 14.1691 13.5669 14.1532 13.5643 14.1357L13.5499 14.1381C13.5527 14.156 13.5593 14.1717 13.5689 14.185C13.5697 14.2114 13.5678 14.238 13.5638 14.2728C13.5619 14.2892 13.561 14.2966 13.5603 14.3047C13.5503 14.3961 13.8055 14.4155 13.9901 14.2819C14.0737 14.2213 14.1722 14.0576 14.2144 13.924L14.2282 13.9239C14.2784 14.0717 14.28 14.1554 14.2236 14.2904C14.1792 14.2656 14.1352 14.2235 14.104 14.1788C14.1068 14.1748 14.109 14.1717 14.1099 14.1705L14.1094 14.1705L14.0981 14.1702C14.1 14.173 14.1019 14.1758 14.1038 14.1786C14.1039 14.1787 14.1039 14.1787 14.104 14.1788C14.1032 14.1799 14.1024 14.181 14.1015 14.1822C14.0948 14.1917 14.0859 14.2041 14.0821 14.2092C14.0703 14.2252 14.0594 14.2386 14.0473 14.2514C14.0406 14.2585 14.0336 14.2653 14.0265 14.2709C14.018 14.2777 14.0093 14.2827 14.0006 14.2844C14.0017 14.2864 14.0028 14.2884 14.0039 14.2903C14.0402 14.3544 14.1034 14.4147 14.1806 14.4605C14.1674 14.5126 14.1644 14.5256 14.1355 14.6529C14.0775 14.9088 14.038 15.0311 13.9574 15.161C13.8608 15.3166 13.741 15.4007 13.6479 15.3891C13.5858 15.3814 13.5473 15.3329 13.5397 15.2562C13.5463 15.2241 13.5525 15.1942 13.5574 15.1707C13.539 15.2895 13.5759 15.3647 13.6497 15.3739C13.7362 15.3847 13.8513 15.3039 13.9452 15.1526C14.0246 15.0246 14.0637 14.9036 14.1214 14.6494C14.1503 14.5219 14.1533 14.5088 14.1704 14.4654C14.0967 14.428 14.033 14.3685 13.9966 14.2957C13.8039 14.434 13.5338 14.4131 13.5458 14.3031C13.5466 14.2949 13.5474 14.2873 13.5493 14.271C13.5557 14.2164 13.5566 14.1829 13.5499 14.138L13.5643 14.1356C13.5781 14.2239 13.7009 14.2506 13.8271 14.1872C13.9798 14.1104 14.0936 13.9324 14.1216 13.6758C14.1226 13.6669 14.1232 13.6591 14.1244 13.6441L14.1246 13.6424C14.1299 13.576 14.1355 13.5469 14.1576 13.5241C13.7401 13.3045 13.3969 13.0131 13.0819 12.5528C12.7551 12.075 12.2644 11.7089 11.8698 11.6749L11.8657 11.6614L11.9561 11.5855C12.1588 11.6067 12.3848 11.7127 12.5963 11.8855C12.6177 11.8604 12.6295 11.8464 12.6415 11.8313C12.6732 11.7916 12.6951 11.7577 12.7077 11.7255C12.7293 11.6709 12.7214 11.6271 12.6767 11.5929C12.693 11.6051 12.7094 11.6178 12.7259 11.631ZM13.5813 12.6975C13.5862 12.7522 13.5355 12.8111 13.4393 12.8784C13.3393 12.7657 13.2435 12.6403 13.1518 12.5012C13.0423 12.3351 12.9105 12.1773 12.7676 12.0315C12.8801 11.909 12.9297 11.8134 12.8736 11.7612C12.8231 11.7131 12.7741 11.6697 12.7259 11.631C12.7182 11.6124 12.7048 11.5955 12.6851 11.5805C12.7497 11.6286 12.8153 11.6849 12.8833 11.7498C12.9496 11.8115 12.8971 11.9125 12.7777 12.0311C12.9211 12.1667 13.0537 12.3254 13.1637 12.4925C13.255 12.631 13.3505 12.7558 13.4403 12.8671C13.551 12.7823 13.5944 12.7148 13.5483 12.6561C13.5592 12.6701 13.5702 12.6838 13.5813 12.6975ZM13.5595 12.6463L13.5483 12.6561C13.5483 12.6561 13.5483 12.6561 13.5483 12.6561L13.5595 12.6463ZM14.1838 13.4593C13.9548 13.3299 13.7533 13.1808 13.5607 12.9865C13.6717 12.9128 13.7159 12.8386 13.6611 12.7689C13.6261 12.7289 13.5927 12.6886 13.5595 12.6464L13.5595 12.6463C13.5726 12.663 13.5798 12.68 13.5813 12.6975C13.6039 12.7252 13.6267 12.7522 13.6501 12.779C13.6968 12.8382 13.6569 12.9052 13.5513 12.9858C13.7465 13.1953 13.9517 13.3464 14.1853 13.4775L14.196 13.4713C14.1967 13.4599 14.209 13.4457 14.2481 13.4082L14.2548 13.4017C14.2775 13.3797 14.2901 13.3657 14.2979 13.3522C14.3089 13.3329 14.3075 13.3161 14.2907 13.305C14.2954 13.3096 14.3167 13.2705 14.3259 13.2535C14.3269 13.2518 14.3277 13.2502 14.3284 13.249C14.3831 13.1496 14.4365 13.1062 14.5634 13.0832C14.4071 13.1848 14.3809 13.3749 14.4984 13.446C14.5154 13.4543 14.5273 13.4601 14.5436 13.4683L14.5441 13.4686C14.5773 13.4852 14.5807 13.487 14.6018 13.4973C14.7715 13.5809 14.843 13.685 14.8329 13.8109C14.8245 13.9167 14.7604 14.0351 14.6432 14.181C14.4694 14.3973 14.4004 14.572 14.3 14.9604C14.1918 15.3792 14.1168 15.564 13.9175 15.8001C13.7416 16.0086 13.5039 15.9366 13.4785 15.7469C13.4691 15.6763 13.4746 15.5957 13.4942 15.483C13.5007 15.4459 13.5218 15.343 13.5397 15.2562C13.5371 15.2297 13.5382 15.1998 13.5433 15.167C13.5433 15.1669 13.5433 15.1668 13.5434 15.1667C13.5486 15.1414 13.5523 15.1237 13.5533 15.1188L13.5674 15.1223C13.5631 15.1391 13.5598 15.1553 13.5574 15.1707C13.5575 15.1706 13.5575 15.1705 13.5575 15.1703C13.5628 15.1448 13.5665 15.1269 13.5675 15.1219L13.5534 15.1183C13.5491 15.1352 13.5457 15.1514 13.5433 15.167C13.5252 15.2539 13.4888 15.429 13.4799 15.4802C13.46 15.5945 13.4544 15.6765 13.4641 15.749C13.4912 15.9518 13.7443 16.0284 13.9284 15.8103C14.1296 15.5719 14.2053 15.3853 14.3141 14.9644C14.4139 14.578 14.4823 14.405 14.6543 14.1908C14.7733 14.0427 14.8386 13.922 14.8475 13.8122C14.8581 13.6792 14.7828 13.5695 14.608 13.4834C14.5869 13.4731 14.5835 13.4714 14.5504 13.4548L14.5499 13.4545C14.5335 13.4463 14.5216 13.4404 14.505 13.4324C14.391 13.3634 14.4275 13.1654 14.6061 13.0762L14.6021 13.0617C14.4408 13.0835 14.3782 13.1279 14.3158 13.2414C14.3105 13.2509 14.2955 13.2794 14.2867 13.2959C14.2835 13.3019 14.2812 13.3064 14.2805 13.3078C14.2921 13.324 14.2928 13.3315 14.2854 13.3443C14.2786 13.3562 14.2666 13.3695 14.2449 13.3905L14.2383 13.3969C14.2035 13.4302 14.1889 13.4456 14.1838 13.4593ZM14.5634 13.0832C14.5749 13.0758 14.587 13.0688 14.5999 13.0624L14.6039 13.0769C14.5896 13.0788 14.5762 13.0809 14.5634 13.0832ZM12.6851 11.5805C12.6839 11.5796 12.6826 11.5786 12.6814 11.5777L12.673 11.5902C12.6743 11.5911 12.6755 11.592 12.6767 11.5929C12.6754 11.592 12.6742 11.5911 12.673 11.5902L12.6813 11.5776C12.6826 11.5786 12.6839 11.5795 12.6851 11.5805ZM14.1128 14.1655C14.1429 14.21 14.1864 14.2526 14.2202 14.281C14.2629 14.1598 14.2637 14.0814 14.2213 13.9496C14.1961 14.0215 14.1567 14.0996 14.1128 14.1655Z" fill="black"/>
<path fill-rule="evenodd" clip-rule="evenodd" d="M14.624 12.873L14.509 12.7271L14.4963 12.7302L14.4544 12.9205L14.2736 12.9188L14.2681 12.9312L14.3846 13.0843L14.271 13.2305L14.2767 13.2428L14.4637 13.244L14.5009 13.4283L14.5136 13.4313L14.6309 13.2786L14.7932 13.362L14.8033 13.3533L14.7608 13.1627L14.9247 13.0822L14.9246 13.0685L14.7559 12.9828L14.7996 12.7994L14.7893 12.7908L14.624 12.873ZM14.7822 12.8113L14.6251 12.8894L14.6164 12.8874L14.5068 12.7483L14.5105 12.7336L14.4978 12.7368L14.5068 12.7483L14.4616 12.9299L14.2881 12.9337L14.2794 12.9216L14.2739 12.9341L14.2881 12.9337L14.396 13.0842L14.2912 13.228L14.2768 13.2275L14.2826 13.2398L14.2912 13.228L14.4708 13.2346L14.5116 13.4102L14.5023 13.4217L14.515 13.4247L14.5116 13.4102L14.6283 13.2669L14.7862 13.3419L14.7891 13.3568L14.7992 13.3481L14.7862 13.3419L14.7505 13.1576L14.9055 13.0753L14.9182 13.0823L14.9181 13.0686L14.9055 13.0753L14.7456 12.988L14.7822 12.8113ZM14.7822 12.8113L14.7956 12.8046L14.7853 12.7961L14.7822 12.8113Z" fill="black"/>
<path fill-rule="evenodd" clip-rule="evenodd" d="M14.0588 8.85343C14.4444 8.73597 14.7688 8.40242 14.8434 8.04312L14.8529 8.03753C15.2989 8.20152 15.697 8.41887 16.064 8.67964C16.2163 8.78781 16.3072 8.83125 16.5744 8.93949C16.7017 8.99106 16.7766 9.02542 16.8529 9.07103C16.713 8.67543 16.8045 8.07359 17.0685 7.54772C17.3808 6.92571 17.4441 6.45704 17.4047 5.78001C17.3828 5.40363 17.5703 5.31012 17.9649 5.38425C18.2223 5.43266 18.406 5.40871 18.7531 5.31247L18.78 5.30499C19.1736 5.19562 19.3684 5.17128 19.6637 5.23469C19.9356 5.29297 19.999 5.5616 19.8452 5.68747C19.787 5.73521 19.7119 5.77245 19.596 5.81467C19.5596 5.82796 19.447 5.86571 19.3656 5.89301L19.3656 5.89302C19.3257 5.90639 19.2933 5.91724 19.281 5.92149L19.2688 5.92588C19.2808 5.91821 19.2911 5.90923 19.2996 5.8991L19.3614 5.87834C19.4428 5.85106 19.555 5.81344 19.5913 5.80022C19.7058 5.75851 19.7796 5.7219 19.8363 5.67541C19.9801 5.55764 19.9206 5.30537 19.6608 5.24967C19.3682 5.18686 19.1753 5.21096 18.7837 5.31977L18.7568 5.32725C18.4079 5.42402 18.2224 5.4482 17.9624 5.39931C17.5757 5.32666 17.3981 5.41524 17.4193 5.77908C17.4588 6.45866 17.3952 6.92996 17.0814 7.55486C16.8146 8.08621 16.7252 8.69537 16.8739 9.0857L16.8634 9.09512C16.7815 9.04439 16.7057 9.00907 16.5692 8.95376C16.301 8.8451 16.2094 8.80133 16.0559 8.6923C15.6919 8.43375 15.2974 8.218 14.8558 8.05481L14.8576 8.04637L14.8481 8.05196L14.8558 8.05481C14.7768 8.41662 14.4504 8.75004 14.0677 8.86335C13.9693 9.15227 14.1257 9.63004 14.3884 9.91193C14.5303 9.9806 14.6777 10.0377 14.8313 10.0842C15.3044 10.2276 15.6918 10.2589 16.4617 10.2608C16.8569 10.2617 17.0111 10.2673 17.1759 10.2949C17.4377 10.3387 17.7958 10.1265 17.8416 9.80009C17.8491 9.74589 17.8599 9.69622 17.8757 9.63936C17.8854 9.6042 17.9283 9.46412 17.9242 9.47788C17.9459 9.40524 17.963 9.34171 17.9796 9.26836C18.0336 9.02974 18.0732 8.7216 18.099 8.27902C18.1089 8.10841 18.1116 8.04083 18.1245 7.67659C18.1406 7.2204 18.1556 7.03507 18.1974 6.90481C18.3065 6.56495 18.3938 6.41236 18.5777 6.33466C18.6514 6.30352 18.7196 6.26612 18.7946 6.21711L18.797 6.2242L18.8064 6.22742C18.7291 6.27818 18.659 6.31677 18.5831 6.34884C18.4046 6.42427 18.319 6.57395 18.2112 6.9097C18.1701 7.0379 18.1551 7.22293 18.139 7.67716C18.1261 8.04154 18.1234 8.10917 18.1135 8.27995C18.0877 8.72335 18.048 9.03235 17.9938 9.2719C17.9771 9.34563 17.9599 9.4095 17.938 9.48247C17.9421 9.46891 17.8993 9.60871 17.8897 9.64364C17.8741 9.69986 17.8634 9.74886 17.856 9.80231C17.8089 10.138 17.4427 10.355 17.1736 10.31C17.0099 10.2826 16.856 10.277 16.4616 10.2761C15.6905 10.2742 15.302 10.2428 14.8272 10.0989C14.673 10.0521 14.5249 9.99482 14.3801 9.92423C14.1117 9.63694 13.9534 9.15339 14.0588 8.85343ZM18.8213 6.2175L18.8064 6.22742L18.808 6.22796C18.8126 6.22462 18.8171 6.22113 18.8213 6.2175ZM18.8566 6.17509C18.8476 6.19082 18.8359 6.20501 18.8213 6.2175C18.8456 6.20128 18.8705 6.18386 18.8967 6.16506C18.9114 6.1545 18.9437 6.13072 18.974 6.10842L18.9768 6.10967C18.9879 6.10134 18.998 6.09279 19.0072 6.08397L19.0377 6.06159C19.0905 6.02332 19.1312 5.99603 19.1706 5.97326C19.1937 5.95987 19.216 5.94838 19.2377 5.93868L19.2404 5.94022C19.2508 5.93615 19.2603 5.93135 19.2688 5.92588C19.2585 5.92973 19.2482 5.934 19.2377 5.93868L19.2288 5.93368L19.2283 5.92626C19.2337 5.92383 19.239 5.9215 19.2443 5.91928L19.2444 5.92144C19.241 5.92312 19.2374 5.92469 19.2336 5.92615L19.2452 5.9327L19.2444 5.92144C19.2495 5.91901 19.2542 5.91635 19.2587 5.91348C19.2646 5.91117 19.2706 5.909 19.2765 5.90696L19.2996 5.8991C19.3646 5.82206 19.3307 5.67882 19.217 5.5468L19.2022 5.55202L19.2283 5.92626C19.2073 5.93582 19.1858 5.94699 19.1635 5.95986C19.1276 5.98063 19.0908 6.00503 19.045 6.03782C19.1064 5.93702 19.0665 5.79674 18.9033 5.54963L18.8901 5.55507L18.9643 6.09687C18.9344 6.11888 18.9029 6.14208 18.8884 6.15245L18.8566 6.17509ZM18.8126 6.20522C18.8269 6.19562 18.8416 6.18558 18.8566 6.17509C18.9233 6.05804 18.8365 5.85559 18.6091 5.62796L18.5972 5.63606L18.7946 6.21711L18.8072 6.20878L18.8075 6.20949L18.7998 6.2153L18.8107 6.21906L18.8075 6.20949L18.8126 6.20522ZM18.6214 5.66181C18.8554 5.90424 18.9216 6.11012 18.8126 6.20522L18.8072 6.20878L18.6214 5.66181ZM18.6214 5.66181L18.599 5.63903L18.6109 5.63092L18.6214 5.66181ZM18.9777 6.08703L18.9643 6.09687L18.9654 6.10455L18.974 6.10842L18.9903 6.09644L18.9903 6.09642L19.0072 6.08397C19.0224 6.06943 19.035 6.05414 19.045 6.03782L19.0294 6.049L18.9979 6.07216C19.0962 5.97712 19.0781 5.84791 18.909 5.58537L18.9045 5.55289L18.8913 5.55834L18.909 5.58537L18.9777 6.08703ZM18.978 6.08968C18.9851 6.08396 18.9917 6.07813 18.9979 6.07216L18.9818 6.08399L18.9777 6.08703L18.978 6.08968ZM18.978 6.08968L18.9683 6.09725L18.9798 6.10237L18.978 6.08968ZM19.2203 5.57639L19.2443 5.91928C19.2491 5.91726 19.2539 5.91532 19.2587 5.91348C19.3477 5.85627 19.3293 5.71386 19.2203 5.57639ZM19.2203 5.57639L19.2186 5.55105L19.2037 5.55627C19.2095 5.56296 19.215 5.56967 19.2203 5.57639Z" fill="black"/>
<path fill-rule="evenodd" clip-rule="evenodd" d="M14.6097 8.6626C14.575 8.64728 14.5387 8.6324 14.5003 8.61787L14.498 8.60486C14.5074 8.59647 14.5192 8.58529 14.5314 8.57378C14.5482 8.55797 14.5656 8.54153 14.5782 8.53076C14.5973 8.5385 14.6158 8.54634 14.6339 8.5543C14.7749 8.61628 14.8365 8.65361 15.023 8.77923C15.2467 8.92986 15.4013 9.00041 15.7205 9.06998C16.1 9.15279 16.5813 9.33175 16.8067 9.47206L16.7745 9.56975C16.5536 9.43855 16.0737 9.26011 15.6958 9.17779C15.3748 9.10781 15.2186 9.03651 14.9934 8.88488C14.8087 8.76045 14.7481 8.72373 14.6097 8.6626ZM14.5075 8.61649L14.5052 8.60348C14.5091 8.60496 14.513 8.60644 14.5169 8.60793C14.5136 8.61099 14.5104 8.61387 14.5075 8.61649ZM14.5811 8.54291C14.5686 8.5579 14.5393 8.58718 14.5169 8.60793C14.5512 8.62114 14.5839 8.63464 14.6153 8.6485C14.7548 8.71008 14.8159 8.74712 15.0013 8.87201C15.225 9.02268 15.3796 9.09324 15.6988 9.16282C16.0781 9.24544 16.5593 9.42441 16.771 9.56128L16.7961 9.4769C16.5756 9.3459 16.0956 9.16745 15.7175 9.08495C15.3965 9.01498 15.2403 8.94368 15.0152 8.7921C14.8293 8.66694 14.7682 8.62994 14.6283 8.5684C14.6273 8.56797 14.6263 8.56754 14.6253 8.5671C14.6083 8.55964 14.5913 8.55217 14.5811 8.54291Z" fill="black"/>
<path fill-rule="evenodd" clip-rule="evenodd" d="M17.4917 7.14561C17.5105 7.08932 17.5266 7.03618 17.5404 6.98484L17.5243 6.98096L17.5243 6.98117L17.5243 6.98117C17.5242 6.98121 17.5242 6.98125 17.5242 6.98129L17.4758 7.14098C17.4757 7.14103 17.4757 7.14108 17.4757 7.14113L17.4757 7.14114L17.4757 7.14132L17.4917 7.14561ZM17.4757 7.14114L17.4917 7.14543L17.5404 6.98506L17.5243 6.98117L17.5242 6.98129C17.5105 7.03226 17.4944 7.08505 17.4758 7.14098L17.4757 7.14114ZM15.0002 8.27959C14.9412 8.25663 14.8745 8.22228 14.8097 8.18226L14.8065 8.17326L14.8146 8.14738L14.8146 8.14738C14.8259 8.11051 14.839 8.06829 14.8527 8.03781C15.2986 8.2018 15.6967 8.41915 16.0638 8.67992C16.2161 8.78809 16.307 8.83153 16.5741 8.93977C16.7114 8.99537 16.7878 9.03096 16.8731 9.09271L16.7817 9.24012C16.6677 9.17001 16.3861 9.04378 16.1772 8.96374C16.1764 8.98536 16.1669 9.01015 16.1493 9.04243C16.1453 9.04977 16.141 9.05719 16.1351 9.06728C16.1077 9.11427 16.1023 9.12434 16.0975 9.14074C16.0918 9.16032 16.0959 9.1705 16.1134 9.17592L16.1093 9.19062L16.1092 9.19058L16.1132 9.17589L16.0823 9.16677C16.0797 9.15827 16.0802 9.14801 16.0836 9.13626C16.089 9.11801 16.0944 9.10791 16.1227 9.05929C16.1285 9.04932 16.1327 9.04201 16.1366 9.03483C16.1561 8.99915 16.1647 8.97379 16.1623 8.95363L16.172 8.94548C16.3826 9.02556 16.6722 9.15508 16.7791 9.22964L16.8631 9.0954C16.7812 9.04467 16.7054 9.00935 16.5689 8.95404C16.3007 8.84538 16.2091 8.80161 16.0556 8.69258C15.6895 8.43252 15.2926 8.21577 14.8573 8.04683C14.85 8.07832 14.835 8.13119 14.8222 8.1722L14.8171 8.16908L14.8203 8.17808L14.8222 8.1722C14.8846 8.21046 14.9488 8.24347 15.0097 8.27459C15.0075 8.28239 15.0048 8.2903 15.0016 8.29833C14.9832 8.3444 14.9514 8.3901 14.8988 8.45244L14.8734 8.48209L14.8431 8.51758C14.8235 8.54085 14.8103 8.55813 14.8008 8.57324C14.7792 8.60751 14.7791 8.62649 14.8018 8.63807C14.8244 8.64996 14.8845 8.68803 14.9497 8.73072C14.9499 8.74263 14.9548 8.75207 14.9651 8.75889L14.9728 8.74595L14.9729 8.74596L14.9651 8.7589C14.892 8.71066 14.8199 8.66471 14.7953 8.65178C14.7627 8.63513 14.7629 8.60572 14.7886 8.56481C14.7986 8.54898 14.8122 8.53123 14.8322 8.50747L14.8627 8.47173L14.8879 8.4423C14.9396 8.38114 14.9706 8.33651 14.9882 8.29242L14.9887 8.29125C14.9915 8.28415 14.9941 8.27762 15.0002 8.27959ZM14.9728 8.74595L14.9497 8.73072C14.9494 8.71505 14.9574 8.69511 14.9724 8.67126C14.9915 8.64058 15.0182 8.60763 15.0691 8.54949L15.0756 8.54203C15.1696 8.43472 15.1982 8.39687 15.1975 8.37125L15.2071 8.36376C15.3246 8.40458 15.4344 8.46358 15.5769 8.55582L15.582 8.55919L15.582 8.55919L15.582 8.55919L15.582 8.5592L15.582 8.5592L15.5821 8.55922C15.6108 8.57819 15.7508 8.67059 15.7907 8.69511C15.8657 8.74122 15.9242 8.77013 15.9825 8.79473C15.9761 8.82023 15.9642 8.8481 15.9466 8.8806C15.9376 8.89713 15.9277 8.91403 15.9142 8.93607L15.9135 8.93722L15.9135 8.93723L15.9135 8.93724L15.9135 8.93724L15.9135 8.93725C15.8695 9.009 15.8608 9.02328 15.8544 9.03854C15.8528 9.04233 15.8513 9.04618 15.8495 9.05098L15.8493 9.05161C15.8374 9.08312 15.8418 9.09885 15.8661 9.1052C15.8928 9.11133 15.9372 9.12386 16.0114 9.14578L16.0171 9.14746L16.0676 9.16243L16.0823 9.16677C16.0857 9.1779 16.0945 9.18603 16.1092 9.19058L16.0636 9.17714L16.0131 9.16218L16.0075 9.1605C15.9336 9.13868 15.8893 9.12618 15.8628 9.12009C15.8283 9.11106 15.821 9.08511 15.8357 9.04599L15.8361 9.04499L15.8361 9.04498L15.8361 9.04497L15.8361 9.04496C15.8381 9.03983 15.8396 9.03575 15.8413 9.03173C15.8479 9.01605 15.8569 9.00137 15.9009 8.9295L15.902 8.9278C15.9153 8.90597 15.9251 8.88928 15.9339 8.87304C15.94 8.86179 15.9454 8.85114 15.9503 8.84142L15.9503 8.84142L15.9503 8.84142L15.9503 8.84141C15.9591 8.82399 15.9664 8.80959 15.9735 8.80017C15.9189 8.78445 15.8594 8.75503 15.7833 8.7083C15.743 8.68352 15.6015 8.5901 15.5739 8.57191L15.5739 8.57191L15.5693 8.56884C15.4312 8.4795 15.3243 8.42164 15.2113 8.38139C15.2063 8.41151 15.1753 8.45075 15.0863 8.55238L15.0798 8.55983C15.0295 8.61733 15.0031 8.64991 14.9845 8.67965C14.9623 8.7152 14.9588 8.73663 14.9728 8.74595ZM18.0857 8.69853C18.0962 8.60598 17.9885 8.54146 17.7882 8.50002C17.628 8.46688 17.4132 8.44994 17.1854 8.44802L17.1835 8.46307L18.0767 8.70503L18.0857 8.69853ZM18.0718 8.68792L18.0803 8.69022L18.0712 8.69672C18.0716 8.69376 18.0718 8.69083 18.0718 8.68792ZM17.2459 8.46419C17.4502 8.46838 17.6405 8.48504 17.7854 8.51502C17.9713 8.55349 18.0728 8.6116 18.0718 8.68792L17.2459 8.46419ZM17.2459 8.46419C17.2259 8.46378 17.2056 8.46348 17.1853 8.46331L17.1872 8.44827L17.2459 8.46419ZM17.103 8.40185C17.1126 8.32379 17.1259 8.24779 17.143 8.17408L17.1266 8.17127L17.0865 8.39977L17.103 8.40185ZM17.1029 8.40221L17.0864 8.40013C17.0961 8.32159 17.1095 8.24511 17.1267 8.1709L17.1431 8.1737L17.1029 8.40221Z" fill="black"/>
<path fill-rule="evenodd" clip-rule="evenodd" d="M17.4 7.63297C17.1693 8.16906 17.1126 8.79837 17.2818 9.1742L17.2727 9.18464L17.1649 9.14049C17.0811 8.94538 17.0556 8.68692 17.0924 8.4082L17.0556 8.40027C17.0253 8.39391 17.0015 8.38976 16.9784 8.38725C16.877 8.37623 16.819 8.40154 16.8108 8.48139C16.8128 8.4602 16.8151 8.43865 16.8178 8.41672C16.8467 8.37598 16.9025 8.36363 16.9799 8.37204C17.0035 8.37461 17.0277 8.37883 17.0584 8.38528C17.0668 8.38704 17.0931 8.39275 17.1011 8.40157C17.0703 8.68612 17.0956 8.94189 17.1741 9.13017L17.2613 9.16393C17.2637 9.16958 17.2662 9.17519 17.2687 9.18073L17.2778 9.17029L17.2613 9.16393C17.0991 8.78177 17.1578 8.15861 17.3867 7.62668C17.6079 7.11243 17.6763 6.65699 17.6561 6.16212C17.6898 6.16273 17.7157 6.15375 17.7686 6.12767L17.7711 6.12643C17.7856 6.11927 17.7924 6.11601 17.8007 6.11223C18.0308 6.00735 18.2397 6.02219 18.3837 6.12575C18.4838 6.19771 18.5307 6.30212 18.5031 6.37317C18.4906 6.38123 18.4796 6.39002 18.4643 6.40295L18.4734 6.41483C18.4871 6.40306 18.497 6.38894 18.5031 6.37317C18.5228 6.36039 18.5462 6.34945 18.596 6.32676L18.6057 6.32226C18.6861 6.28545 18.5746 6.04384 18.372 5.94278C18.372 5.94278 18.372 5.94278 18.372 5.94278C18.2804 5.89701 18.0961 5.88933 17.9647 5.91768L17.9576 5.90524C18.0546 5.78554 18.1227 5.74235 18.2623 5.72619C18.2641 5.77902 18.2514 5.84009 18.2301 5.89076L18.2202 5.88952L18.2204 5.88996L18.2258 5.9004C18.2273 5.8973 18.2286 5.89416 18.23 5.89097C18.23 5.8909 18.23 5.89083 18.2301 5.89076L18.2353 5.89142C18.2767 5.89641 18.3041 5.90088 18.3274 5.90959C18.342 5.91502 18.355 5.92211 18.3689 5.932C18.37 5.93003 18.3711 5.92804 18.3721 5.92602C18.4068 5.86091 18.4249 5.77328 18.4242 5.68018C18.4627 5.66928 18.5003 5.65789 18.5542 5.64108C18.7255 5.58756 18.7549 5.57882 18.8278 5.56196C18.9318 5.53793 19.0231 5.52789 19.1135 5.53301C19.2902 5.54304 19.4195 5.60986 19.4565 5.70029C19.4811 5.76054 19.4606 5.81976 19.4013 5.86493C19.3875 5.86957 19.3741 5.87408 19.3614 5.87834C19.3476 5.88297 19.3347 5.88729 19.3232 5.89115C19.4292 5.84847 19.4723 5.77761 19.4431 5.70632C19.4087 5.62224 19.2845 5.55802 19.1127 5.54828C19.0238 5.54324 18.9337 5.55314 18.8309 5.57689C18.7585 5.59364 18.7292 5.60235 18.5583 5.65573C18.5044 5.67258 18.4666 5.68401 18.4333 5.687C18.4393 5.77273 18.422 5.86037 18.3802 5.92993C18.5906 6.03608 18.7084 6.29196 18.6116 6.33623L18.6018 6.34079C18.5219 6.37719 18.5116 6.38263 18.4734 6.41486L18.4642 6.40298C18.5303 6.34635 18.4909 6.22137 18.3755 6.13836C18.2358 6.03788 18.0321 6.02341 17.8065 6.12626C17.7983 6.12996 17.7917 6.13318 17.7773 6.14027L17.7748 6.14151C17.7199 6.16855 17.6925 6.17807 17.6632 6.16931C17.6909 6.65844 17.6222 7.11633 17.4 7.63297ZM19.3273 5.90583C19.3563 5.89419 19.3811 5.88038 19.4013 5.86493C19.4759 5.8399 19.5606 5.81137 19.5912 5.80022C19.7057 5.75851 19.7795 5.7219 19.8362 5.67541C19.98 5.55764 19.9205 5.30537 19.6607 5.24967C19.3681 5.18686 19.1752 5.21096 18.7836 5.31977L18.7567 5.32725C18.4078 5.42402 18.2223 5.4482 17.9623 5.39931C17.7834 5.36569 17.6536 5.36666 17.5622 5.41185C17.4533 5.46563 17.4032 5.5827 17.4192 5.7789C17.4198 5.78699 17.4202 5.79219 17.4206 5.79739C17.4214 5.80678 17.4221 5.81618 17.424 5.8426L17.4242 5.84577C17.4256 5.86415 17.4267 5.87839 17.4285 5.89857C17.4285 6.04081 17.2589 6.11204 17.097 6.02083C17.0886 6.01034 17.0801 5.99909 17.0713 5.98703L17.0614 5.99795C17.0732 6.00649 17.0851 6.0141 17.097 6.02083C17.1448 6.08049 17.1875 6.11529 17.2322 6.13337C17.274 6.15034 17.3059 6.15284 17.3942 6.1511C17.4084 6.15082 17.4148 6.15071 17.416 6.158C17.4168 6.13622 17.4309 6.1267 17.4538 6.12784C17.4696 6.12862 17.487 6.13327 17.5197 6.14408L17.524 6.1455C17.5726 6.16166 17.5908 6.16581 17.6004 6.16083L17.6109 6.16743C17.6196 6.44492 17.5976 6.7074 17.5224 6.98972C17.4028 6.93411 17.328 6.93135 17.3023 7.00337C17.2918 7.03846 17.281 7.07265 17.2695 7.10659C17.256 7.11668 17.2456 7.13167 17.2384 7.15192L17.252 7.15727C17.252 7.15727 17.252 7.15727 17.252 7.15727C17.258 7.14038 17.2638 7.12352 17.2695 7.10659C17.3122 7.07486 17.3862 7.09149 17.4898 7.14534C17.4468 7.29263 17.3913 7.44257 17.3225 7.59542C17.2402 7.77786 17.176 7.97654 17.1271 8.17963C16.9701 8.1385 16.8662 8.14114 16.8512 8.21835C16.8368 8.28817 16.8256 8.35402 16.8178 8.41672C16.8063 8.433 16.799 8.45382 16.7964 8.47965C16.7962 8.48141 16.7961 8.48316 16.7959 8.48491L16.8104 8.48621C16.8105 8.48458 16.8107 8.48297 16.8108 8.48139C16.8107 8.48303 16.8106 8.48466 16.8104 8.4863L16.7959 8.485M17.5967 6.17786C17.5828 6.17995 17.5627 6.17442 17.5196 6.16008L17.5153 6.15866C17.4839 6.14827 17.4671 6.14381 17.4531 6.14311C17.4374 6.14233 17.431 6.14665 17.4234 6.16591L17.3945 6.16639C17.3042 6.16817 17.2711 6.16556 17.2269 6.14764C17.1716 6.12522 17.1198 6.07907 17.0597 5.99629L17.0697 5.98536C17.2324 6.10324 17.4139 6.0375 17.414 5.89927C17.4122 5.87972 17.4111 5.86541 17.4097 5.84696L17.4095 5.84378C17.4075 5.81738 17.4069 5.808 17.4061 5.79863C17.4057 5.79345 17.4053 5.78826 17.4046 5.7802C17.3882 5.57813 17.441 5.45481 17.556 5.39801C17.6509 5.35111 17.7832 5.35013 17.9648 5.38425C18.2222 5.43266 18.4059 5.40871 18.753 5.31247L18.7799 5.30499C19.1735 5.19562 19.3683 5.17128 19.6636 5.23469C19.9355 5.29297 19.9989 5.5616 19.8452 5.68747C19.7869 5.73521 19.7119 5.77245 19.596 5.81467C19.5595 5.82796 19.4469 5.86571 19.3655 5.89301C19.3517 5.89764 19.3388 5.90197 19.3273 5.90583C19.3127 5.91165 19.2972 5.91694 19.2805 5.92161L19.2764 5.90696C19.2845 5.90416 19.3013 5.8985 19.3232 5.89115C19.3088 5.89692 19.2934 5.90217 19.2768 5.90684L19.2809 5.92149C19.289 5.91871 19.3056 5.91311 19.3273 5.90583M17.9824 5.89861C18.0543 5.88557 18.1384 5.88237 18.2147 5.88941C18.2364 5.83988 18.2498 5.77902 18.2563 5.734C18.1349 5.75569 18.07 5.79411 17.9824 5.89861Z" fill="black"/>
</g>
</svg>
