<svg width="28" height="20" viewBox="0 0 28 20" fill="none" xmlns="http://www.w3.org/2000/svg">
<rect x="0.25" y="0.25" width="27.5" height="19.5" rx="1.75" fill="white" stroke="#F5F5F5" stroke-width="0.5"/>
<mask id="mask0_60_2979" style="mask-type:alpha" maskUnits="userSpaceOnUse" x="0" y="0" width="28" height="20">
<rect x="0.25" y="0.25" width="27.5" height="19.5" rx="1.75" fill="white" stroke="white" stroke-width="0.5"/>
</mask>
<g mask="url(#mask0_60_2979)">
<path fill-rule="evenodd" clip-rule="evenodd" d="M0 6.66667H28V0H0V6.66667Z" fill="#38BB56"/>
<path fill-rule="evenodd" clip-rule="evenodd" d="M0 20.0002H28V13.3335H0V20.0002Z" fill="#DE1B27"/>
<path fill-rule="evenodd" clip-rule="evenodd" d="M1.66683 5.3335C1.48273 5.3335 1.3335 5.48273 1.3335 5.66683V6.3335C1.3335 6.51759 1.48273 6.66683 1.66683 6.66683H2.3335C2.51759 6.66683 2.66683 6.51759 2.66683 6.3335V5.66683C2.66683 5.48273 2.51759 5.3335 2.3335 5.3335H1.66683ZM4.3335 5.3335C4.1494 5.3335 4.00016 5.48273 4.00016 5.66683V6.3335C4.00016 6.51759 4.1494 6.66683 4.3335 6.66683H5.00016C5.18426 6.66683 5.3335 6.51759 5.3335 6.3335V5.66683C5.3335 5.48273 5.18426 5.3335 5.00016 5.3335H4.3335ZM6.66683 5.66683C6.66683 5.48273 6.81607 5.3335 7.00016 5.3335H7.66683C7.85092 5.3335 8.00016 5.48273 8.00016 5.66683V6.3335C8.00016 6.51759 7.85092 6.66683 7.66683 6.66683H7.00016C6.81607 6.66683 6.66683 6.51759 6.66683 6.3335V5.66683ZM9.66683 5.3335C9.48273 5.3335 9.3335 5.48273 9.3335 5.66683V6.3335C9.3335 6.51759 9.48273 6.66683 9.66683 6.66683H10.3335C10.5176 6.66683 10.6668 6.51759 10.6668 6.3335V5.66683C10.6668 5.48273 10.5176 5.3335 10.3335 5.3335H9.66683ZM12.0002 5.66683C12.0002 5.48273 12.1494 5.3335 12.3335 5.3335H13.0002C13.1843 5.3335 13.3335 5.48273 13.3335 5.66683V6.3335C13.3335 6.51759 13.1843 6.66683 13.0002 6.66683H12.3335C12.1494 6.66683 12.0002 6.51759 12.0002 6.3335V5.66683ZM15.0002 5.3335C14.8161 5.3335 14.6668 5.48273 14.6668 5.66683V6.3335C14.6668 6.51759 14.8161 6.66683 15.0002 6.66683H15.6668C15.8509 6.66683 16.0002 6.51759 16.0002 6.3335V5.66683C16.0002 5.48273 15.8509 5.3335 15.6668 5.3335H15.0002ZM17.3335 5.66683C17.3335 5.48273 17.4827 5.3335 17.6668 5.3335H18.3335C18.5176 5.3335 18.6668 5.48273 18.6668 5.66683V6.3335C18.6668 6.51759 18.5176 6.66683 18.3335 6.66683H17.6668C17.4827 6.66683 17.3335 6.51759 17.3335 6.3335V5.66683ZM20.3335 5.3335C20.1494 5.3335 20.0002 5.48273 20.0002 5.66683V6.3335C20.0002 6.51759 20.1494 6.66683 20.3335 6.66683H21.0002C21.1843 6.66683 21.3335 6.51759 21.3335 6.3335V5.66683C21.3335 5.48273 21.1843 5.3335 21.0002 5.3335H20.3335ZM22.6668 5.66683C22.6668 5.48273 22.8161 5.3335 23.0002 5.3335H23.6668C23.8509 5.3335 24.0002 5.48273 24.0002 5.66683V6.3335C24.0002 6.51759 23.8509 6.66683 23.6668 6.66683H23.0002C22.8161 6.66683 22.6668 6.51759 22.6668 6.3335V5.66683ZM25.6668 5.3335C25.4827 5.3335 25.3335 5.48273 25.3335 5.66683V6.3335C25.3335 6.51759 25.4827 6.66683 25.6668 6.66683H26.3335C26.5176 6.66683 26.6668 6.51759 26.6668 6.3335V5.66683C26.6668 5.48273 26.5176 5.3335 26.3335 5.3335H25.6668ZM1.3335 13.6668C1.3335 13.4827 1.48273 13.3335 1.66683 13.3335H2.3335C2.51759 13.3335 2.66683 13.4827 2.66683 13.6668V14.3335C2.66683 14.5176 2.51759 14.6668 2.3335 14.6668H1.66683C1.48273 14.6668 1.3335 14.5176 1.3335 14.3335V13.6668ZM4.3335 13.3335C4.1494 13.3335 4.00016 13.4827 4.00016 13.6668V14.3335C4.00016 14.5176 4.1494 14.6668 4.3335 14.6668H5.00016C5.18426 14.6668 5.3335 14.5176 5.3335 14.3335V13.6668C5.3335 13.4827 5.18426 13.3335 5.00016 13.3335H4.3335ZM6.66683 13.6668C6.66683 13.4827 6.81607 13.3335 7.00016 13.3335H7.66683C7.85092 13.3335 8.00016 13.4827 8.00016 13.6668V14.3335C8.00016 14.5176 7.85092 14.6668 7.66683 14.6668H7.00016C6.81607 14.6668 6.66683 14.5176 6.66683 14.3335V13.6668ZM9.66683 13.3335C9.48273 13.3335 9.3335 13.4827 9.3335 13.6668V14.3335C9.3335 14.5176 9.48273 14.6668 9.66683 14.6668H10.3335C10.5176 14.6668 10.6668 14.5176 10.6668 14.3335V13.6668C10.6668 13.4827 10.5176 13.3335 10.3335 13.3335H9.66683ZM12.0002 13.6668C12.0002 13.4827 12.1494 13.3335 12.3335 13.3335H13.0002C13.1843 13.3335 13.3335 13.4827 13.3335 13.6668V14.3335C13.3335 14.5176 13.1843 14.6668 13.0002 14.6668H12.3335C12.1494 14.6668 12.0002 14.5176 12.0002 14.3335V13.6668ZM15.0002 13.3335C14.8161 13.3335 14.6668 13.4827 14.6668 13.6668V14.3335C14.6668 14.5176 14.8161 14.6668 15.0002 14.6668H15.6668C15.8509 14.6668 16.0002 14.5176 16.0002 14.3335V13.6668C16.0002 13.4827 15.8509 13.3335 15.6668 13.3335H15.0002ZM17.3335 13.6668C17.3335 13.4827 17.4827 13.3335 17.6668 13.3335H18.3335C18.5176 13.3335 18.6668 13.4827 18.6668 13.6668V14.3335C18.6668 14.5176 18.5176 14.6668 18.3335 14.6668H17.6668C17.4827 14.6668 17.3335 14.5176 17.3335 14.3335V13.6668ZM20.3335 13.3335C20.1494 13.3335 20.0002 13.4827 20.0002 13.6668V14.3335C20.0002 14.5176 20.1494 14.6668 20.3335 14.6668H21.0002C21.1843 14.6668 21.3335 14.5176 21.3335 14.3335V13.6668C21.3335 13.4827 21.1843 13.3335 21.0002 13.3335H20.3335ZM22.6668 13.6668C22.6668 13.4827 22.8161 13.3335 23.0002 13.3335H23.6668C23.8509 13.3335 24.0002 13.4827 24.0002 13.6668V14.3335C24.0002 14.5176 23.8509 14.6668 23.6668 14.6668H23.0002C22.8161 14.6668 22.6668 14.5176 22.6668 14.3335V13.6668ZM25.6668 13.3335C25.4827 13.3335 25.3335 13.4827 25.3335 13.6668V14.3335C25.3335 14.5176 25.4827 14.6668 25.6668 14.6668H26.3335C26.5176 14.6668 26.6668 14.5176 26.6668 14.3335V13.6668C26.6668 13.4827 26.5176 13.3335 26.3335 13.3335H25.6668Z" fill="white" fill-opacity="0.5"/>
<mask id="path-6-inside-1_60_2979" fill="white">
<path fill-rule="evenodd" clip-rule="evenodd" d="M12.6535 8.521C12.252 8.88679 12 9.41389 12 9.99985C12 11.1044 12.8954 11.9999 14 11.9999V11.9999C15.1046 11.9999 16 11.1044 16 9.99985C16 9.42495 15.7574 8.90671 15.3691 8.54188"/>
</mask>
<path d="M12.2045 8.02818C11.6702 8.51498 11.3333 9.21855 11.3333 9.99985H12.6667C12.6667 9.60924 12.8338 9.2586 13.1025 9.01382L12.2045 8.02818ZM11.3333 9.99985C11.3333 11.4726 12.5272 12.6665 14 12.6665V11.3332C13.2636 11.3332 12.6667 10.7362 12.6667 9.99985H11.3333ZM14 12.6665C15.4728 12.6665 16.6667 11.4726 16.6667 9.99985H15.3333C15.3333 10.7362 14.7364 11.3332 14 11.3332V12.6665ZM16.6667 9.99985C16.6667 9.23336 16.3424 8.54155 15.8255 8.05598L14.9126 9.02778C15.1724 9.27186 15.3333 9.61654 15.3333 9.99985H16.6667Z" fill="#D80915" mask="url(#path-6-inside-1_60_2979)"/>
<rect x="13.3335" y="9.3335" width="1.33333" height="2.66667" rx="0.666667" fill="#D80915"/>
</g>
</svg>
