<svg width="28" height="20" viewBox="0 0 28 20" fill="none" xmlns="http://www.w3.org/2000/svg">
<rect x="0.25" y="0.25" width="27.5" height="19.5" rx="1.75" fill="white" stroke="#F5F5F5" stroke-width="0.5"/>
<mask id="mask0_60_3012" style="mask-type:alpha" maskUnits="userSpaceOnUse" x="0" y="0" width="28" height="20">
<rect x="0.25" y="0.25" width="27.5" height="19.5" rx="1.75" fill="white" stroke="white" stroke-width="0.5"/>
</mask>
<g mask="url(#mask0_60_3012)">
<path fill-rule="evenodd" clip-rule="evenodd" d="M0 6.66667H28V0H0V6.66667Z" fill="#DF1E35"/>
<path fill-rule="evenodd" clip-rule="evenodd" d="M0 20.0002H28V13.3335H0V20.0002Z" fill="#262626"/>
<path fill-rule="evenodd" clip-rule="evenodd" d="M18.6665 8.53934C18.6665 8.29155 18.9273 8.13039 19.1489 8.2412L19.8156 8.57454C19.9285 8.631 19.9998 8.74642 19.9998 8.87268V11.6667C19.9998 11.8508 19.8506 12 19.6665 12H18.9998C18.8157 12 18.6665 11.8508 18.6665 11.6667V8.53934Z" fill="#0F7A40"/>
<path fill-rule="evenodd" clip-rule="evenodd" d="M10.6665 8.53934C10.6665 8.29155 10.9273 8.13039 11.1489 8.2412L11.8156 8.57454C11.9285 8.631 11.9998 8.74642 11.9998 8.87268V11.6667C11.9998 11.8508 11.8506 12 11.6665 12H10.9998C10.8157 12 10.6665 11.8508 10.6665 11.6667V8.53934Z" fill="#0F7A40"/>
<path fill-rule="evenodd" clip-rule="evenodd" d="M16 8.87268C16 8.74642 16.0713 8.631 16.1843 8.57454L16.8509 8.2412C17.0726 8.13039 17.3333 8.29155 17.3333 8.53934V11.6667C17.3333 11.8508 17.1841 12 17 12H16.3333C16.1492 12 16 11.8508 16 11.6667V8.87268Z" fill="#0F7A40"/>
<path fill-rule="evenodd" clip-rule="evenodd" d="M13.3335 10.2061C13.3335 10.0799 13.4048 9.96443 13.5178 9.90797L14.1844 9.57463C14.4061 9.46382 14.6668 9.62498 14.6668 9.87277V10.7265H16.6668V12.0001H14.6668H13.6668C13.4827 12.0001 13.3335 11.8509 13.3335 11.6668V10.2061Z" fill="#0F7A40"/>
<path fill-rule="evenodd" clip-rule="evenodd" d="M8 10.2061C8 10.0799 8.07133 9.96443 8.18426 9.90797L8.85093 9.57463C9.07256 9.46382 9.33333 9.62498 9.33333 9.87277V10.7265H11.3333V12.0001H9.33333H8.33333C8.14924 12.0001 8 11.8509 8 11.6668V10.2061Z" fill="#0F7A40"/>
</g>
</svg>
