<svg width="28" height="20" viewBox="0 0 28 20" fill="none" xmlns="http://www.w3.org/2000/svg">
<rect x="0.25" y="0.25" width="27.5" height="19.5" rx="1.75" fill="white" stroke="#F5F5F5" stroke-width="0.5"/>
<mask id="mask0_60_3037" style="mask-type:alpha" maskUnits="userSpaceOnUse" x="0" y="0" width="28" height="20">
<rect x="0.25" y="0.25" width="27.5" height="19.5" rx="1.75" fill="white" stroke="white" stroke-width="0.5"/>
</mask>
<g mask="url(#mask0_60_3037)">
<path fill-rule="evenodd" clip-rule="evenodd" d="M0 20.0002H28V13.3335H0V20.0002Z" fill="#199E56"/>
<path fill-rule="evenodd" clip-rule="evenodd" d="M0 6.66667H28V0H0V6.66667Z" fill="#262626"/>
<path fill-rule="evenodd" clip-rule="evenodd" d="M0 0L13.3333 10L0 20V0Z" fill="#E6223A"/>
<path fill-rule="evenodd" clip-rule="evenodd" d="M4.6665 11L3.79874 11.8019L3.88467 10.6235L2.71665 10.445L3.69158 9.77748L3.10284 8.75302L4.23262 9.09903L4.6665 8L5.10039 9.09903L6.23017 8.75302L5.64143 9.77748L6.61636 10.445L5.44834 10.6235L5.53427 11.8019L4.6665 11Z" fill="white"/>
</g>
</svg>
