<svg width="28" height="20" viewBox="0 0 28 20" fill="none" xmlns="http://www.w3.org/2000/svg">
<rect width="28" height="20" rx="2" fill="white"/>
<mask id="mask0_60_3105" style="mask-type:alpha" maskUnits="userSpaceOnUse" x="0" y="0" width="28" height="20">
<rect width="28" height="20" rx="2" fill="white"/>
</mask>
<g mask="url(#mask0_60_3105)">
<rect width="28" height="20" fill="#F22A46"/>
<path fill-rule="evenodd" clip-rule="evenodd" d="M13.9998 13.3332C15.8408 13.3332 17.3332 11.8408 17.3332 9.99984C17.3332 8.15889 15.8408 6.6665 13.9998 6.6665C12.1589 6.6665 10.6665 8.15889 10.6665 9.99984C10.6665 11.8408 12.1589 13.3332 13.9998 13.3332Z" fill="#FFF04D"/>
<path fill-rule="evenodd" clip-rule="evenodd" d="M12.368 17.1495L13.9998 14.7137L15.6317 17.1495L16.045 14.2469L18.5721 15.7335L17.6851 12.9389L20.6069 13.1819L18.5953 11.0489L21.3332 10.0001L18.5953 8.95118L20.6069 6.81824L17.6851 7.06117L18.5721 4.26663L16.045 5.75324L15.6317 2.85059L13.9998 5.28644L12.368 2.85059L11.9547 5.75324L9.42758 4.26663L10.3146 7.06117L7.39273 6.81824L9.4044 8.95118L6.6665 10.0001L9.4044 11.0489L7.39273 13.1819L10.3146 12.9389L9.42758 15.7335L11.9547 14.2469L12.368 17.1495ZM18.6665 10.0001C18.6665 12.5774 16.5772 14.6667 13.9998 14.6667C11.4225 14.6667 9.33317 12.5774 9.33317 10.0001C9.33317 7.42273 11.4225 5.33339 13.9998 5.33339C16.5772 5.33339 18.6665 7.42273 18.6665 10.0001Z" fill="#FFF04D"/>
</g>
</svg>
