<svg width="28" height="20" viewBox="0 0 28 20" fill="none" xmlns="http://www.w3.org/2000/svg">
<rect x="0.25" y="0.25" width="27.5" height="19.5" rx="1.75" fill="white" stroke="#F5F5F5" stroke-width="0.5"/>
<mask id="mask0_60_3113" style="mask-type:alpha" maskUnits="userSpaceOnUse" x="0" y="0" width="28" height="20">
<rect x="0.25" y="0.25" width="27.5" height="19.5" rx="1.75" fill="white" stroke="white" stroke-width="0.5"/>
</mask>
<g mask="url(#mask0_60_3113)">
<path fill-rule="evenodd" clip-rule="evenodd" d="M14.0002 14.6668C16.5775 14.6668 18.6668 12.5775 18.6668 10.0002C18.6668 7.42283 16.5775 5.3335 14.0002 5.3335C11.4228 5.3335 9.3335 7.42283 9.3335 10.0002C9.3335 12.5775 11.4228 14.6668 14.0002 14.6668Z" fill="#E01B41"/>
<mask id="mask1_60_3113" style="mask-type:alpha" maskUnits="userSpaceOnUse" x="9" y="5" width="10" height="10">
<path fill-rule="evenodd" clip-rule="evenodd" d="M14.0002 14.6668C16.5775 14.6668 18.6668 12.5775 18.6668 10.0002C18.6668 7.42283 16.5775 5.3335 14.0002 5.3335C11.4228 5.3335 9.3335 7.42283 9.3335 10.0002C9.3335 12.5775 11.4228 14.6668 14.0002 14.6668Z" fill="white"/>
</mask>
<g mask="url(#mask1_60_3113)">
<path fill-rule="evenodd" clip-rule="evenodd" d="M9.33332 10.667C10.6666 11.917 12.6666 12.667 14 10.667C15.3333 8.66699 18 8.66699 18.6666 10.667C19.3333 12.667 18.6666 14.667 18.6666 14.667H9.33332C9.33332 14.667 7.99998 9.41699 9.33332 10.667Z" fill="#0E4B9C"/>
</g>
<path opacity="0.75" fill-rule="evenodd" clip-rule="evenodd" d="M6.17329 3.55686C6.26534 3.39743 6.46921 3.3428 6.62864 3.43485L7.20599 3.76818C7.36542 3.86023 7.42004 4.06409 7.328 4.22353L5.66133 7.11028C5.56928 7.26971 5.36542 7.32433 5.20599 7.23229L4.62864 6.89895C4.46921 6.8069 4.41458 6.60304 4.50663 6.44361L6.17329 3.55686ZM20.7944 3.76818C20.635 3.86023 20.5804 4.06409 20.6724 4.22353L22.3391 7.11028C22.4311 7.26971 22.635 7.32433 22.7944 7.23229L23.3718 6.89895C23.5312 6.8069 23.5858 6.60304 23.4938 6.44361L21.8271 3.55686C21.7351 3.39743 21.5312 3.3428 21.3718 3.43485L20.7944 3.76818ZM19.0624 4.76818C18.903 4.86023 18.8483 5.06409 18.9404 5.22353L20.6071 8.11028C20.6991 8.26971 20.903 8.32433 21.0624 8.23229L21.6397 7.89895C21.7992 7.8069 21.8538 7.60304 21.7618 7.44361L20.0951 4.55686C20.003 4.39743 19.7992 4.3428 19.6397 4.43485L19.0624 4.76818ZM4.50663 13.5569C4.41458 13.3974 4.46921 13.1936 4.62864 13.1015L5.20599 12.7682C5.36542 12.6761 5.56928 12.7308 5.66133 12.8902L7.328 15.7769C7.42004 15.9364 7.36542 16.1402 7.20599 16.2323L6.62864 16.5656C6.46921 16.6577 6.26534 16.603 6.17329 16.4436L4.50663 13.5569ZM6.36069 12.1015C6.20126 12.1936 6.14663 12.3974 6.23868 12.5569L7.90535 15.4436C7.99739 15.603 8.20126 15.6577 8.36069 15.5656L8.93804 15.2323C9.09747 15.1402 9.15209 14.9364 9.06005 14.7769L7.39338 11.8902C7.30133 11.7308 7.09747 11.6761 6.93804 11.7682L6.36069 12.1015ZM20.6071 11.8902C20.6991 11.7308 20.903 11.6761 21.0624 11.7682L21.6397 12.1015C21.7992 12.1936 21.8538 12.3974 21.7618 12.5569L20.0951 15.4436C20.003 15.603 19.7992 15.6577 19.6397 15.5656L19.0624 15.2323C18.903 15.1402 18.8483 14.9364 18.9404 14.7769L20.6071 11.8902ZM22.7944 12.7682C22.635 12.6761 22.4311 12.7308 22.3391 12.8902L20.6724 15.7769C20.5804 15.9364 20.635 16.1402 20.7944 16.2323L21.3718 16.5656C21.5312 16.6577 21.7351 16.603 21.8271 16.4436L23.4938 13.5569C23.5858 13.3974 23.5312 13.1936 23.3718 13.1015L22.7944 12.7682ZM8.36069 4.43485C8.20126 4.3428 7.99739 4.39743 7.90535 4.55686L6.23868 7.44361C6.14663 7.60304 6.20126 7.8069 6.36069 7.89895L6.93804 8.23229C7.09747 8.32433 7.30133 8.26971 7.39338 8.11028L9.06005 5.22353C9.15209 5.06409 9.09747 4.86023 8.93804 4.76818L8.36069 4.43485Z" fill="#262626"/>
</g>
</svg>
