<svg width="28" height="20" viewBox="0 0 28 20" fill="none" xmlns="http://www.w3.org/2000/svg">
<rect width="28" height="20" rx="2" fill="white"/>
<mask id="mask0_60_3129" style="mask-type:alpha" maskUnits="userSpaceOnUse" x="0" y="0" width="28" height="20">
<rect width="28" height="20" rx="2" fill="white"/>
</mask>
<g mask="url(#mask0_60_3129)">
<rect width="28" height="20" fill="#128C4B"/>
<path fill-rule="evenodd" clip-rule="evenodd" d="M6.6665 12.0002H17.3332V11.0788C17.3332 10.5833 17.8547 10.2609 18.298 10.4826L18.6665 10.6668V12.0002H20.6665C21.0347 12.0002 21.3332 12.2986 21.3332 12.6668V13.3335C21.3332 14.0699 20.7362 14.6668 19.9998 14.6668H17.9998C17.6316 14.6668 17.3332 14.3683 17.3332 14.0002V13.3335H8.27598C8.09917 13.3335 7.9296 13.2632 7.80458 13.1382L6.6665 12.0002Z" fill="white"/>
<path fill-rule="evenodd" clip-rule="evenodd" d="M6.6665 8.13823C6.6665 8.04983 6.70162 7.96504 6.76413 7.90253L7.09747 7.5692C7.22764 7.43902 7.22764 7.22797 7.09747 7.09779L6.76414 6.76446C6.70162 6.70195 6.6665 6.61716 6.6665 6.52876V5.66683C6.6665 5.48273 6.81574 5.3335 6.99984 5.3335H7.74519C7.88583 5.3335 7.99984 5.4475 7.99984 5.58814V5.58814C7.99984 5.85685 8.36207 5.94236 8.48224 5.70202L8.58162 5.50326C8.63364 5.39922 8.73998 5.3335 8.8563 5.3335H10.3332C10.5173 5.3335 10.6665 5.48273 10.6665 5.66683V5.66683C10.6665 5.85092 10.5173 6.00016 10.3332 6.00016H9.6665C9.48241 6.00016 9.33317 6.1494 9.33317 6.3335V6.3335C9.33317 6.51759 9.48241 6.66683 9.6665 6.66683H10.3332C10.5173 6.66683 10.6665 6.81607 10.6665 7.00016V9.00016C10.6665 9.18426 10.5173 9.3335 10.3332 9.3335H9.6665C9.48241 9.3335 9.33317 9.18426 9.33317 9.00016V8.3335C9.33317 8.1494 9.48241 8.00016 9.6665 8.00016V8.00016C9.8506 8.00016 9.99984 7.85092 9.99984 7.66683V7.66683C9.99984 7.48273 9.8506 7.3335 9.6665 7.3335H8.99984C8.81574 7.3335 8.6665 7.48273 8.6665 7.66683V9.00016C8.6665 9.18426 8.51727 9.3335 8.33317 9.3335V9.3335C8.14908 9.3335 7.99984 9.18426 7.99984 9.00016V8.3335C7.99984 8.1494 7.8506 8.00016 7.6665 8.00016V8.00016C7.48241 8.00016 7.33317 8.1494 7.33317 8.3335V9.00016C7.33317 9.18426 7.18393 9.3335 6.99984 9.3335V9.3335C6.81574 9.3335 6.6665 9.18426 6.6665 9.00016V8.13823Z" fill="white"/>
<path fill-rule="evenodd" clip-rule="evenodd" d="M17.3335 8.13823C17.3335 8.04983 17.3686 7.96504 17.4311 7.90253L17.7645 7.5692C17.8946 7.43902 17.8946 7.22797 17.7645 7.09779L17.4311 6.76446C17.3686 6.70195 17.3335 6.61716 17.3335 6.52876V5.66683C17.3335 5.48273 17.4827 5.3335 17.6668 5.3335H18.4122C18.5528 5.3335 18.6668 5.4475 18.6668 5.58814V5.58814C18.6668 5.85685 19.0291 5.94236 19.1492 5.70202L19.2486 5.50326C19.3006 5.39922 19.407 5.3335 19.5233 5.3335H21.0002C21.1843 5.3335 21.3335 5.48273 21.3335 5.66683V5.66683C21.3335 5.85092 21.1843 6.00016 21.0002 6.00016H20.3335C20.1494 6.00016 20.0002 6.1494 20.0002 6.3335V6.3335C20.0002 6.51759 20.1494 6.66683 20.3335 6.66683H21.0002C21.1843 6.66683 21.3335 6.81607 21.3335 7.00016V9.00016C21.3335 9.18426 21.1843 9.3335 21.0002 9.3335H20.3335C20.1494 9.3335 20.0002 9.18426 20.0002 9.00016V8.3335C20.0002 8.1494 20.1494 8.00016 20.3335 8.00016V8.00016C20.5176 8.00016 20.6668 7.85092 20.6668 7.66683V7.66683C20.6668 7.48273 20.5176 7.3335 20.3335 7.3335H19.6668C19.4827 7.3335 19.3335 7.48273 19.3335 7.66683V9.00016C19.3335 9.18426 19.1843 9.3335 19.0002 9.3335V9.3335C18.8161 9.3335 18.6668 9.18426 18.6668 9.00016V8.3335C18.6668 8.1494 18.5176 8.00016 18.3335 8.00016V8.00016C18.1494 8.00016 18.0002 8.1494 18.0002 8.3335V9.00016C18.0002 9.18426 17.8509 9.3335 17.6668 9.3335V9.3335C17.4827 9.3335 17.3335 9.18426 17.3335 9.00016V8.13823Z" fill="white"/>
<path fill-rule="evenodd" clip-rule="evenodd" d="M16 6.33037C16 6.51619 15.8958 6.771 15.7593 6.90751L15.574 7.09281C15.4411 7.22574 15.4375 7.43766 15.574 7.57418L15.7593 7.75948C15.8922 7.89241 16 8.14285 16 8.33662V8.99704C16 9.18286 15.8573 9.3335 15.6635 9.3335H15.0031C14.8173 9.3335 14.6667 9.19081 14.6667 8.99704V8.33662C14.6667 8.1508 14.6051 8.12321 14.512 8.30941L14.1546 9.02425C14.0692 9.19504 13.8431 9.3335 13.6697 9.3335H12.3303C12.1479 9.3335 12 9.17887 12 9.00016V9.00016C12 8.81607 12.1427 8.66683 12.3365 8.66683H12.9969C13.1827 8.66683 13.3333 8.51221 13.3333 8.3335V8.3335C13.3333 8.1494 13.1906 8.00016 12.9969 8.00016H12.3365C12.1506 8.00016 12 7.85679 12 7.67318V5.66048C12 5.47989 12.1427 5.3335 12.3365 5.3335H12.9969C13.1827 5.3335 13.3333 5.47619 13.3333 5.66995V6.33037C13.3333 6.51619 13.1787 6.66683 13 6.66683V6.66683C12.8159 6.66683 12.6667 6.82145 12.6667 7.00016V7.00016C12.6667 7.18426 12.8094 7.3335 13.0031 7.3335H13.6635C13.8494 7.3335 14 7.17656 14 7.00324V5.66376C14 5.48136 14.1546 5.3335 14.3333 5.3335V5.3335C14.5174 5.3335 14.6667 5.47619 14.6667 5.66995V6.33037C14.6667 6.51619 14.8213 6.66683 15 6.66683V6.66683C15.1841 6.66683 15.3333 6.52414 15.3333 6.33037V5.66995C15.3333 5.48413 15.488 5.3335 15.6667 5.3335V5.3335C15.8508 5.3335 16 5.47619 16 5.66995V6.33037V6.33037Z" fill="white"/>
</g>
</svg>
