<svg width="28" height="20" viewBox="0 0 28 20" fill="none" xmlns="http://www.w3.org/2000/svg">
<rect x="0.25" y="0.25" width="27.5" height="19.5" rx="1.75" fill="white" stroke="#F5F5F5" stroke-width="0.5"/>
<mask id="mask0_60_3217" style="mask-type:alpha" maskUnits="userSpaceOnUse" x="0" y="0" width="28" height="20">
<rect x="0.25" y="0.25" width="27.5" height="19.5" rx="1.75" fill="white" stroke="white" stroke-width="0.5"/>
</mask>
<g mask="url(#mask0_60_3217)">
<path fill-rule="evenodd" clip-rule="evenodd" d="M0 6.66667H28V0H0V6.66667Z" fill="#0C33B8"/>
<path fill-rule="evenodd" clip-rule="evenodd" d="M0 20.0002H28V13.3335H0V20.0002Z" fill="#1DB158"/>
<path fill-rule="evenodd" clip-rule="evenodd" d="M13.3331 9.99992L13.3673 9.89729C13.5699 9.28949 14.4296 9.28949 14.6322 9.89729L14.6664 9.99992L15.8482 11.7726C15.9363 11.9048 15.917 12.0791 15.7851 12.1677C15.4914 12.3652 14.8963 12.6666 13.9998 12.6666C13.1033 12.6666 12.5082 12.3652 12.2144 12.1677C12.0826 12.0791 12.0632 11.9048 12.1514 11.7726L13.3331 9.99992Z" fill="#262626"/>
<path d="M14.9998 8.66683C14.9998 9.21911 14.5521 9.66683 13.9998 9.66683C13.4476 9.66683 12.9998 9.21911 12.9998 8.66683C12.9998 8.11454 13.4476 7.66683 13.9998 7.66683C14.5521 7.66683 14.9998 8.11454 14.9998 8.66683Z" stroke="#262626" stroke-width="0.666667"/>
</g>
</svg>
