<svg width="28" height="20" viewBox="0 0 28 20" fill="none" xmlns="http://www.w3.org/2000/svg">
<rect x="0.25" y="0.25" width="27.5" height="19.5" rx="1.75" fill="white" stroke="#F5F5F5" stroke-width="0.5"/>
<mask id="mask0_60_3375" style="mask-type:alpha" maskUnits="userSpaceOnUse" x="0" y="0" width="28" height="20">
<rect x="0.25" y="0.25" width="27.5" height="19.5" rx="1.75" fill="white" stroke="white" stroke-width="0.5"/>
</mask>
<g mask="url(#mask0_60_3375)">
<path fill-rule="evenodd" clip-rule="evenodd" d="M14.6665 20H27.9998V0H14.6665V20Z" fill="#DE233C"/>
<mask id="path-4-outside-1_60_3375" maskUnits="userSpaceOnUse" x="1.6665" y="1.6665" width="6" height="6" fill="black">
<rect fill="white" x="1.6665" y="1.6665" width="6" height="6"/>
<path fill-rule="evenodd" clip-rule="evenodd" d="M5.33317 2.6665H3.99984V3.99984H2.6665V5.33317H3.99984V6.6665H5.33317V5.33317H6.6665V3.99984H5.33317V2.6665Z"/>
</mask>
<path fill-rule="evenodd" clip-rule="evenodd" d="M5.33317 2.6665H3.99984V3.99984H2.6665V5.33317H3.99984V6.6665H5.33317V5.33317H6.6665V3.99984H5.33317V2.6665Z" fill="#CCCCCD"/>
<path d="M3.99984 2.6665V1.99984H3.33317V2.6665H3.99984ZM5.33317 2.6665H5.99984V1.99984H5.33317V2.6665ZM3.99984 3.99984V4.6665H4.6665V3.99984H3.99984ZM2.6665 3.99984V3.33317H1.99984V3.99984H2.6665ZM2.6665 5.33317H1.99984V5.99984H2.6665V5.33317ZM3.99984 5.33317H4.6665V4.6665H3.99984V5.33317ZM3.99984 6.6665H3.33317V7.33317H3.99984V6.6665ZM5.33317 6.6665V7.33317H5.99984V6.6665H5.33317ZM5.33317 5.33317V4.6665H4.6665V5.33317H5.33317ZM6.6665 5.33317V5.99984H7.33317V5.33317H6.6665ZM6.6665 3.99984H7.33317V3.33317H6.6665V3.99984ZM5.33317 3.99984H4.6665V4.6665H5.33317V3.99984ZM3.99984 3.33317H5.33317V1.99984H3.99984V3.33317ZM4.6665 3.99984V2.6665H3.33317V3.99984H4.6665ZM2.6665 4.6665H3.99984V3.33317H2.6665V4.6665ZM3.33317 5.33317V3.99984H1.99984V5.33317H3.33317ZM3.99984 4.6665H2.6665V5.99984H3.99984V4.6665ZM4.6665 6.6665V5.33317H3.33317V6.6665H4.6665ZM5.33317 5.99984H3.99984V7.33317H5.33317V5.99984ZM4.6665 5.33317V6.6665H5.99984V5.33317H4.6665ZM6.6665 4.6665H5.33317V5.99984H6.6665V4.6665ZM5.99984 3.99984V5.33317H7.33317V3.99984H5.99984ZM5.33317 4.6665H6.6665V3.33317H5.33317V4.6665ZM4.6665 2.6665V3.99984H5.99984V2.6665H4.6665Z" fill="#7B716A" fill-opacity="0.66" mask="url(#path-4-outside-1_60_3375)"/>
<path fill-rule="evenodd" clip-rule="evenodd" d="M4.66667 5.33333C5.03486 5.33333 5.33333 5.03486 5.33333 4.66667C5.33333 4.29848 5.03486 4 4.66667 4C4.29848 4 4 4.29848 4 4.66667C4 5.03486 4.29848 5.33333 4.66667 5.33333Z" fill="#7B716A"/>
</g>
</svg>
