<svg width="28" height="20" viewBox="0 0 28 20" fill="none" xmlns="http://www.w3.org/2000/svg">
<rect width="28" height="20" rx="2" fill="white"/>
<mask id="mask0_60_3383" style="mask-type:alpha" maskUnits="userSpaceOnUse" x="0" y="0" width="28" height="20">
<rect width="28" height="20" rx="2" fill="white"/>
</mask>
<g mask="url(#mask0_60_3383)">
<rect width="28" height="20" fill="#E6BE53"/>
<path fill-rule="evenodd" clip-rule="evenodd" d="M1.3335 17.6668C1.3335 18.2191 1.78121 18.6668 2.3335 18.6668H25.6668C26.2191 18.6668 26.6668 18.2191 26.6668 17.6668V2.3335C26.6668 1.78121 26.2191 1.3335 25.6668 1.3335H2.3335C1.78121 1.3335 1.3335 1.78121 1.3335 2.3335V17.6668Z" fill="#E01826"/>
<path fill-rule="evenodd" clip-rule="evenodd" d="M13.0235 3.65912C12.5533 3.81584 12.4125 4.41255 12.7629 4.76298L13.1382 5.13831C13.2633 5.26333 13.4328 5.33357 13.6096 5.33357H14.3907C14.5675 5.33357 14.7371 5.26333 14.8621 5.1383L15.2374 4.76298C15.5878 4.41255 15.447 3.81584 14.9768 3.65912L14.211 3.40384C14.0741 3.35823 13.9262 3.35823 13.7893 3.40384L13.0235 3.65912ZM14.4716 6.86216C14.2112 7.12251 13.7891 7.12251 13.5288 6.86216L13.3335 6.6669L12.3399 5.67334C12.137 5.47043 11.827 5.42013 11.5704 5.54846L11.4941 5.58658C11.0871 5.79008 10.9991 6.33251 11.3209 6.65427L11.3335 6.6669L12.3271 7.66046C12.53 7.86337 12.5803 8.17335 12.4519 8.43001L12.0381 9.25765C12.0132 9.30757 12.0002 9.36263 12.0002 9.41845C12.0002 9.68574 11.7189 9.85959 11.4798 9.74005L11.1569 9.5786C10.9158 9.45805 10.8637 9.13674 11.0543 8.94614C11.2085 8.79192 11.2085 8.54188 11.0543 8.38766L10.7433 8.07673C10.6927 8.02606 10.6505 7.96756 10.6184 7.90347L10.0329 6.73236C10.0111 6.68885 9.99421 6.64309 9.98241 6.5959L9.6732 5.35906C9.53705 4.81447 8.82992 4.67167 8.49311 5.12075L7.46683 6.48912C7.38028 6.60452 7.3335 6.74488 7.3335 6.88912V9.17619C7.3335 9.27969 7.35759 9.38176 7.40388 9.47433L7.95178 10.5701C7.98383 10.6342 8.02599 10.6927 8.07666 10.7434L9.257 11.9237C9.30767 11.9744 9.36617 12.0166 9.43026 12.0486L10.6039 12.6354C10.6453 12.6561 10.6909 12.6669 10.7372 12.6669C11.0518 12.6669 11.1519 13.091 10.8705 13.2317L10.716 13.309C10.6834 13.3253 10.6537 13.3467 10.6279 13.3725L10.3335 13.6669C10.1494 13.851 9.85092 13.851 9.66683 13.6669C9.48273 13.4828 9.18426 13.4828 9.00016 13.6669L8.94607 13.721C8.77931 13.8878 8.73797 14.1425 8.84344 14.3534L9.14923 14.965C9.26216 15.1909 9.493 15.3336 9.74552 15.3336H10.5095C10.6129 15.3336 10.715 15.3095 10.8076 15.2632L11.8014 14.7663C11.9304 14.7018 12.035 14.5972 12.0995 14.4681L12.4018 13.8636C12.5322 13.6029 12.8797 13.5465 13.0859 13.7526C13.2299 13.8966 13.2522 14.1222 13.1393 14.2916L12.37 15.4455C12.1657 15.7519 12.2485 16.1658 12.5549 16.37L13.6304 17.087C13.8543 17.2363 14.146 17.2363 14.37 17.087L15.4455 16.37C15.7518 16.1658 15.8346 15.7519 15.6304 15.4455L14.8611 14.2916C14.7481 14.1222 14.7705 13.8966 14.9144 13.7526C15.1206 13.5465 15.4681 13.6029 15.5985 13.8636L15.9008 14.4681C15.9653 14.5972 16.0699 14.7018 16.1989 14.7663L17.1927 15.2632C17.2853 15.3095 17.3874 15.3336 17.4909 15.3336H18.2548C18.5073 15.3336 18.7382 15.1909 18.8511 14.965L19.1569 14.3534C19.2624 14.1425 19.221 13.8878 19.0543 13.721L19.0002 13.6669C18.8161 13.4828 18.5176 13.4828 18.3335 13.6669C18.1494 13.851 17.8509 13.851 17.6668 13.6669L17.3724 13.3725C17.3466 13.3467 17.3169 13.3253 17.2843 13.309L17.1298 13.2317C16.8484 13.091 16.9485 12.6669 17.2631 12.6669C17.3094 12.6669 17.355 12.6561 17.3964 12.6354L18.5701 12.0486C18.6342 12.0166 18.6927 11.9744 18.7433 11.9237L19.9237 10.7434C19.9743 10.6927 20.0165 10.6342 20.0485 10.5701L20.5964 9.47433C20.6427 9.38176 20.6668 9.27969 20.6668 9.17619V6.88912C20.6668 6.74488 20.62 6.60452 20.5335 6.48912L19.5072 5.12075C19.1704 4.67167 18.4633 4.81447 18.3271 5.35906L18.0179 6.5959C18.0061 6.64309 17.9892 6.68885 17.9674 6.73236L17.3819 7.90347C17.3498 7.96756 17.3077 8.02606 17.257 8.07673L16.9461 8.38766C16.7919 8.54188 16.7918 8.79192 16.9461 8.94614C17.1367 9.13674 17.0845 9.45805 16.8434 9.5786L16.5205 9.74005C16.2815 9.85959 16.0002 9.68574 16.0002 9.41845C16.0002 9.36263 15.9872 9.30757 15.9622 9.25765L15.5484 8.43001C15.4201 8.17335 15.4704 7.86337 15.6733 7.66046L16.6668 6.6669L16.6795 6.65427C17.0012 6.33251 16.9132 5.79008 16.5062 5.58658L16.4299 5.54846C16.1733 5.42013 15.8633 5.47043 15.6604 5.67334L14.6668 6.6669L14.4716 6.86216Z" fill="#E6BE53"/>
<path fill-rule="evenodd" clip-rule="evenodd" d="M12.6665 11.3335C12.6665 11.5789 13.0799 11.6606 13.1995 11.4463C13.4319 11.0297 13.7159 10.6668 13.9998 10.6668C14.2838 10.6668 14.5678 11.0297 14.8002 11.4463C14.9198 11.6606 15.3332 11.5789 15.3332 11.3335V11.3335C15.3332 10.2289 14.7362 9.3335 13.9998 9.3335C13.2635 9.3335 12.6665 10.2289 12.6665 11.3335V11.3335Z" fill="#215F90"/>
</g>
</svg>
