<svg width="28" height="20" viewBox="0 0 28 20" fill="none" xmlns="http://www.w3.org/2000/svg">
<rect x="0.25" y="0.25" width="27.5" height="19.5" rx="1.75" fill="white" stroke="#F5F5F5" stroke-width="0.5"/>
<path fill-rule="evenodd" clip-rule="evenodd" d="M0 2C0 0.895431 0.89543 -1.06478e-09 2 0L2.46482 4.56679e-10C2.59643 5.84276e-10 2.7251 0.0389587 2.83462 0.111966L15.0026 8.22393C16.1002 8.9557 15.5822 10.6667 14.263 10.6667H8L15.9961 17.6632C16.9226 18.474 16.3492 20 15.1181 20H2C0.895428 20 0 19.1046 0 18V2Z" fill="white"/>
<mask id="mask0_60_3484" style="mask-type:alpha" maskUnits="userSpaceOnUse" x="0" y="0" width="17" height="20">
<path fill-rule="evenodd" clip-rule="evenodd" d="M0 2C0 0.895431 0.89543 -1.06478e-09 2 0L2.46482 4.56679e-10C2.59643 5.84276e-10 2.7251 0.0389587 2.83462 0.111966L15.0026 8.22393C16.1002 8.9557 15.5822 10.6667 14.263 10.6667H8L15.9961 17.6632C16.9226 18.474 16.3492 20 15.1181 20H2C0.895428 20 0 19.1046 0 18V2Z" fill="white"/>
</mask>
<g mask="url(#mask0_60_3484)">
<path d="M15.1181 19.3333H0.666667V0.666667H2.46482L14.6328 8.77863C15.1816 9.14452 14.9226 10 14.263 10H8C7.72226 10 7.47362 10.1722 7.37593 10.4322C7.27824 10.6922 7.35198 10.9855 7.561 11.1684L15.5571 18.1649C16.0203 18.5703 15.7336 19.3333 15.1181 19.3333Z" fill="#EE1B44" stroke="#0543A8" stroke-width="1.33333" stroke-linejoin="round"/>
<path fill-rule="evenodd" clip-rule="evenodd" d="M6.85085 7.80054C7.23496 7.69528 7.58908 7.55131 7.90227 7.37592C7.59162 8.50429 6.55811 9.33311 5.33102 9.33311C4.10393 9.33311 3.07042 8.50429 2.75977 7.37592C3.07383 7.5518 3.42904 7.69608 3.81438 7.80142L4.3331 7.33311L3.48534 6.56774L4.62599 6.626L4.56773 5.48535L5.3331 6.33311L6.09847 5.48535L6.04021 6.626L7.18086 6.56774L6.3331 7.33311L6.85085 7.80054ZM4.31261 17.1301L5.3331 15.9998L6.35359 17.1301L6.27591 15.6093L7.79678 15.6869L6.66643 14.6664L7.79678 13.646L6.27591 13.7236L6.35359 12.2028L5.3331 13.3331L4.31261 12.2028L4.39029 13.7236L2.86942 13.646L3.99977 14.6664L2.86942 15.6869L4.39029 15.6093L4.31261 17.1301Z" fill="white"/>
</g>
</svg>
