<svg width="28" height="20" viewBox="0 0 28 20" fill="none" xmlns="http://www.w3.org/2000/svg">
<rect x="0.25" y="0.25" width="27.5" height="19.5" rx="1.75" fill="white" stroke="#F5F5F5" stroke-width="0.5"/>
<mask id="mask0_60_3515" style="mask-type:alpha" maskUnits="userSpaceOnUse" x="0" y="0" width="28" height="20">
<rect x="0.25" y="0.25" width="27.5" height="19.5" rx="1.75" fill="white" stroke="white" stroke-width="0.5"/>
</mask>
<g mask="url(#mask0_60_3515)">
<path fill-rule="evenodd" clip-rule="evenodd" d="M0 6.66667H28V0H0V6.66667Z" fill="#E33F39"/>
<path fill-rule="evenodd" clip-rule="evenodd" d="M0 20.0002H28V13.3335H0V20.0002Z" fill="#124BBA"/>
<path d="M14 12.3333C15.2887 12.3333 16.3333 11.2887 16.3333 10C16.3333 8.71134 15.2887 7.66667 14 7.66667C12.7113 7.66667 11.6667 8.71134 11.6667 10C11.6667 11.2887 12.7113 12.3333 14 12.3333Z" stroke="#398153" stroke-width="0.666667"/>
<path fill-rule="evenodd" clip-rule="evenodd" d="M14.0002 10.6668C14.3684 10.6668 14.6668 10.3684 14.6668 10.0002C14.6668 9.63197 14.3684 9.3335 14.0002 9.3335C13.632 9.3335 13.3335 9.63197 13.3335 10.0002C13.3335 10.3684 13.632 10.6668 14.0002 10.6668Z" fill="#E5CF58"/>
</g>
</svg>
