<svg width="28" height="20" viewBox="0 0 28 20" fill="none" xmlns="http://www.w3.org/2000/svg">
<rect x="0.25" y="0.25" width="27.5" height="19.5" rx="1.75" fill="white" stroke="#F5F5F5" stroke-width="0.5"/>
<mask id="mask0_60_3527" style="mask-type:alpha" maskUnits="userSpaceOnUse" x="0" y="0" width="28" height="20">
<rect x="0.25" y="0.25" width="27.5" height="19.5" rx="1.75" fill="white" stroke="white" stroke-width="0.5"/>
</mask>
<g mask="url(#mask0_60_3527)">
<path fill-rule="evenodd" clip-rule="evenodd" d="M0 20.0002H28V9.3335H12.4444L13.3333 10.0002L0 20.0002Z" fill="#DD1C34"/>
<path fill-rule="evenodd" clip-rule="evenodd" d="M28 9.33333H12.4444L0 0H28V9.33333Z" fill="#0D4BC3"/>
<path fill-rule="evenodd" clip-rule="evenodd" d="M2.00016 3.99984C2.36835 3.99984 2.66683 3.70136 2.66683 3.33317C2.66683 2.96498 2.36835 2.6665 2.00016 2.6665C1.63197 2.6665 1.3335 2.96498 1.3335 3.33317C1.3335 3.70136 1.63197 3.99984 2.00016 3.99984ZM10.0002 10.6665C10.3684 10.6665 10.6668 10.368 10.6668 9.99984C10.6668 9.63165 10.3684 9.33317 10.0002 9.33317C9.63197 9.33317 9.3335 9.63165 9.3335 9.99984C9.3335 10.368 9.63197 10.6665 10.0002 10.6665ZM2.66683 16.6665C2.66683 17.0347 2.36835 17.3332 2.00016 17.3332C1.63197 17.3332 1.3335 17.0347 1.3335 16.6665C1.3335 16.2983 1.63197 15.9998 2.00016 15.9998C2.36835 15.9998 2.66683 16.2983 2.66683 16.6665ZM4.53224 11.3265L3.39122 13.0794L3.82395 11.033C3.75431 10.9761 3.69054 10.9124 3.63366 10.8427L1.58723 11.2754L3.3402 10.1344C3.33577 10.0902 3.3335 10.0453 3.3335 9.99984C3.3335 9.95441 3.33577 9.90951 3.3402 9.86525L1.58723 8.72423L3.63366 9.15696C3.69054 9.08732 3.75431 9.02354 3.82395 8.96667L3.39122 6.92024L4.53224 8.67321C4.5765 8.66878 4.6214 8.6665 4.66683 8.6665C4.71226 8.6665 4.75716 8.66878 4.80142 8.67321L5.94244 6.92024L5.50971 8.96667C5.57934 9.02354 5.64312 9.08732 5.7 9.15696L7.74643 8.72423L5.99345 9.86525C5.99789 9.90951 6.00016 9.95441 6.00016 9.99984C6.00016 10.0453 5.99789 10.0902 5.99345 10.1344L7.74643 11.2754L5.7 10.8427C5.64312 10.9124 5.57934 10.9761 5.50971 11.033L5.94244 13.0794L4.80142 11.3265C4.75716 11.3309 4.71226 11.3332 4.66683 11.3332C4.6214 11.3332 4.5765 11.3309 4.53224 11.3265Z" fill="#FDD64D"/>
</g>
</svg>
