<svg width="28" height="20" viewBox="0 0 28 20" fill="none" xmlns="http://www.w3.org/2000/svg">
<rect width="28" height="20" rx="2" fill="white"/>
<mask id="mask0_60_3547" style="mask-type:alpha" maskUnits="userSpaceOnUse" x="0" y="0" width="28" height="20">
<rect width="28" height="20" rx="2" fill="white"/>
</mask>
<g mask="url(#mask0_60_3547)">
<rect width="28" height="20" fill="#262626"/>
<path fill-rule="evenodd" clip-rule="evenodd" d="M0 0H28V20L0 0Z" fill="#E8283F"/>
<path fill-rule="evenodd" clip-rule="evenodd" d="M6.66683 16.6665L5.72402 16.9426L6.00016 15.9998L5.72402 15.057L6.66683 15.3332L7.60964 15.057L7.3335 15.9998L7.60964 16.9426L6.66683 16.6665Z" fill="white"/>
<path fill-rule="evenodd" clip-rule="evenodd" d="M6.66683 8.6665L5.72402 8.94265L6.00016 7.99984L5.72402 7.05703L6.66683 7.33317L7.60964 7.05703L7.3335 7.99984L7.60964 8.94265L6.66683 8.6665Z" fill="white"/>
<path fill-rule="evenodd" clip-rule="evenodd" d="M3.33333 12L2.39052 12.2761L2.66667 11.3333L2.39052 10.3905L3.33333 10.6667L4.27614 10.3905L4 11.3333L4.27614 12.2761L3.33333 12Z" fill="white"/>
<path fill-rule="evenodd" clip-rule="evenodd" d="M9.33333 11.3335L8.39052 11.6096L8.66667 10.6668L8.39052 9.72402L9.33333 10.0002L10.2761 9.72402L10 10.6668L10.2761 11.6096L9.33333 11.3335Z" fill="white"/>
<path fill-rule="evenodd" clip-rule="evenodd" d="M18.861 9.26541C18.7014 9.16964 18.572 8.94404 18.572 8.76355L18.572 7.53483C18.572 7.35343 18.4415 7.24988 18.244 7.31571L17.4858 7.56845C17.3047 7.62883 17.0273 7.63428 16.8298 7.56845L16.0716 7.31571C15.8904 7.25533 15.8703 7.13034 16.0326 7.03297L17.8116 5.96558C17.9712 5.8698 18.0571 5.66165 17.9913 5.46416L17.7385 4.70596C17.6782 4.5248 17.7597 4.42146 17.9572 4.48729L18.7154 4.74002C18.8966 4.80041 19.1195 4.72263 19.2168 4.56034L20.2842 2.78135C20.38 2.62173 20.5011 2.62284 20.567 2.82034L20.8197 3.57854C20.8801 3.75969 20.8855 4.03706 20.8197 4.23455L20.567 4.99276C20.5066 5.17391 20.6056 5.32076 20.7861 5.32076H22.0148C22.1962 5.32076 22.4193 5.44748 22.5167 5.60978L23.5841 7.38877C23.6798 7.54839 23.6028 7.70871 23.4297 7.74333L21.7282 8.08364C21.5472 8.11984 21.3695 8.30384 21.3349 8.47692L20.9946 10.1785C20.9584 10.3595 20.8023 10.4302 20.64 10.3328L18.861 9.26541V9.26541Z" fill="#FFD84E"/>
</g>
</svg>
