<svg width="28" height="20" viewBox="0 0 28 20" fill="none" xmlns="http://www.w3.org/2000/svg">
<rect x="0.25" y="0.25" width="27.5" height="19.5" rx="1.75" fill="white" stroke="#F5F5F5" stroke-width="0.5"/>
<mask id="mask0_60_3569" style="mask-type:alpha" maskUnits="userSpaceOnUse" x="0" y="0" width="28" height="20">
<rect x="0.25" y="0.25" width="27.5" height="19.5" rx="1.75" fill="white" stroke="white" stroke-width="0.5"/>
</mask>
<g mask="url(#mask0_60_3569)">
<path fill-rule="evenodd" clip-rule="evenodd" d="M0 0H28V4H0V0ZM0 8H28V12H0V8ZM0 16V20H28V16H0Z" fill="#FA2222"/>
<path fill-rule="evenodd" clip-rule="evenodd" d="M0 0L13.3333 10L0 20V0Z" fill="#1D63F9"/>
<g filter="url(#filter0_d_60_3569)">
<path fill-rule="evenodd" clip-rule="evenodd" d="M4.66683 11.2739L2.70755 12.6966L3.45511 10.3935L1.49664 8.96978L3.91794 8.96909L4.66683 6.6665L5.41571 8.96909L7.83702 8.96978L5.87855 10.3935L6.62611 12.6966L4.66683 11.2739Z" fill="url(#paint0_linear_60_3569)"/>
</g>
</g>
<defs>
<filter id="filter0_d_60_3569" x="1.49658" y="6.6665" width="6.34033" height="7.03027" filterUnits="userSpaceOnUse" color-interpolation-filters="sRGB">
<feFlood flood-opacity="0" result="BackgroundImageFix"/>
<feColorMatrix in="SourceAlpha" type="matrix" values="0 0 0 0 0 0 0 0 0 0 0 0 0 0 0 0 0 0 127 0" result="hardAlpha"/>
<feOffset dy="1"/>
<feColorMatrix type="matrix" values="0 0 0 0 0 0 0 0 0 0 0 0 0 0 0 0 0 0 0.06 0"/>
<feBlend mode="normal" in2="BackgroundImageFix" result="effect1_dropShadow_60_3569"/>
<feBlend mode="normal" in="SourceGraphic" in2="effect1_dropShadow_60_3569" result="shape"/>
</filter>
<linearGradient id="paint0_linear_60_3569" x1="1.3335" y1="6.6665" x2="1.3335" y2="13.3332" gradientUnits="userSpaceOnUse">
<stop stop-color="white"/>
<stop offset="1" stop-color="#F0F0F0"/>
</linearGradient>
</defs>
</svg>
