<svg width="28" height="20" viewBox="0 0 28 20" fill="none" xmlns="http://www.w3.org/2000/svg">
<rect x="0.25" y="0.25" width="27.5" height="19.5" rx="1.75" fill="white" stroke="#F5F5F5" stroke-width="0.5"/>
<mask id="mask0_60_4148" style="mask-type:alpha" maskUnits="userSpaceOnUse" x="0" y="0" width="28" height="20">
<rect x="0.25" y="0.25" width="27.5" height="19.5" rx="1.75" fill="white" stroke="white" stroke-width="0.5"/>
</mask>
<g mask="url(#mask0_60_4148)">
<path fill-rule="evenodd" clip-rule="evenodd" d="M0 5.33333H28V0H0V5.33333Z" fill="#D82332"/>
<path fill-rule="evenodd" clip-rule="evenodd" d="M0 19.9998H28V14.6665H0V19.9998Z" fill="#D82332"/>
<path fill-rule="evenodd" clip-rule="evenodd" d="M13.0672 10.7524L12.7827 11.0177C13.0399 11.0899 13.3966 11.0059 13.5386 10.7524H13.0672" fill="#064A89"/>
<path fill-rule="evenodd" clip-rule="evenodd" d="M10.7725 10.933C10.9649 11.1255 11.2838 11.103 11.4763 10.9812C11.6689 10.8593 11.8103 10.8515 11.9303 10.8643C11.943 10.9729 11.9714 11.1122 12.0201 11.2498H10.8782C10.8498 11.1793 10.7945 11.0149 10.7725 10.933" fill="#064A89"/>
<path fill-rule="evenodd" clip-rule="evenodd" d="M10.9839 11.4474C11.208 11.3415 11.4371 11.4255 11.5363 11.5018C11.7193 11.643 12.0218 11.6047 12.1701 11.5246C12.2267 11.617 12.2955 11.7078 12.3785 11.7772H11.1567C11.1071 11.6971 10.9998 11.5002 10.9839 11.4474" fill="#064A89"/>
<path fill-rule="evenodd" clip-rule="evenodd" d="M16.2978 12.325C16.3514 12.2704 16.424 12.1807 16.4714 12.1166C16.3925 12.1069 16.3007 12.0498 16.2032 12.0011C16.0232 11.9112 15.8512 11.9112 15.6981 12.0171C15.4709 12.1742 15.1868 12.2127 14.9658 12.0556C14.7234 11.8831 14.4987 11.9209 14.3093 12.03C14.1199 12.1389 14 12.1454 13.8863 12.1454C13.7727 12.1454 13.6528 12.1389 13.4634 12.03C13.274 11.9209 13.0493 11.8831 12.8069 12.0556C12.5859 12.2127 12.3018 12.1742 12.0746 12.0171C11.9215 11.9112 11.7495 11.9112 11.5695 12.0011C11.4719 12.0498 11.3802 12.1069 11.3013 12.1166C11.3487 12.1807 11.4213 12.2704 11.4749 12.325H16.2978" fill="#064A89"/>
<path fill-rule="evenodd" clip-rule="evenodd" d="M15.7065 12.8612C15.757 12.8292 15.896 12.7234 15.9654 12.6688C15.8896 12.6849 15.7169 12.6286 15.6277 12.5822C15.3688 12.4474 15.1984 12.4603 15.0059 12.5629C14.8133 12.6656 14.5419 12.7201 14.3431 12.6111C14.1442 12.5021 14.0021 12.4731 13.898 12.4731C13.7938 12.4731 13.6517 12.5021 13.4529 12.6111C13.2541 12.7201 12.9826 12.6656 12.79 12.5629C12.5976 12.4603 12.4272 12.4474 12.1682 12.5822C12.079 12.6286 11.9063 12.6849 11.8306 12.6688C11.9 12.7234 12.0389 12.8292 12.0894 12.8612H15.7065" fill="#064A89"/>
<path fill-rule="evenodd" clip-rule="evenodd" d="M14.5682 11.7947C14.5146 11.7658 14.4518 11.6986 14.3946 11.6124C14.303 11.4745 14.1578 11.3975 13.9401 11.3975C13.7223 11.3975 13.5771 11.4745 13.4856 11.6124C13.4283 11.6986 13.3656 11.7658 13.312 11.7947H14.5682" fill="#064A89"/>
<path fill-rule="evenodd" clip-rule="evenodd" d="M14.2101 11.2998C14.188 11.2613 14.1407 11.1394 14.125 11.0752C14.0744 11.0913 13.9766 11.0977 13.9198 11.0977C13.8629 11.0977 13.7652 11.0913 13.7146 11.0752C13.6988 11.1394 13.6515 11.2613 13.6294 11.2998H14.2101" fill="#064A89"/>
<path fill-rule="evenodd" clip-rule="evenodd" d="M14.7356 10.7524L15.02 11.0177C14.7629 11.0899 14.4062 11.0059 14.2642 10.7524H14.7356" fill="#064A89"/>
<path fill-rule="evenodd" clip-rule="evenodd" d="M17.0992 10.933C16.9067 11.1255 16.5879 11.103 16.3954 10.9812C16.2028 10.8593 16.0613 10.8515 15.9413 10.8643C15.9285 10.9729 15.9002 11.1122 15.8516 11.2498H16.9935C17.0218 11.1793 17.0771 11.0149 17.0992 10.933" fill="#064A89"/>
<path fill-rule="evenodd" clip-rule="evenodd" d="M16.9288 11.4474C16.7047 11.3415 16.4756 11.4255 16.3764 11.5018C16.1933 11.643 15.8909 11.6047 15.7425 11.5246C15.6859 11.617 15.6171 11.7078 15.5342 11.7772H16.756C16.8056 11.6971 16.913 11.5002 16.9288 11.4474" fill="#064A89"/>
<path fill-rule="evenodd" clip-rule="evenodd" d="M15.1588 13.0712C14.7761 13.2299 14.3572 13.3175 13.9183 13.3175C13.4789 13.3175 13.0603 13.23 12.6772 13.071C12.7593 13.0614 12.8679 13.0212 12.9556 12.9716C13.0977 12.8914 13.3564 12.8754 13.4796 12.9556C13.6026 13.0358 13.751 13.1159 13.9183 13.1159C14.0856 13.1159 14.234 13.0358 14.357 12.9556C14.4801 12.8754 14.7389 12.8914 14.8811 12.9716C14.9686 13.0212 15.0767 13.0616 15.1588 13.0712" fill="#064A89"/>
<path fill-rule="evenodd" clip-rule="evenodd" d="M14.625 6.72676C13.9338 6.58246 13.312 6.66579 13.312 7.32654C13.312 7.97439 13.312 8.93654 13.312 9.13547C13.312 9.33429 13.3159 9.35945 13.5487 9.4145C14.0537 9.53396 14.101 9.54601 14.6502 9.67418V7.81407C14.221 7.7659 14.0569 7.52117 14.0569 7.23676C14.0569 6.96095 14.2462 6.78128 14.625 6.72676" fill="#514537"/>
<path fill-rule="evenodd" clip-rule="evenodd" d="M12.8535 11.8282C12.4685 11.8282 12.0644 11.4882 12.0644 10.8404C12.0644 10.1924 12.0644 9.37779 12.0644 9.23026C12.0644 9.08435 12.0806 9.06381 12.0471 9.02983C12.0274 9.00983 12.0692 8.98016 12.0976 8.95123C12.1402 8.9079 12.1694 8.87188 12.1118 8.81328C12.0542 8.75478 12.0787 8.73951 12.115 8.70274C12.1513 8.66575 12.1655 8.62897 12.1308 8.5936C12.0961 8.55833 12.0881 8.54715 12.126 8.50865C12.1639 8.47016 12.1481 8.45414 12.1166 8.42199C12.085 8.38994 12.07 8.36672 12.1103 8.32586C12.1497 8.28575 12.1528 8.2793 12.1986 8.2793C12.2444 8.2793 12.3438 8.2793 12.388 8.2793C12.4323 8.2793 12.433 8.29295 12.3959 8.33069C12.3477 8.37951 12.3335 8.39876 12.388 8.45414C12.4424 8.5094 12.4401 8.5279 12.4054 8.56317C12.3532 8.61607 12.3304 8.6522 12.3833 8.70596C12.4362 8.75962 12.4408 8.78371 12.4006 8.82457C12.3604 8.86543 12.3564 8.90155 12.4006 8.94639C12.4346 8.98091 12.4369 9.00102 12.4369 9.06188C12.4369 9.42919 12.4369 10.4298 12.4369 10.7056C12.4369 10.9814 12.6326 11.1482 13.0051 11.1482C13.3776 11.1482 13.5038 10.9942 13.6111 10.8917C13.5417 11.3855 13.3397 11.8282 12.8535 11.8282" fill="#514537"/>
<path fill-rule="evenodd" clip-rule="evenodd" d="M13.9406 10.2546C13.9926 10.2705 14.0431 10.3475 14.0431 10.4309H14.1458C14.1458 10.3604 14.1157 10.2513 14.0613 10.1839C14.0605 10.1663 14.0581 10.1511 14.0542 10.1359C14.0921 10.0877 14.1473 10.0107 14.1458 9.93693C14.1447 9.89037 14.0905 9.89209 14.0842 9.92897C14.079 9.95929 14.059 10.006 14.0211 10.022C14.0211 9.96263 13.9879 9.89209 13.9406 9.89209C13.8933 9.89209 13.86 9.96263 13.86 10.022C13.8222 10.006 13.8022 9.95929 13.797 9.92897C13.7906 9.89209 13.7363 9.89037 13.7354 9.93693C13.7338 10.0107 13.789 10.0877 13.8269 10.1359C13.823 10.1511 13.8207 10.1663 13.8198 10.1839C13.7654 10.2513 13.7354 10.3604 13.7354 10.4309H13.838C13.838 10.3475 13.8885 10.2705 13.9406 10.2546" fill="#514537"/>
<path fill-rule="evenodd" clip-rule="evenodd" d="M13.4113 10.2546C13.4633 10.2705 13.5139 10.3475 13.5139 10.4309H13.6165C13.6165 10.3604 13.5865 10.2513 13.532 10.1839C13.5313 10.1663 13.5288 10.1511 13.5249 10.1359C13.5628 10.0877 13.618 10.0107 13.6165 9.93693C13.6155 9.89037 13.5612 9.89209 13.5549 9.92897C13.5497 9.95929 13.5296 10.006 13.4918 10.022C13.4918 9.96263 13.4587 9.89209 13.4113 9.89209C13.364 9.89209 13.3309 9.96263 13.3309 10.022C13.293 10.006 13.2729 9.95929 13.2677 9.92897C13.2613 9.89209 13.2071 9.89037 13.2061 9.93693C13.2045 10.0107 13.2597 10.0877 13.2976 10.1359C13.2937 10.1511 13.2914 10.1663 13.2905 10.1839C13.2361 10.2513 13.2061 10.3604 13.2061 10.4309H13.3087C13.3087 10.3475 13.3592 10.2705 13.4113 10.2546" fill="#514537"/>
<path fill-rule="evenodd" clip-rule="evenodd" d="M12.8825 10.2546C12.9345 10.2705 12.985 10.3475 12.985 10.4309H13.0876C13.0876 10.3604 13.0576 10.2513 13.0032 10.1839C13.0024 10.1663 13 10.1511 12.9961 10.1359C13.034 10.0877 13.0892 10.0107 13.0876 9.93693C13.0866 9.89037 13.0324 9.89209 13.0261 9.92897C13.0209 9.95929 13.0008 10.006 12.9629 10.022C12.9629 9.96263 12.9298 9.89209 12.8825 9.89209C12.8351 9.89209 12.8019 9.96263 12.8019 10.022C12.7641 10.006 12.7441 9.95929 12.7389 9.92897C12.7325 9.89209 12.6782 9.89037 12.6773 9.93693C12.6757 10.0107 12.7309 10.0877 12.7688 10.1359C12.7649 10.1511 12.7625 10.1663 12.7617 10.1839C12.7072 10.2513 12.6773 10.3604 12.6773 10.4309H12.7798C12.7798 10.3475 12.8304 10.2705 12.8825 10.2546" fill="#514537"/>
<path fill-rule="evenodd" clip-rule="evenodd" d="M14.4694 10.2546C14.4173 10.2705 14.3668 10.3475 14.3668 10.4309H14.2642C14.2642 10.3604 14.2941 10.2513 14.3486 10.1839C14.3494 10.1663 14.3518 10.1511 14.3558 10.1359C14.3178 10.0877 14.2626 10.0107 14.2642 9.93693C14.2653 9.89037 14.3194 9.89209 14.3258 9.92897C14.331 9.95929 14.3511 10.006 14.3888 10.022C14.3888 9.96263 14.4221 9.89209 14.4694 9.89209C14.5168 9.89209 14.5499 9.96263 14.5499 10.022C14.5877 10.006 14.6078 9.95929 14.613 9.92897C14.6193 9.89209 14.6735 9.89037 14.6746 9.93693C14.6762 10.0107 14.6209 10.0877 14.583 10.1359C14.5869 10.1511 14.5894 10.1663 14.5901 10.1839C14.6446 10.2513 14.6746 10.3604 14.6746 10.4309H14.5719C14.5719 10.3475 14.5214 10.2705 14.4694 10.2546" fill="#514537"/>
<path fill-rule="evenodd" clip-rule="evenodd" d="M14.9987 10.2546C14.9466 10.2705 14.8961 10.3475 14.8961 10.4309H14.7935C14.7935 10.3604 14.8235 10.2513 14.8779 10.1839C14.8788 10.1663 14.8811 10.1511 14.885 10.1359C14.8471 10.0877 14.7919 10.0107 14.7935 9.93693C14.7944 9.89037 14.8487 9.89209 14.8551 9.92897C14.8603 9.95929 14.8803 10.006 14.9181 10.022C14.9181 9.96263 14.9514 9.89209 14.9987 9.89209C15.0461 9.89209 15.0792 9.96263 15.0792 10.022C15.1171 10.006 15.1371 9.95929 15.1423 9.92897C15.1486 9.89209 15.2028 9.89037 15.2039 9.93693C15.2054 10.0107 15.1502 10.0877 15.1123 10.1359C15.1162 10.1511 15.1186 10.1663 15.1194 10.1839C15.1739 10.2513 15.2039 10.3604 15.2039 10.4309H15.1013C15.1013 10.3475 15.0507 10.2705 14.9987 10.2546" fill="#514537"/>
<path fill-rule="evenodd" clip-rule="evenodd" d="M12.5713 10.5376H15.3489V10.6709H12.5713V10.5376Z" fill="#514537"/>
<path fill-rule="evenodd" clip-rule="evenodd" d="M15.0217 11.8282C15.4068 11.8282 15.8108 11.4882 15.8108 10.8404C15.8108 10.1924 15.8108 9.37779 15.8108 9.23026C15.8108 9.08435 15.7946 9.06381 15.8282 9.02983C15.8479 9.00983 15.8061 8.98016 15.7777 8.95123C15.7351 8.9079 15.7059 8.87188 15.7634 8.81328C15.8211 8.75478 15.7965 8.73951 15.7604 8.70274C15.7239 8.66575 15.7098 8.62897 15.7445 8.5936C15.7792 8.55833 15.7871 8.54715 15.7492 8.50865C15.7114 8.47016 15.7271 8.45414 15.7587 8.42199C15.7903 8.38994 15.8052 8.36672 15.765 8.32586C15.7255 8.28575 15.7225 8.2793 15.6766 8.2793C15.6308 8.2793 15.5315 8.2793 15.4872 8.2793C15.4431 8.2793 15.4423 8.29295 15.4794 8.33069C15.5275 8.37951 15.5417 8.39876 15.4872 8.45414C15.4328 8.5094 15.4352 8.5279 15.4699 8.56317C15.522 8.61607 15.5448 8.6522 15.492 8.70596C15.4391 8.75962 15.4343 8.78371 15.4746 8.82457C15.5148 8.86543 15.5189 8.90155 15.4746 8.94639C15.4407 8.98091 15.4383 9.00102 15.4383 9.06188C15.4383 9.42919 15.4383 10.4298 15.4383 10.7056C15.4383 10.9814 15.2426 11.1482 14.8702 11.1482C14.4977 11.1482 14.3716 10.9942 14.2642 10.8917C14.3336 11.3855 14.5356 11.8282 15.0217 11.8282" fill="#514537"/>
<path fill-rule="evenodd" clip-rule="evenodd" d="M12.5713 9.67434C12.5713 9.67434 12.5714 9.57971 12.5714 9.4624L13.1266 9.67445L12.5713 9.67434" fill="#EEA339"/>
<path fill-rule="evenodd" clip-rule="evenodd" d="M11.9089 9.77249L10.6665 9.60227C10.7026 9.33173 10.7708 9.06797 10.869 8.81689L11.9089 9.23636V9.77249" fill="#EEA339"/>
<path fill-rule="evenodd" clip-rule="evenodd" d="M14.4761 7.69565L14.6969 6.77393C14.9553 6.83758 15.2066 6.9335 15.4446 7.05995L14.7324 8.44532L14.7349 7.74973C14.6527 7.75016 14.5266 7.73737 14.4761 7.69565" fill="#EEA339"/>
<path fill-rule="evenodd" clip-rule="evenodd" d="M11.9382 9.86273L10.6726 9.78467C10.6563 10.0543 10.6725 10.3265 10.7212 10.595C10.7212 10.595 11.9382 10.6027 11.9382 10.595V9.86273" fill="#EEA339"/>
<path fill-rule="evenodd" clip-rule="evenodd" d="M11.9256 8.99525C11.8846 8.94073 11.9099 8.9117 11.954 8.88278C11.9983 8.85396 11.9919 8.83149 11.9699 8.78987C11.9478 8.74815 11.9257 8.70321 11.9667 8.65837C12.0078 8.61342 11.9919 8.59417 11.9604 8.56213C11.9289 8.53009 11.9257 8.49482 11.954 8.46912C11.9825 8.44342 11.9762 8.42417 11.9573 8.39858C11.9383 8.37288 11.9011 8.32084 11.9344 8.28719L11.4181 7.84912C11.2475 8.05643 11.1015 8.28525 10.9839 8.53063L11.9256 8.99525" fill="#EEA339"/>
<path fill-rule="evenodd" clip-rule="evenodd" d="M13.1624 9.23421L12.547 8.62786C12.6338 8.53969 12.6425 8.52528 12.581 8.4627C12.5139 8.39453 12.5115 8.38743 12.648 8.24862C12.6945 8.20141 12.6685 8.1684 12.6023 8.1684C12.536 8.1684 12.2314 8.1684 12.1966 8.1684C12.1619 8.1684 12.1346 8.17023 12.1092 8.19604L11.6187 7.71346C11.8058 7.51765 12.0149 7.34679 12.2408 7.2041L13.1624 8.71002V9.23421" fill="#EEA339"/>
<path fill-rule="evenodd" clip-rule="evenodd" d="M12.5225 9.32636C12.5225 9.17571 12.5226 9.02657 12.5226 9.00539C12.5226 8.96044 12.5194 8.94281 12.4847 8.90754C12.45 8.87227 12.4674 8.85539 12.4942 8.81689L13.0779 9.31098V9.60109L12.5225 9.32636" fill="#EEA339"/>
<path fill-rule="evenodd" clip-rule="evenodd" d="M13.0696 8.44608C13.0696 8.15672 13.0696 7.88909 13.0696 7.73489C13.0696 7.27307 13.0951 7.0421 13.1613 6.99565L13.1083 6.77393C12.8492 6.84479 12.598 6.9407 12.3599 7.06715L13.0696 8.44608" fill="#EEA339"/>
<path fill-rule="evenodd" clip-rule="evenodd" d="M15.3488 9.67434C15.3488 9.67434 15.3487 9.57971 15.3487 9.4624L14.7935 9.67445L15.3488 9.67434" fill="#EEA339"/>
<path fill-rule="evenodd" clip-rule="evenodd" d="M15.9575 9.77249L17.2 9.60227C17.1639 9.33173 17.0956 9.06797 16.9974 8.81689L15.9575 9.23636V9.77249" fill="#EEA339"/>
<path fill-rule="evenodd" clip-rule="evenodd" d="M15.9575 9.86273L17.223 9.78467C17.2393 10.0543 17.2232 10.3265 17.1745 10.595C17.1745 10.595 15.9575 10.6027 15.9575 10.595V9.86273" fill="#EEA339"/>
<path fill-rule="evenodd" clip-rule="evenodd" d="M15.9174 8.99525C15.9585 8.94073 15.9331 8.9117 15.8889 8.88278C15.8447 8.85396 15.851 8.83149 15.8731 8.78987C15.8952 8.74815 15.9173 8.70321 15.8762 8.65837C15.8352 8.61342 15.851 8.59417 15.8826 8.56213C15.9141 8.53009 15.9173 8.49482 15.8889 8.46912C15.8605 8.44342 15.8668 8.42417 15.8856 8.39858C15.9047 8.37288 15.9417 8.32084 15.9086 8.28719L16.4249 7.84912C16.5955 8.05643 16.7414 8.28525 16.859 8.53063L15.9174 8.99525" fill="#EEA339"/>
<path fill-rule="evenodd" clip-rule="evenodd" d="M14.7935 9.23421L15.4088 8.62786C15.3219 8.53969 15.3132 8.52528 15.3748 8.4627C15.4419 8.39453 15.4444 8.38743 15.3078 8.24862C15.2612 8.20141 15.2873 8.1684 15.3536 8.1684C15.4198 8.1684 15.7245 8.1684 15.7592 8.1684C15.7939 8.1684 15.8212 8.17023 15.8466 8.19604L16.3372 7.71346C16.15 7.51765 15.9409 7.34679 15.715 7.2041L14.7935 8.71002V9.23421" fill="#EEA339"/>
<path fill-rule="evenodd" clip-rule="evenodd" d="M15.3489 9.32636C15.3489 9.17571 15.3488 9.02657 15.3488 9.00539C15.3488 8.96044 15.352 8.94281 15.3867 8.90754C15.4214 8.87227 15.404 8.85539 15.3772 8.81689L14.7935 9.31098V9.60109L15.3489 9.32636" fill="#EEA339"/>
<path fill-rule="evenodd" clip-rule="evenodd" d="M12.1479 9.03223C12.1701 9.0547 12.1796 9.07707 12.1796 9.13158C12.1796 9.1861 12.1796 10.3792 12.1796 10.8475C12.1796 11.4184 12.5204 11.7359 12.8708 11.7359C13.1927 11.7359 13.4042 11.4376 13.5147 11.0913C13.3727 11.2035 13.1644 11.2388 12.9654 11.2388C12.735 11.2388 12.3627 11.0817 12.3627 10.7417C12.3627 10.4274 12.3627 9.26309 12.3627 9.07707C12.3627 9.03223 12.3184 9.03223 12.1479 9.03223" fill="#D82332"/>
<path fill-rule="evenodd" clip-rule="evenodd" d="M14.1609 6.78377C13.7208 6.7385 13.3125 6.83151 13.3125 7.44162C13.3125 8.08313 13.3125 8.8656 13.3125 9.06259C13.3125 9.33323 13.2916 9.30108 13.5173 9.35796C13.9268 9.46119 13.9733 9.47431 14.47 9.58958V7.94033C14.0459 7.89313 13.862 7.61087 13.862 7.29829C13.862 7.04958 13.9702 6.81549 14.1609 6.78377" fill="#D82332"/>
<path fill-rule="evenodd" clip-rule="evenodd" d="M15.7369 9.03223C15.7148 9.0547 15.7052 9.07707 15.7052 9.13158C15.7052 9.1861 15.7052 10.3792 15.7052 10.8475C15.7052 11.4184 15.3644 11.7359 15.014 11.7359C14.6921 11.7359 14.4806 11.4376 14.3701 11.0913C14.5122 11.2035 14.7205 11.2388 14.9194 11.2388C15.1498 11.2388 15.5222 11.0817 15.5222 10.7417C15.5222 10.4274 15.5222 9.26309 15.5222 9.07707C15.5222 9.03223 15.5664 9.03223 15.7369 9.03223" fill="#D82332"/>
<mask id="mask1_60_4148" style="mask-type:alpha" maskUnits="userSpaceOnUse" x="10" y="6" width="8" height="8">
<path fill-rule="evenodd" clip-rule="evenodd" d="M13.9998 13.3332C15.8408 13.3332 17.3332 11.8408 17.3332 9.99984C17.3332 8.15889 15.8408 6.6665 13.9998 6.6665C12.1589 6.6665 10.6665 8.15889 10.6665 9.99984C10.6665 11.8408 12.1589 13.3332 13.9998 13.3332Z" fill="white"/>
</mask>
<g mask="url(#mask1_60_4148)">
<path fill-rule="evenodd" clip-rule="evenodd" d="M13.9998 18.6667C15.8408 18.6667 17.3332 17.1743 17.3332 15.3333C17.3332 13.4924 15.8408 12 13.9998 12C12.1589 12 10.6665 13.4924 10.6665 15.3333C10.6665 17.1743 12.1589 18.6667 13.9998 18.6667Z" fill="#064A89"/>
</g>
</g>
</svg>
