<svg width="28" height="20" viewBox="0 0 28 20" fill="none" xmlns="http://www.w3.org/2000/svg">
<rect width="28" height="20" rx="2" fill="white"/>
<mask id="mask0_60_3605" style="mask-type:alpha" maskUnits="userSpaceOnUse" x="0" y="0" width="28" height="20">
<rect width="28" height="20" rx="2" fill="white"/>
</mask>
<g mask="url(#mask0_60_3605)">
<g filter="url(#filter0_d_60_3605)">
<path fill-rule="evenodd" clip-rule="evenodd" d="M0 19.9998H28V14.6665H0V19.9998Z" fill="#2D754D"/>
</g>
<path fill-rule="evenodd" clip-rule="evenodd" d="M0 9.33333H28V0H0V9.33333Z" fill="#25B1EB"/>
<path fill-rule="evenodd" clip-rule="evenodd" d="M0 14.6668H28V9.3335H0V14.6668Z" fill="#FECB2F"/>
<path fill-rule="evenodd" clip-rule="evenodd" d="M21.3332 6L20.3127 7.13035L20.3904 5.60948L18.8695 5.68716L19.9998 4.66667L18.8695 3.64618L20.3904 3.72386L20.3127 2.20299L21.3332 3.33333L22.3537 2.20299L22.276 3.72386L23.7968 3.64618L22.6665 4.66667L23.7968 5.68716L22.276 5.60948L22.3537 7.13035L21.3332 6Z" fill="#FECB2F"/>
</g>
<defs>
<filter id="filter0_d_60_3605" x="0" y="14.6665" width="28" height="5.3335" filterUnits="userSpaceOnUse" color-interpolation-filters="sRGB">
<feFlood flood-opacity="0" result="BackgroundImageFix"/>
<feColorMatrix in="SourceAlpha" type="matrix" values="0 0 0 0 0 0 0 0 0 0 0 0 0 0 0 0 0 0 127 0" result="hardAlpha"/>
<feOffset/>
<feColorMatrix type="matrix" values="0 0 0 0 0 0 0 0 0 0 0 0 0 0 0 0 0 0 0.06 0"/>
<feBlend mode="normal" in2="BackgroundImageFix" result="effect1_dropShadow_60_3605"/>
<feBlend mode="normal" in="SourceGraphic" in2="effect1_dropShadow_60_3605" result="shape"/>
</filter>
</defs>
</svg>
