<svg width="28" height="20" viewBox="0 0 28 20" fill="none" xmlns="http://www.w3.org/2000/svg">
<rect x="0.25" y="0.25" width="27.5" height="19.5" rx="1.75" fill="white" stroke="#F5F5F5" stroke-width="0.5"/>
<mask id="mask0_60_3711" style="mask-type:alpha" maskUnits="userSpaceOnUse" x="0" y="0" width="28" height="20">
<rect x="0.25" y="0.25" width="27.5" height="19.5" rx="1.75" fill="white" stroke="white" stroke-width="0.5"/>
</mask>
<g mask="url(#mask0_60_3711)">
<path fill-rule="evenodd" clip-rule="evenodd" d="M0 10.6667H28V0H0V10.6667Z" fill="#E12237"/>
<path fill-rule="evenodd" clip-rule="evenodd" d="M6.6665 9.3335C7.61161 9.3335 8.48017 9.00572 9.16468 8.45764C8.80208 8.5929 8.40959 8.66683 7.99984 8.66683C6.15889 8.66683 4.6665 7.17445 4.6665 5.3335C4.6665 3.49255 6.15889 2.00016 7.99984 2.00016C8.40959 2.00016 8.80208 2.0741 9.16468 2.20935C8.48017 1.66127 7.61161 1.3335 6.6665 1.3335C4.45736 1.3335 2.6665 3.12436 2.6665 5.3335C2.6665 7.54263 4.45736 9.3335 6.6665 9.3335ZM7.99984 4.66683C7.99984 5.03502 7.70136 5.3335 7.33317 5.3335C6.96498 5.3335 6.6665 5.03502 6.6665 4.66683C6.6665 4.29864 6.96498 4.00016 7.33317 4.00016C7.70136 4.00016 7.99984 4.29864 7.99984 4.66683ZM8.6665 8.00016C9.03469 8.00016 9.33317 7.70169 9.33317 7.3335C9.33317 6.96531 9.03469 6.66683 8.6665 6.66683C8.29831 6.66683 7.99984 6.96531 7.99984 7.3335C7.99984 7.70169 8.29831 8.00016 8.6665 8.00016ZM11.9998 7.3335C11.9998 7.70169 11.7014 8.00016 11.3332 8.00016C10.965 8.00016 10.6665 7.70169 10.6665 7.3335C10.6665 6.96531 10.965 6.66683 11.3332 6.66683C11.7014 6.66683 11.9998 6.96531 11.9998 7.3335ZM12.6665 5.3335C13.0347 5.3335 13.3332 5.03502 13.3332 4.66683C13.3332 4.29864 13.0347 4.00016 12.6665 4.00016C12.2983 4.00016 11.9998 4.29864 11.9998 4.66683C11.9998 5.03502 12.2983 5.3335 12.6665 5.3335ZM10.6665 2.66683C10.6665 3.03502 10.368 3.3335 9.99984 3.3335C9.63165 3.3335 9.33317 3.03502 9.33317 2.66683C9.33317 2.29864 9.63165 2.00016 9.99984 2.00016C10.368 2.00016 10.6665 2.29864 10.6665 2.66683Z" fill="white"/>
</g>
</svg>
