<svg width="28" height="20" viewBox="0 0 28 20" fill="none" xmlns="http://www.w3.org/2000/svg">
<rect x="0.25" y="0.25" width="27.5" height="19.5" rx="1.75" fill="white" stroke="#F5F5F5" stroke-width="0.5"/>
<mask id="mask0_60_3729" style="mask-type:alpha" maskUnits="userSpaceOnUse" x="0" y="0" width="28" height="20">
<rect x="0.25" y="0.25" width="27.5" height="19.5" rx="1.75" fill="white" stroke="white" stroke-width="0.5"/>
</mask>
<g mask="url(#mask0_60_3729)">
<path fill-rule="evenodd" clip-rule="evenodd" d="M0 13.3332H28V6.6665H9.24398V5.33317C9.24398 5.33317 8.30367 4.6665 7.33333 4.6665C6.36299 4.6665 5.33333 5.33317 5.33333 5.33317V6.6665H0V13.3332ZM8.66667 7.99984C8.66667 8.73622 8.06971 9.33317 7.33333 9.33317C6.59695 9.33317 6 8.73622 6 7.99984C6 7.26346 6.59695 6.6665 7.33333 6.6665C8.06971 6.6665 8.66667 7.26346 8.66667 7.99984Z" fill="#0C47B7"/>
<g filter="url(#filter0_d_60_3729)">
<path fill-rule="evenodd" clip-rule="evenodd" d="M0 20.0002H28V13.3335H0V20.0002Z" fill="#E53B35"/>
</g>
</g>
<defs>
<filter id="filter0_d_60_3729" x="0" y="13.3335" width="28" height="6.6665" filterUnits="userSpaceOnUse" color-interpolation-filters="sRGB">
<feFlood flood-opacity="0" result="BackgroundImageFix"/>
<feColorMatrix in="SourceAlpha" type="matrix" values="0 0 0 0 0 0 0 0 0 0 0 0 0 0 0 0 0 0 127 0" result="hardAlpha"/>
<feOffset/>
<feColorMatrix type="matrix" values="0 0 0 0 0 0 0 0 0 0 0 0 0 0 0 0 0 0 0.06 0"/>
<feBlend mode="normal" in2="BackgroundImageFix" result="effect1_dropShadow_60_3729"/>
<feBlend mode="normal" in="SourceGraphic" in2="effect1_dropShadow_60_3729" result="shape"/>
</filter>
</defs>
</svg>
