<svg width="28" height="20" viewBox="0 0 28 20" fill="none" xmlns="http://www.w3.org/2000/svg">
<rect x="0.25" y="0.25" width="27.5" height="19.5" rx="1.75" fill="white" stroke="#F5F5F5" stroke-width="0.5"/>
<mask id="mask0_60_3657" style="mask-type:alpha" maskUnits="userSpaceOnUse" x="0" y="0" width="28" height="20">
<rect x="0.25" y="0.25" width="27.5" height="19.5" rx="1.75" fill="white" stroke="white" stroke-width="0.5"/>
</mask>
<g mask="url(#mask0_60_3657)">
<path fill-rule="evenodd" clip-rule="evenodd" d="M0 13.3332H28V6.6665H0V13.3332Z" fill="#0C47B7"/>
<path fill-rule="evenodd" clip-rule="evenodd" d="M0 20.0002H28V13.3335H0V20.0002Z" fill="#E53B35"/>
<path d="M13.0502 3.33333H6.94965C5.87499 3.33333 4.99243 4.1826 4.95113 5.25647L4.69188 11.9969C4.66841 12.6073 4.92509 13.1948 5.38882 13.5923L8.2645 16.0572C9.26314 16.9132 10.7368 16.9132 11.7354 16.0572L14.6111 13.5923C15.0748 13.1948 15.3315 12.6073 15.308 11.9969L15.0488 5.25647C15.0075 4.1826 14.1249 3.33333 13.0502 3.33333Z" fill="#F73744" stroke="white" stroke-width="1.33333"/>
<mask id="mask1_60_3657" style="mask-type:alpha" maskUnits="userSpaceOnUse" x="4" y="2" width="12" height="16">
<path d="M13.0502 3.33333H6.94965C5.87499 3.33333 4.99243 4.1826 4.95113 5.25647L4.69188 11.9969C4.66841 12.6073 4.92509 13.1948 5.38882 13.5923L8.2645 16.0572C9.26314 16.9132 10.7368 16.9132 11.7354 16.0572L14.6111 13.5923C15.0748 13.1948 15.3315 12.6073 15.308 11.9969L15.0488 5.25647C15.0075 4.1826 14.1249 3.33333 13.0502 3.33333Z" fill="white" stroke="white" stroke-width="1.33333"/>
</mask>
<g mask="url(#mask1_60_3657)">
<path fill-rule="evenodd" clip-rule="evenodd" d="M9.3335 11.0002C9.3335 10.8161 9.18426 10.6668 9.00016 10.6668H7.66683C7.48273 10.6668 7.3335 10.5176 7.3335 10.3335V9.66683C7.3335 9.48273 7.48273 9.3335 7.66683 9.3335H9.00016C9.18426 9.3335 9.3335 9.18426 9.3335 9.00016V8.3335C9.3335 8.1494 9.18426 8.00016 9.00016 8.00016H8.3335C8.1494 8.00016 8.00016 7.85092 8.00016 7.66683V7.00016C8.00016 6.81607 8.1494 6.66683 8.3335 6.66683H9.00016C9.18426 6.66683 9.3335 6.51759 9.3335 6.3335V5.66683C9.3335 5.48273 9.48273 5.3335 9.66683 5.3335H10.3335C10.5176 5.3335 10.6668 5.48273 10.6668 5.66683V6.3335C10.6668 6.51759 10.8161 6.66683 11.0002 6.66683H11.6668C11.8509 6.66683 12.0002 6.81607 12.0002 7.00016V7.66683C12.0002 7.85092 11.8509 8.00016 11.6668 8.00016H11.0002C10.8161 8.00016 10.6668 8.1494 10.6668 8.3335V9.00016C10.6668 9.18426 10.8161 9.3335 11.0002 9.3335H12.3335C12.5176 9.3335 12.6668 9.48273 12.6668 9.66683V10.3335C12.6668 10.5176 12.5176 10.6668 12.3335 10.6668H11.0002C10.8161 10.6668 10.6668 10.8161 10.6668 11.0002V13.0002C10.6668 13.1843 10.5176 13.3335 10.3335 13.3335H9.66683C9.48273 13.3335 9.3335 13.1843 9.3335 13.0002V11.0002Z" fill="white"/>
<path fill-rule="evenodd" clip-rule="evenodd" d="M11.2035 13.4253C10.9889 12.9765 10.5307 12.6665 10 12.6665C9.46934 12.6665 9.01109 12.9765 8.79647 13.4253C7.17545 13.6807 6 14.4383 6 15.3332C6 16.4377 7.79086 17.3332 10 17.3332C12.2091 17.3332 14 16.4377 14 15.3332C14 14.4383 12.8246 13.6807 11.2035 13.4253Z" fill="#1251A1"/>
</g>
</g>
</svg>
