<svg width="28" height="20" viewBox="0 0 28 20" fill="none" xmlns="http://www.w3.org/2000/svg">
<rect x="0.25" y="0.25" width="27.5" height="19.5" rx="1.75" fill="white" stroke="#F5F5F5" stroke-width="0.5"/>
<mask id="mask0_60_3674" style="mask-type:alpha" maskUnits="userSpaceOnUse" x="0" y="0" width="28" height="20">
<rect x="0.25" y="0.25" width="27.5" height="19.5" rx="1.75" fill="white" stroke="white" stroke-width="0.5"/>
</mask>
<g mask="url(#mask0_60_3674)">
<path fill-rule="evenodd" clip-rule="evenodd" d="M0 20.0002H28V13.3335H0V20.0002Z" fill="#262626"/>
<path fill-rule="evenodd" clip-rule="evenodd" d="M0 6.66667H28V0H0V6.66667Z" fill="#E32139"/>
<path fill-rule="evenodd" clip-rule="evenodd" d="M9.33317 11.0935L7.76574 12.1575L8.29335 10.338L6.79702 9.17612L8.69053 9.11564L9.33317 7.3335L9.97582 9.11564L11.8693 9.17612L10.373 10.338L10.9006 12.1575L9.33317 11.0935Z" fill="#128A49"/>
<path fill-rule="evenodd" clip-rule="evenodd" d="M18.6667 11.0935L17.0992 12.1575L17.6268 10.338L16.1305 9.17612L18.024 9.11564L18.6667 7.3335L19.3093 9.11564L21.2028 9.17612L19.7065 10.338L20.2341 12.1575L18.6667 11.0935Z" fill="#128A49"/>
</g>
</svg>
