<svg width="28" height="20" viewBox="0 0 28 20" fill="none" xmlns="http://www.w3.org/2000/svg">
<rect width="28" height="20" rx="2" fill="white"/>
<mask id="mask0_60_3838" style="mask-type:alpha" maskUnits="userSpaceOnUse" x="0" y="0" width="28" height="20">
<rect width="28" height="20" rx="2" fill="white"/>
</mask>
<g mask="url(#mask0_60_3838)">
<rect width="28" height="20" fill="#07319C"/>
<path d="M17.6668 10.0002V9.94875V9.89706V9.8451V9.79288V9.74043V9.68774V9.63484V9.58173V9.52843V9.47495V9.4213V9.3675V9.31356V9.28653V9.27977V9.27301V9.25948V9.20529V9.15099V9.0966V9.04214V8.9876V8.93301V8.87837V8.82371V8.76903V8.74169V8.73485V8.72801V8.72118V8.71434V8.70751V8.70067V8.69384V8.687V8.68017V8.67333V8.6665V8.65966V8.65283V8.646V8.63916V8.63233V8.6255V8.61867V8.61184V8.60501V8.59818V8.59135V8.58452V8.57769V8.57086V8.56403V8.5572V8.55038V8.54355V8.53673V8.5299V8.52308V8.51626V8.50944V8.50262V8.4958V8.48898V8.48216V8.47534V8.46853V8.46171V8.4549V8.44808V8.44127V8.43446V8.42765V8.42084V8.41404V8.40723V8.40042V8.39362V8.38682V8.38002V8.37322V8.36642V8.35962V8.35282V8.34603V8.33924V8.33245V8.32565V8.31887V8.31208V8.30529V8.29851V8.29173V8.28495V8.27817V8.27139V8.26461V8.25784V8.25107V8.2443V8.23753V8.23076V8.224V8.21723V8.21047V8.20371V8.19696V8.1902V8.18345V8.1767V8.16995V8.1632V8.15645V8.14971V8.14297V8.13623V8.12949V8.12276V8.11603V8.1093V8.10257V8.09584V8.08912V8.0824V8.07568V8.06897V8.06225V8.05554V8.04883V8.04213V8.03543V8.02872V8.02203V8.01533V8.00864V8.00195V7.99526V7.98857V7.98189V7.97521V7.96854V7.96186V7.95519V7.94852V7.94186V7.93519V7.92853V7.92188V7.91522V7.90857V7.90193V7.89528V7.88864V7.87536V7.84885V7.79599V7.74335V7.69094V7.63877V7.58686V7.53522V7.48386V7.43279V7.38204V7.3316V7.28149V7.23173V7.18232V7.13329V7.08463V7.03637V6.94109V6.84752V6.75579V6.66598C17.6668 6.11397 18.1143 5.66683 18.6668 5.66683H22.6668C23.2194 5.66683 23.6668 6.11397 23.6668 6.66598V6.67154V6.6771V6.68267V6.68825V6.69383V6.69943V6.70503V6.71064V6.71626V6.72188V6.72751V6.73315V6.7388V6.74446V6.75012V6.75579V6.76147V6.76715V6.77285V6.77855V6.78426V6.78997V6.79569V6.80142V6.80716V6.81291V6.81866V6.82442V6.83018V6.83596V6.84174V6.84753V6.85332V6.85912V6.86493V6.87075V6.87657V6.8824V6.88824V6.89408V6.89994V6.90579V6.91166V6.91753V6.92341V6.92929V6.93519V6.94109V6.94699V6.9529V6.95882V6.96475V6.97068V6.97662V6.98257V6.98852V6.99448V7.00045V7.00642V7.0124V7.01838V7.02437V7.03037V7.03637V7.04238V7.0484V7.05442V7.06045V7.06649V7.07253V7.07858V7.08463V7.09069V7.09676V7.10283V7.10891V7.115V7.12109V7.12719V7.13329V7.1394V7.14551V7.15163V7.15776V7.16389V7.17003V7.17617V7.18232V7.18848V7.19464V7.20081V7.20698V7.21316V7.21934V7.22553V7.23173V7.23793V7.24414V7.25035V7.25657V7.26279V7.26902V7.27525V7.28149V7.28774V7.29399V7.30024V7.3065V7.31277V7.31904V7.32532V7.3316V7.33789V7.34418V7.35047V7.35678V7.36308V7.3694V7.37571V7.38204V7.38836V7.3947V7.40103V7.40738V7.41372V7.42008V7.42643V7.43279V7.43916V7.44553V7.45191V7.45829V7.46467V7.47106V7.47746V7.48386V7.49026V7.49667V7.50308V7.5095V7.51592V7.52235V7.52878V7.53522V7.54166V7.5481V7.55455V7.561V7.56746V7.57392V7.58039V7.58686V7.59333V7.59981V7.60629V7.61278V7.61927V7.62577V7.63227V7.63877V7.64528V7.65179V7.6583V7.66482V7.67134V7.67787V7.6844V7.69094V7.69747V7.70402V7.71056V7.71711V7.72367V7.73022V7.73678V7.74335V7.74992V7.75649V7.76306V7.76964V7.77622V7.78281V7.7894V7.79599V7.80259V7.80919V7.81579V7.8224V7.82901V7.83562V7.84224V7.84886V7.85548V7.8621V7.86873V7.87537V7.882V7.88864V7.89528V7.90193V7.90857V7.91522V7.92188V7.92853V7.93519V7.94186V7.94852V7.95519V7.96186V7.96854V7.97521V7.98189V7.98857V7.99526V8.00195V8.00864V8.01533V8.02203V8.02872V8.03543V8.04213V8.04884V8.05554V8.06225V8.06897V8.07568V8.0824V8.08912V8.09585V8.10257V8.1093V8.11603V8.12276V8.12949V8.13623V8.14297V8.14971V8.15645V8.1632V8.16995V8.1767V8.18345V8.1902V8.19696V8.20371V8.21047V8.21723V8.224V8.23076V8.23753V8.2443V8.25107V8.25784V8.26462V8.27139V8.27817V8.28495V8.29173V8.29851V8.30529V8.31208V8.31887V8.32566V8.33245V8.33924V8.34603V8.35282V8.35962V8.36642V8.37322V8.38002V8.38682V8.39362V8.40042V8.40723V8.41404V8.42084V8.42765V8.43446V8.44127V8.44808V8.4549V8.46171V8.46853V8.47534V8.48216V8.48898V8.4958V8.50262V8.50944V8.51626V8.52308V8.52991V8.53673V8.54355V8.55038V8.55721V8.56403V8.57086V8.57769V8.58452V8.59135V8.59818V8.60501V8.61184V8.61867V8.6255V8.63233V8.63916V8.646V8.65283V8.65966V8.6665V8.67333V8.68017V8.687V8.69384V8.70067V8.70751V8.71434V8.72118V8.72802V8.73485V8.74169V8.74852V8.75536V8.76219V8.76903V8.77587V8.7827V8.78954V8.79637V8.80321V8.81004V8.81688V8.82371V8.83055V8.83738V8.84421V8.85105V8.85788V8.86471V8.87154V8.87838V8.88521V8.89204V8.89887V8.9057V8.91253V8.91935V8.92618V8.93301V8.93984V8.94666V8.95349V8.96031V8.96713V8.97396V8.98078V8.9876V8.99442V9.00124V9.00806V9.01488V9.02169V9.02851V9.03532V9.04214V9.04895V9.05576V9.06257V9.06938V9.07619V9.08299V9.0898V9.09661V9.10341V9.11021V9.11701V9.12381V9.13061V9.1374V9.1442V9.15099V9.15779V9.16458V9.17137V9.17815V9.18494V9.19173V9.19851V9.20529V9.21207V9.21885V9.22563V9.2324V9.23917V9.24594V9.25271V9.25948V9.26625V9.27301V9.27977V9.28653V9.29329V9.30005V9.3068V9.31356V9.32031V9.32705V9.3338V9.34055V9.34729V9.35403V9.36076V9.3675V9.37423V9.38096V9.38769V9.39442V9.40114V9.40787V9.41459V9.4213V9.42802V9.43473V9.44144V9.44815V9.45485V9.46155V9.46825V9.47495V9.48164V9.48834V9.49502V9.50171V9.5084V9.51508V9.52175V9.52843V9.5351V9.54177V9.54844V9.5551V9.56176V9.56842V9.57508V9.58173V9.58838V9.59503V9.60167V9.60831V9.61495V9.62158V9.62821V9.63484V9.64146V9.64808V9.6547V9.66132V9.66793V9.67453V9.68114V9.68774V9.69434V9.70093V9.70752V9.71411V9.7207V9.72728V9.73385V9.74043V9.747V9.75356V9.76013V9.76668V9.77324V9.77979V9.78634V9.79288V9.79942V9.80596V9.81249V9.81902V9.82555V9.83207V9.83858V9.8451V9.85161V9.85811V9.86461V9.87111V9.8776V9.88409V9.89058V9.89706V9.90353V9.91001V9.91647V9.92294V9.9294V9.93585V9.9423V9.94875V9.95519V9.96163V9.96806V9.97449V9.98092V9.98734V9.99375V10.0002C23.6668 11.5428 22.899 12.6261 22.1105 13.3357C21.716 13.6908 21.3204 13.9481 21.0233 14.1164C20.8751 14.2004 20.7524 14.2617 20.6679 14.3015C20.6676 14.3017 20.6672 14.3019 20.6668 14.302C20.6665 14.3019 20.6661 14.3017 20.6657 14.3015C20.5812 14.2617 20.4585 14.2004 20.3103 14.1164C20.0133 13.9481 19.6177 13.6908 19.2232 13.3357C18.4346 12.6261 17.6668 11.5428 17.6668 10.0002Z" fill="#FFD033" stroke="white" stroke-width="0.666667"/>
<mask id="mask1_60_3838" style="mask-type:alpha" maskUnits="userSpaceOnUse" x="17" y="5" width="7" height="10">
<path d="M17.6668 10.0002V9.94875V9.89706V9.8451V9.79288V9.74043V9.68774V9.63484V9.58173V9.52843V9.47495V9.4213V9.3675V9.31356V9.28653V9.27977V9.27301V9.25948V9.20529V9.15099V9.0966V9.04214V8.9876V8.93301V8.87837V8.82371V8.76903V8.74169V8.73485V8.72801V8.72118V8.71434V8.70751V8.70067V8.69384V8.687V8.68017V8.67333V8.6665V8.65966V8.65283V8.646V8.63916V8.63233V8.6255V8.61867V8.61184V8.60501V8.59818V8.59135V8.58452V8.57769V8.57086V8.56403V8.5572V8.55038V8.54355V8.53673V8.5299V8.52308V8.51626V8.50944V8.50262V8.4958V8.48898V8.48216V8.47534V8.46853V8.46171V8.4549V8.44808V8.44127V8.43446V8.42765V8.42084V8.41404V8.40723V8.40042V8.39362V8.38682V8.38002V8.37322V8.36642V8.35962V8.35282V8.34603V8.33924V8.33245V8.32565V8.31887V8.31208V8.30529V8.29851V8.29173V8.28495V8.27817V8.27139V8.26461V8.25784V8.25107V8.2443V8.23753V8.23076V8.224V8.21723V8.21047V8.20371V8.19696V8.1902V8.18345V8.1767V8.16995V8.1632V8.15645V8.14971V8.14297V8.13623V8.12949V8.12276V8.11603V8.1093V8.10257V8.09584V8.08912V8.0824V8.07568V8.06897V8.06225V8.05554V8.04883V8.04213V8.03543V8.02872V8.02203V8.01533V8.00864V8.00195V7.99526V7.98857V7.98189V7.97521V7.96854V7.96186V7.95519V7.94852V7.94186V7.93519V7.92853V7.92188V7.91522V7.90857V7.90193V7.89528V7.88864V7.87536V7.84885V7.79599V7.74335V7.69094V7.63877V7.58686V7.53522V7.48386V7.43279V7.38204V7.3316V7.28149V7.23173V7.18232V7.13329V7.08463V7.03637V6.94109V6.84752V6.75579V6.66598C17.6668 6.11397 18.1143 5.66683 18.6668 5.66683H22.6668C23.2194 5.66683 23.6668 6.11397 23.6668 6.66598V6.67154V6.6771V6.68267V6.68825V6.69383V6.69943V6.70503V6.71064V6.71626V6.72188V6.72751V6.73315V6.7388V6.74446V6.75012V6.75579V6.76147V6.76715V6.77285V6.77855V6.78426V6.78997V6.79569V6.80142V6.80716V6.81291V6.81866V6.82442V6.83018V6.83596V6.84174V6.84753V6.85332V6.85912V6.86493V6.87075V6.87657V6.8824V6.88824V6.89408V6.89994V6.90579V6.91166V6.91753V6.92341V6.92929V6.93519V6.94109V6.94699V6.9529V6.95882V6.96475V6.97068V6.97662V6.98257V6.98852V6.99448V7.00045V7.00642V7.0124V7.01838V7.02437V7.03037V7.03637V7.04238V7.0484V7.05442V7.06045V7.06649V7.07253V7.07858V7.08463V7.09069V7.09676V7.10283V7.10891V7.115V7.12109V7.12719V7.13329V7.1394V7.14551V7.15163V7.15776V7.16389V7.17003V7.17617V7.18232V7.18848V7.19464V7.20081V7.20698V7.21316V7.21934V7.22553V7.23173V7.23793V7.24414V7.25035V7.25657V7.26279V7.26902V7.27525V7.28149V7.28774V7.29399V7.30024V7.3065V7.31277V7.31904V7.32532V7.3316V7.33789V7.34418V7.35047V7.35678V7.36308V7.3694V7.37571V7.38204V7.38836V7.3947V7.40103V7.40738V7.41372V7.42008V7.42643V7.43279V7.43916V7.44553V7.45191V7.45829V7.46467V7.47106V7.47746V7.48386V7.49026V7.49667V7.50308V7.5095V7.51592V7.52235V7.52878V7.53522V7.54166V7.5481V7.55455V7.561V7.56746V7.57392V7.58039V7.58686V7.59333V7.59981V7.60629V7.61278V7.61927V7.62577V7.63227V7.63877V7.64528V7.65179V7.6583V7.66482V7.67134V7.67787V7.6844V7.69094V7.69747V7.70402V7.71056V7.71711V7.72367V7.73022V7.73678V7.74335V7.74992V7.75649V7.76306V7.76964V7.77622V7.78281V7.7894V7.79599V7.80259V7.80919V7.81579V7.8224V7.82901V7.83562V7.84224V7.84886V7.85548V7.8621V7.86873V7.87537V7.882V7.88864V7.89528V7.90193V7.90857V7.91522V7.92188V7.92853V7.93519V7.94186V7.94852V7.95519V7.96186V7.96854V7.97521V7.98189V7.98857V7.99526V8.00195V8.00864V8.01533V8.02203V8.02872V8.03543V8.04213V8.04884V8.05554V8.06225V8.06897V8.07568V8.0824V8.08912V8.09585V8.10257V8.1093V8.11603V8.12276V8.12949V8.13623V8.14297V8.14971V8.15645V8.1632V8.16995V8.1767V8.18345V8.1902V8.19696V8.20371V8.21047V8.21723V8.224V8.23076V8.23753V8.2443V8.25107V8.25784V8.26462V8.27139V8.27817V8.28495V8.29173V8.29851V8.30529V8.31208V8.31887V8.32566V8.33245V8.33924V8.34603V8.35282V8.35962V8.36642V8.37322V8.38002V8.38682V8.39362V8.40042V8.40723V8.41404V8.42084V8.42765V8.43446V8.44127V8.44808V8.4549V8.46171V8.46853V8.47534V8.48216V8.48898V8.4958V8.50262V8.50944V8.51626V8.52308V8.52991V8.53673V8.54355V8.55038V8.55721V8.56403V8.57086V8.57769V8.58452V8.59135V8.59818V8.60501V8.61184V8.61867V8.6255V8.63233V8.63916V8.646V8.65283V8.65966V8.6665V8.67333V8.68017V8.687V8.69384V8.70067V8.70751V8.71434V8.72118V8.72802V8.73485V8.74169V8.74852V8.75536V8.76219V8.76903V8.77587V8.7827V8.78954V8.79637V8.80321V8.81004V8.81688V8.82371V8.83055V8.83738V8.84421V8.85105V8.85788V8.86471V8.87154V8.87838V8.88521V8.89204V8.89887V8.9057V8.91253V8.91935V8.92618V8.93301V8.93984V8.94666V8.95349V8.96031V8.96713V8.97396V8.98078V8.9876V8.99442V9.00124V9.00806V9.01488V9.02169V9.02851V9.03532V9.04214V9.04895V9.05576V9.06257V9.06938V9.07619V9.08299V9.0898V9.09661V9.10341V9.11021V9.11701V9.12381V9.13061V9.1374V9.1442V9.15099V9.15779V9.16458V9.17137V9.17815V9.18494V9.19173V9.19851V9.20529V9.21207V9.21885V9.22563V9.2324V9.23917V9.24594V9.25271V9.25948V9.26625V9.27301V9.27977V9.28653V9.29329V9.30005V9.3068V9.31356V9.32031V9.32705V9.3338V9.34055V9.34729V9.35403V9.36076V9.3675V9.37423V9.38096V9.38769V9.39442V9.40114V9.40787V9.41459V9.4213V9.42802V9.43473V9.44144V9.44815V9.45485V9.46155V9.46825V9.47495V9.48164V9.48834V9.49502V9.50171V9.5084V9.51508V9.52175V9.52843V9.5351V9.54177V9.54844V9.5551V9.56176V9.56842V9.57508V9.58173V9.58838V9.59503V9.60167V9.60831V9.61495V9.62158V9.62821V9.63484V9.64146V9.64808V9.6547V9.66132V9.66793V9.67453V9.68114V9.68774V9.69434V9.70093V9.70752V9.71411V9.7207V9.72728V9.73385V9.74043V9.747V9.75356V9.76013V9.76668V9.77324V9.77979V9.78634V9.79288V9.79942V9.80596V9.81249V9.81902V9.82555V9.83207V9.83858V9.8451V9.85161V9.85811V9.86461V9.87111V9.8776V9.88409V9.89058V9.89706V9.90353V9.91001V9.91647V9.92294V9.9294V9.93585V9.9423V9.94875V9.95519V9.96163V9.96806V9.97449V9.98092V9.98734V9.99375V10.0002C23.6668 11.5428 22.899 12.6261 22.1105 13.3357C21.716 13.6908 21.3204 13.9481 21.0233 14.1164C20.8751 14.2004 20.7524 14.2617 20.6679 14.3015C20.6676 14.3017 20.6672 14.3019 20.6668 14.302C20.6665 14.3019 20.6661 14.3017 20.6657 14.3015C20.5812 14.2617 20.4585 14.2004 20.3103 14.1164C20.0133 13.9481 19.6177 13.6908 19.2232 13.3357C18.4346 12.6261 17.6668 11.5428 17.6668 10.0002Z" fill="white" stroke="white" stroke-width="0.666667"/>
</mask>
<g mask="url(#mask1_60_3838)">
<path fill-rule="evenodd" clip-rule="evenodd" d="M22.0002 9.33366C22.3684 9.33366 22.6668 8.73671 22.6668 8.00033C22.6668 7.26395 22.3684 6.66699 22.0002 6.66699C21.632 6.66699 21.3335 7.26395 21.3335 8.00033C21.3335 8.73671 21.632 9.33366 22.0002 9.33366Z" fill="#BA5B1F"/>
<path fill-rule="evenodd" clip-rule="evenodd" d="M19.5385 9.29346C19.8845 9.16753 19.9608 8.50449 19.709 7.81252C19.4571 7.12055 18.9724 6.66168 18.6265 6.78761C18.2805 6.91354 18.2042 7.57658 18.456 8.26855C18.7079 8.96052 19.1925 9.41939 19.5385 9.29346Z" fill="#FF9F3E"/>
<path fill-rule="evenodd" clip-rule="evenodd" d="M19.0519 9.27083C19.3856 9.42644 19.9084 9.01155 20.2196 8.34417C20.5308 7.67678 20.5126 7.00961 20.1789 6.85401C19.8452 6.69841 19.3224 7.11329 19.0112 7.78068C18.7 8.44806 18.7182 9.11523 19.0519 9.27083Z" fill="#FF937F"/>
<path fill-rule="evenodd" clip-rule="evenodd" d="M20 10.6668L20.6667 9.3335L21.3333 10.6668V12.0002H20V10.6668Z" fill="#01A827"/>
</g>
<path d="M0 -0.333333H-0.901086L-0.21693 0.253086L4.33333 4.15331V5.16179L-0.193746 8.39542L-0.333333 8.49513V8.66667V9.33333V9.93475L0.176666 9.616L5.42893 6.33333H6.55984L11.0821 9.56351C11.176 9.6306 11.2886 9.66667 11.404 9.66667C11.9182 9.66667 12.1548 9.02698 11.7644 8.69237L7.66667 5.18002V4.17154L12.0542 1.03762C12.2294 0.912475 12.3333 0.710428 12.3333 0.495127V0V-0.601416L11.8233 -0.282666L6.57107 3H5.44016L0.860413 -0.271244L0.773488 -0.333333H0.666667H0Z" fill="#DB1E36" stroke="white" stroke-width="0.666667"/>
<path fill-rule="evenodd" clip-rule="evenodd" d="M0 3.33333V6H4.66667V9.33333C4.66667 9.70152 4.96514 10 5.33333 10H6.66667C7.03486 10 7.33333 9.70152 7.33333 9.33333V6H12C12.3682 6 12.6667 5.70152 12.6667 5.33333V4C12.6667 3.63181 12.3682 3.33333 12 3.33333H7.33333V0H4.66667V3.33333H0Z" fill="white"/>
<path fill-rule="evenodd" clip-rule="evenodd" d="M0 4H5.33333V3.33333V0H6.66667V3.33333V4H12V5.33333H6.66667V6V9.33333H5.33333V6V5.33333H0V4Z" fill="#DB1E36"/>
</g>
</svg>
