<svg width="28" height="20" viewBox="0 0 28 20" fill="none" xmlns="http://www.w3.org/2000/svg">
<rect x="0.25" y="0.25" width="27.5" height="19.5" rx="1.75" fill="white" stroke="#F5F5F5" stroke-width="0.5"/>
<mask id="mask0_60_3778" style="mask-type:alpha" maskUnits="userSpaceOnUse" x="0" y="0" width="28" height="20">
<rect x="0.25" y="0.25" width="27.5" height="19.5" rx="1.75" fill="white" stroke="white" stroke-width="0.5"/>
</mask>
<g mask="url(#mask0_60_3778)">
<path fill-rule="evenodd" clip-rule="evenodd" d="M0 6.66667H28V0H0V6.66667Z" fill="#D9101C"/>
<path fill-rule="evenodd" clip-rule="evenodd" d="M0 20.0002H28V13.3335H0V20.0002Z" fill="#0F7811"/>
<path fill-rule="evenodd" clip-rule="evenodd" d="M13.3335 8.66667C13.3335 9.03486 13.035 9.33333 12.6668 9.33333C12.2986 9.33333 12.0002 9.03486 12.0002 8.66667C12.0002 8.29848 12.2986 8 12.6668 8C13.035 8 13.3335 8.29848 13.3335 8.66667ZM14.6668 10C14.6668 10.1206 14.6348 10.3767 14.5788 10.6667H15.3335C15.7017 10.6667 16.0002 10.9651 16.0002 11.3333C16.0002 11.7015 15.7017 12 15.3335 12H14.0002H12.6668C12.2986 12 12.0002 11.7015 12.0002 11.3333C12.0002 10.9651 12.2986 10.6667 12.6668 10.6667H13.4215C13.3655 10.3767 13.3335 10.1206 13.3335 10C13.3335 9.63181 13.632 9.33333 14.0002 9.33333C14.3684 9.33333 14.6668 9.63181 14.6668 10ZM16.0002 8.66667C16.0002 9.03486 15.7017 9.33333 15.3335 9.33333C14.9653 9.33333 14.6668 9.03486 14.6668 8.66667C14.6668 8.29848 14.9653 8 15.3335 8C15.7017 8 16.0002 8.29848 16.0002 8.66667ZM18.0002 10.6667C18.3684 10.6667 18.6668 10.3682 18.6668 10C18.6668 9.63181 18.3684 9.33333 18.0002 9.33333C17.632 9.33333 17.3335 9.63181 17.3335 10C17.3335 10.3682 17.632 10.6667 18.0002 10.6667ZM10.6668 10C10.6668 10.3682 10.3684 10.6667 10.0002 10.6667C9.63197 10.6667 9.3335 10.3682 9.3335 10C9.3335 9.63181 9.63197 9.33333 10.0002 9.33333C10.3684 9.33333 10.6668 9.63181 10.6668 10Z" fill="#FAD14E"/>
</g>
</svg>
