<svg width="28" height="20" viewBox="0 0 28 20" fill="none" xmlns="http://www.w3.org/2000/svg">
<rect width="28" height="20" rx="2" fill="white"/>
<mask id="mask0_60_3868" style="mask-type:alpha" maskUnits="userSpaceOnUse" x="0" y="0" width="28" height="20">
<rect width="28" height="20" rx="2" fill="white"/>
</mask>
<g mask="url(#mask0_60_3868)">
<path fill-rule="evenodd" clip-rule="evenodd" d="M0 20H28V0H0V20Z" fill="#30C375"/>
<rect x="4" width="4" height="20" fill="#DE414F"/>
<path fill-rule="evenodd" clip-rule="evenodd" d="M6 4.00016C7.10457 4.00016 8 3.40321 8 2.66683C8 1.93045 7.10457 1.3335 6 1.3335C4.89543 1.3335 4 1.93045 4 2.66683C4 3.40321 4.89543 4.00016 6 4.00016Z" fill="white"/>
<mask id="mask1_60_3868" style="mask-type:alpha" maskUnits="userSpaceOnUse" x="4" y="1" width="4" height="3">
<path fill-rule="evenodd" clip-rule="evenodd" d="M6 4.00016C7.10457 4.00016 8 3.40321 8 2.66683C8 1.93045 7.10457 1.3335 6 1.3335C4.89543 1.3335 4 1.93045 4 2.66683C4 3.40321 4.89543 4.00016 6 4.00016Z" fill="white"/>
</mask>
<g mask="url(#mask1_60_3868)">
<path fill-rule="evenodd" clip-rule="evenodd" d="M6.00016 3.33333C6.36835 3.33333 6.66683 3.03486 6.66683 2.66667C6.66683 2.29848 6.36835 2 6.00016 2C5.63197 2 5.3335 2.29848 5.3335 2.66667C5.3335 3.03486 5.63197 3.33333 6.00016 3.33333Z" fill="#DD404F"/>
<rect x="4" y="1.3335" width="2" height="1.33333" fill="#FBAF29"/>
<rect x="6" y="2.66699" width="2" height="1.33333" fill="#FBAF29"/>
</g>
<path fill-rule="evenodd" clip-rule="evenodd" d="M6 18.6667C7.10457 18.6667 8 18.0697 8 17.3333C8 16.597 7.10457 16 6 16C4.89543 16 4 16.597 4 17.3333C4 18.0697 4.89543 18.6667 6 18.6667Z" fill="white"/>
<mask id="mask2_60_3868" style="mask-type:alpha" maskUnits="userSpaceOnUse" x="4" y="16" width="4" height="3">
<path fill-rule="evenodd" clip-rule="evenodd" d="M6 18.6667C7.10457 18.6667 8 18.0697 8 17.3333C8 16.597 7.10457 16 6 16C4.89543 16 4 16.597 4 17.3333C4 18.0697 4.89543 18.6667 6 18.6667Z" fill="white"/>
</mask>
<g mask="url(#mask2_60_3868)">
<path fill-rule="evenodd" clip-rule="evenodd" d="M6.00016 17.9998C6.36835 17.9998 6.66683 17.7014 6.66683 17.3332C6.66683 16.965 6.36835 16.6665 6.00016 16.6665C5.63197 16.6665 5.3335 16.965 5.3335 17.3332C5.3335 17.7014 5.63197 17.9998 6.00016 17.9998Z" fill="#DD404F"/>
<rect x="4" y="16" width="2" height="1.33333" fill="#FBAF29"/>
<rect x="6" y="17.3335" width="2" height="1.33333" fill="#FBAF29"/>
</g>
<path fill-rule="evenodd" clip-rule="evenodd" d="M6 12.0002C7.10457 12.0002 8 11.4032 8 10.6668C8 9.93045 7.10457 9.3335 6 9.3335C4.89543 9.3335 4 9.93045 4 10.6668C4 11.4032 4.89543 12.0002 6 12.0002Z" fill="#28AE67"/>
<mask id="mask3_60_3868" style="mask-type:alpha" maskUnits="userSpaceOnUse" x="4" y="9" width="4" height="3">
<path fill-rule="evenodd" clip-rule="evenodd" d="M6 12.0002C7.10457 12.0002 8 11.4032 8 10.6668C8 9.93045 7.10457 9.3335 6 9.3335C4.89543 9.3335 4 9.93045 4 10.6668C4 11.4032 4.89543 12.0002 6 12.0002Z" fill="white"/>
</mask>
<g mask="url(#mask3_60_3868)">
<path fill-rule="evenodd" clip-rule="evenodd" d="M5.99984 11.3333C6.73622 11.3333 7.33317 11.0349 7.33317 10.6667C7.33317 10.2985 6.73622 10 5.99984 10C5.26346 10 4.6665 10.2985 4.6665 10.6667C4.6665 11.0349 5.26346 11.3333 5.99984 11.3333Z" fill="#DD404F"/>
</g>
<path fill-rule="evenodd" clip-rule="evenodd" d="M6 14.6668C7.10457 14.6668 8 14.3684 8 14.0002C8 13.632 7.10457 13.3335 6 13.3335C4.89543 13.3335 4 13.632 4 14.0002C4 14.3684 4.89543 14.6668 6 14.6668Z" fill="#28AE67"/>
<mask id="mask4_60_3868" style="mask-type:alpha" maskUnits="userSpaceOnUse" x="4" y="13" width="4" height="2">
<path fill-rule="evenodd" clip-rule="evenodd" d="M6 14.6668C7.10457 14.6668 8 14.3684 8 14.0002C8 13.632 7.10457 13.3335 6 13.3335C4.89543 13.3335 4 13.632 4 14.0002C4 14.3684 4.89543 14.6668 6 14.6668Z" fill="white"/>
</mask>
<g mask="url(#mask4_60_3868)">
</g>
<path fill-rule="evenodd" clip-rule="evenodd" d="M6 8.00016C7.10457 8.00016 8 7.40321 8 6.66683C8 5.93045 7.10457 5.3335 6 5.3335C4.89543 5.3335 4 5.93045 4 6.66683C4 7.40321 4.89543 8.00016 6 8.00016Z" fill="#FBAF29"/>
<mask id="mask5_60_3868" style="mask-type:alpha" maskUnits="userSpaceOnUse" x="4" y="5" width="4" height="3">
<path fill-rule="evenodd" clip-rule="evenodd" d="M6 8.00016C7.10457 8.00016 8 7.40321 8 6.66683C8 5.93045 7.10457 5.3335 6 5.3335C4.89543 5.3335 4 5.93045 4 6.66683C4 7.40321 4.89543 8.00016 6 8.00016Z" fill="white"/>
</mask>
<g mask="url(#mask5_60_3868)">
<path fill-rule="evenodd" clip-rule="evenodd" d="M6.00016 7.33333C6.36835 7.33333 6.66683 7.03486 6.66683 6.66667C6.66683 6.29848 6.36835 6 6.00016 6C5.63197 6 5.3335 6.29848 5.3335 6.66667C5.3335 7.03486 5.63197 7.33333 6.00016 7.33333Z" fill="#DD404F"/>
<rect x="4" y="5.3335" width="1.33333" height="2.66667" fill="#28AE67"/>
<rect x="6.6665" y="5.3335" width="1.33333" height="2.66667" fill="#28AE67"/>
</g>
<path fill-rule="evenodd" clip-rule="evenodd" d="M14.8225 4.23799C14.5858 4.52004 14.6226 4.94055 14.9047 5.17722C15.1867 5.41388 15.6072 5.37709 15.8439 5.09504C16.0806 4.81299 16.0438 4.39249 15.7617 4.15582C15.4797 3.91916 15.0592 3.95594 14.8225 4.23799ZM13.095 6.82249C12.813 6.58582 12.3925 6.62261 12.1558 6.90466C11.9192 7.18671 11.9559 7.60721 12.238 7.84388C12.52 8.08055 12.9405 8.04376 13.1772 7.76171C13.4139 7.47966 13.3771 7.05916 13.095 6.82249ZM11.7617 5.48916C11.4797 5.25249 11.0592 5.28928 10.8225 5.57133C10.5858 5.85338 10.6226 6.27388 10.9047 6.51055C11.1867 6.74722 11.6072 6.71043 11.8439 6.42838C12.0806 6.14633 12.0438 5.72582 11.7617 5.48916ZM14.4284 2.82249C14.1463 2.58582 13.7258 2.62261 13.4892 2.90466C13.2525 3.18671 13.2893 3.60721 13.5713 3.84388C13.8534 4.08055 14.2739 4.04376 14.5105 3.76171C14.7472 3.47966 14.7104 3.05916 14.4284 2.82249ZM13.7617 4.82249C13.4797 4.58582 13.0592 4.62261 12.8225 4.90466C12.5858 5.18671 12.6226 5.60721 12.9047 5.84388C13.1867 6.08055 13.6072 6.04376 13.8439 5.76171C14.0806 5.47966 14.0438 5.05916 13.7617 4.82249Z" fill="white"/>
<path fill-rule="evenodd" clip-rule="evenodd" d="M17.4763 9.45045C15.8883 11.0385 13.3135 11.0385 11.7255 9.45045C11.5716 9.29658 11.4327 9.13343 11.3086 8.96282C12.8987 10.1191 15.1376 9.98009 16.5718 8.54592C18.006 7.11175 18.1449 4.87284 16.9887 3.28271C17.1593 3.40677 17.3225 3.54574 17.4763 3.69962C19.0644 5.28767 19.0644 7.8624 17.4763 9.45045Z" fill="white"/>
</g>
</svg>
