<svg width="28" height="20" viewBox="0 0 28 20" fill="none" xmlns="http://www.w3.org/2000/svg">
<rect x="0.25" y="0.25" width="27.5" height="19.5" rx="1.75" fill="white" stroke="#F5F5F5" stroke-width="0.5"/>
<mask id="mask0_60_3859" style="mask-type:alpha" maskUnits="userSpaceOnUse" x="0" y="0" width="28" height="20">
<rect x="0.25" y="0.25" width="27.5" height="19.5" rx="1.75" fill="white" stroke="white" stroke-width="0.5"/>
</mask>
<g mask="url(#mask0_60_3859)">
<path fill-rule="evenodd" clip-rule="evenodd" d="M28 0H16V10.6667H0V20H28V0Z" fill="#E20F1B"/>
<path fill-rule="evenodd" clip-rule="evenodd" d="M7 1.3335C6.81591 1.3335 6.66667 1.48273 6.66667 1.66683V4.00016H4.33333C4.14924 4.00016 4 4.1494 4 4.3335V6.3335C4 6.51759 4.14924 6.66683 4.33333 6.66683H6.66667V9.00016C6.66667 9.18426 6.81591 9.3335 7 9.3335H9C9.1841 9.3335 9.33333 9.18426 9.33333 9.00016V6.66683H11.6667C11.8508 6.66683 12 6.51759 12 6.3335V4.3335C12 4.1494 11.8508 4.00016 11.6667 4.00016H9.33333V1.66683C9.33333 1.48273 9.18409 1.3335 9 1.3335H7Z" fill="url(#paint0_linear_60_3859)"/>
</g>
<defs>
<linearGradient id="paint0_linear_60_3859" x1="4" y1="1.3335" x2="4" y2="9.3335" gradientUnits="userSpaceOnUse">
<stop stop-color="#DF101B"/>
<stop offset="1" stop-color="#C00711"/>
</linearGradient>
</defs>
</svg>
