<svg width="28" height="20" viewBox="0 0 28 20" fill="none" xmlns="http://www.w3.org/2000/svg">
<rect width="28" height="20" rx="2" fill="white"/>
<mask id="mask0_60_3919" style="mask-type:alpha" maskUnits="userSpaceOnUse" x="0" y="0" width="28" height="20">
<rect width="28" height="20" rx="2" fill="white"/>
</mask>
<g mask="url(#mask0_60_3919)">
<path fill-rule="evenodd" clip-rule="evenodd" d="M0 2.66667H28V0H0V2.66667Z" fill="#262626"/>
<path fill-rule="evenodd" clip-rule="evenodd" d="M0 13.3332H28V10.6665H0V13.3332Z" fill="#262626"/>
<path fill-rule="evenodd" clip-rule="evenodd" d="M0 10.6665H28V6.6665H0V10.6665Z" fill="#ED1623"/>
<path fill-rule="evenodd" clip-rule="evenodd" d="M0 6.6665H28V2.6665H0V6.6665Z" fill="#FEE044"/>
<path fill-rule="evenodd" clip-rule="evenodd" d="M0 20.0002H28V17.3335H0V20.0002Z" fill="#ED1623"/>
<path fill-rule="evenodd" clip-rule="evenodd" d="M0 17.3335H28V13.3335H0V17.3335Z" fill="#FEE044"/>
<path fill-rule="evenodd" clip-rule="evenodd" d="M14.0002 14.6668C16.5775 14.6668 18.6668 12.5775 18.6668 10.0002C18.6668 7.42283 16.5775 5.3335 14.0002 5.3335C11.4228 5.3335 9.3335 7.42283 9.3335 10.0002C9.3335 12.5775 11.4228 14.6668 14.0002 14.6668Z" fill="white"/>
<path fill-rule="evenodd" clip-rule="evenodd" d="M12.9024 7.56927C12.7722 7.4391 12.7722 7.22804 12.9024 7.09787L13.3142 6.68601C13.3269 6.67329 13.3383 6.65992 13.3492 6.64559C13.3842 6.59944 13.4735 6.48678 13.5778 6.39191C13.7545 6.2312 14.2579 6.21434 14.4323 6.37756C14.4797 6.42187 14.5229 6.47121 14.5591 6.51642C14.631 6.6064 14.6353 6.72954 14.5838 6.83256L14.0352 7.92985C14.012 7.97614 14 8.02718 14 8.07892V8.46089C14 8.58715 14.0713 8.70257 14.1843 8.75903L15.285 9.30938C15.317 9.3254 15.3462 9.34648 15.3716 9.37182L16.4968 10.497C16.5982 10.5985 16.6234 10.7535 16.5592 10.8818L16.2068 11.5866C16.1051 11.7901 15.8339 11.8341 15.673 11.6732L15.569 11.5693C15.4389 11.4391 15.2278 11.4391 15.0976 11.5693L14.7643 11.9026C14.7018 11.9651 14.6667 12.0499 14.6667 12.1383V12.5288C14.6667 12.6172 14.7018 12.702 14.7643 12.7645V12.7645C14.9743 12.9745 14.8256 13.3336 14.5286 13.3336H14.1381C13.8411 13.3336 13.6924 12.9745 13.9024 12.7645V12.7645C13.9649 12.702 14 12.6172 14 12.5288V12.3336C14 12.1495 13.8508 12.0002 13.6667 12.0002H13.4714C13.383 12.0002 13.2982 12.0354 13.2357 12.0979L12.9024 12.4312C12.7722 12.5614 12.5611 12.5614 12.431 12.4312L12.2357 12.2359C12.1055 12.1058 12.1055 11.8947 12.2357 11.7645L12.569 11.4312C12.6315 11.3687 12.7163 11.3336 12.8047 11.3336H13.1953C13.4922 11.3336 13.641 10.9745 13.431 10.7645L12.2357 9.56927C12.1055 9.43909 12.1055 9.22804 12.2357 9.09787L13.0976 8.23594C13.2278 8.10576 13.2278 7.89471 13.0976 7.76453L12.9024 7.56927Z" fill="#262626"/>
</g>
</svg>
