<svg width="28" height="20" viewBox="0 0 28 20" fill="none" xmlns="http://www.w3.org/2000/svg">
<rect x="0.25" y="0.25" width="27.5" height="19.5" rx="1.75" fill="white" stroke="#F5F5F5" stroke-width="0.5"/>
<mask id="mask0_60_3935" style="mask-type:alpha" maskUnits="userSpaceOnUse" x="0" y="0" width="28" height="20">
<rect x="0.25" y="0.25" width="27.5" height="19.5" rx="1.75" fill="white" stroke="white" stroke-width="0.5"/>
</mask>
<g mask="url(#mask0_60_3935)">
<path fill-rule="evenodd" clip-rule="evenodd" d="M28 2.6665H13.3333V5.33317H28V2.6665ZM13.3333 7.99984V10.6665H28V7.99984H13.3333ZM13.3333 13.3332L0 13.3332V15.9998H28V13.3332H13.3333ZM0 19.9998V18.6665H28V19.9998H0Z" fill="#0E4DC5"/>
<path fill-rule="evenodd" clip-rule="evenodd" d="M6.6665 9.32136L5.77642 10.65L5.55096 9.06674L4.17254 9.87762L4.65637 8.35333L3.06263 8.48583L4.1599 7.32241L2.6665 6.7503L4.1599 6.17818L3.06263 5.01476L4.65637 5.14727L4.17254 3.62297L5.55096 4.43385L5.77642 2.85059L6.6665 4.17924L7.55659 2.85059L7.78205 4.43385L9.16046 3.62297L8.67664 5.14727L10.2704 5.01476L9.1731 6.17818L10.6665 6.7503L9.1731 7.32241L10.2704 8.48583L8.67664 8.35333L9.16046 9.87762L7.78205 9.06674L7.55659 10.65L6.6665 9.32136ZM6.6665 9.29575C8.07232 9.29575 9.21196 8.15611 9.21196 6.7503C9.21196 5.34448 8.07232 4.20484 6.6665 4.20484C5.26069 4.20484 4.12105 5.34448 4.12105 6.7503C4.12105 8.15611 5.26069 9.29575 6.6665 9.29575ZM8.6665 6.66672C8.6665 7.77129 7.77107 8.66672 6.6665 8.66672C5.56193 8.66672 4.6665 7.77129 4.6665 6.66672C4.6665 5.56215 5.56193 4.66672 6.6665 4.66672C7.77107 4.66672 8.6665 5.56215 8.6665 6.66672Z" fill="#FED443"/>
</g>
</svg>
