<svg width="28" height="20" viewBox="0 0 28 20" fill="none" xmlns="http://www.w3.org/2000/svg">
<rect width="28" height="20" rx="2" fill="white"/>
<mask id="mask0_60_3950" style="mask-type:alpha" maskUnits="userSpaceOnUse" x="0" y="0" width="28" height="20">
<rect width="28" height="20" rx="2" fill="white"/>
</mask>
<g mask="url(#mask0_60_3950)">
<path fill-rule="evenodd" clip-rule="evenodd" d="M28 0H0V1.33333H28V0ZM28 2.66667H0V4H28V2.66667ZM0 5.33333H28V6.66667H0V5.33333ZM28 8H0V9.33333H28V8ZM0 10.6667H28V12H0V10.6667ZM28 13.3333H0V14.6667H28V13.3333ZM0 16H28V17.3333H0V16ZM28 18.6667H0V20H28V18.6667Z" fill="#D02F44"/>
<rect width="12" height="9.33333" fill="#46467F"/>
<g filter="url(#filter0_d_60_3950)">
<path fill-rule="evenodd" clip-rule="evenodd" d="M2.66683 2.00016C2.66683 2.36835 2.36835 2.66683 2.00016 2.66683C1.63197 2.66683 1.3335 2.36835 1.3335 2.00016C1.3335 1.63197 1.63197 1.3335 2.00016 1.3335C2.36835 1.3335 2.66683 1.63197 2.66683 2.00016ZM5.3335 2.00016C5.3335 2.36835 5.03502 2.66683 4.66683 2.66683C4.29864 2.66683 4.00016 2.36835 4.00016 2.00016C4.00016 1.63197 4.29864 1.3335 4.66683 1.3335C5.03502 1.3335 5.3335 1.63197 5.3335 2.00016ZM7.3335 2.66683C7.70169 2.66683 8.00016 2.36835 8.00016 2.00016C8.00016 1.63197 7.70169 1.3335 7.3335 1.3335C6.96531 1.3335 6.66683 1.63197 6.66683 2.00016C6.66683 2.36835 6.96531 2.66683 7.3335 2.66683ZM10.6668 2.00016C10.6668 2.36835 10.3684 2.66683 10.0002 2.66683C9.63197 2.66683 9.3335 2.36835 9.3335 2.00016C9.3335 1.63197 9.63197 1.3335 10.0002 1.3335C10.3684 1.3335 10.6668 1.63197 10.6668 2.00016ZM3.3335 4.00016C3.70169 4.00016 4.00016 3.70169 4.00016 3.3335C4.00016 2.96531 3.70169 2.66683 3.3335 2.66683C2.96531 2.66683 2.66683 2.96531 2.66683 3.3335C2.66683 3.70169 2.96531 4.00016 3.3335 4.00016ZM6.66683 3.3335C6.66683 3.70169 6.36835 4.00016 6.00016 4.00016C5.63197 4.00016 5.3335 3.70169 5.3335 3.3335C5.3335 2.96531 5.63197 2.66683 6.00016 2.66683C6.36835 2.66683 6.66683 2.96531 6.66683 3.3335ZM8.66683 4.00016C9.03502 4.00016 9.3335 3.70169 9.3335 3.3335C9.3335 2.96531 9.03502 2.66683 8.66683 2.66683C8.29864 2.66683 8.00016 2.96531 8.00016 3.3335C8.00016 3.70169 8.29864 4.00016 8.66683 4.00016ZM10.6668 4.66683C10.6668 5.03502 10.3684 5.3335 10.0002 5.3335C9.63197 5.3335 9.3335 5.03502 9.3335 4.66683C9.3335 4.29864 9.63197 4.00016 10.0002 4.00016C10.3684 4.00016 10.6668 4.29864 10.6668 4.66683ZM7.3335 5.3335C7.70169 5.3335 8.00016 5.03502 8.00016 4.66683C8.00016 4.29864 7.70169 4.00016 7.3335 4.00016C6.96531 4.00016 6.66683 4.29864 6.66683 4.66683C6.66683 5.03502 6.96531 5.3335 7.3335 5.3335ZM5.3335 4.66683C5.3335 5.03502 5.03502 5.3335 4.66683 5.3335C4.29864 5.3335 4.00016 5.03502 4.00016 4.66683C4.00016 4.29864 4.29864 4.00016 4.66683 4.00016C5.03502 4.00016 5.3335 4.29864 5.3335 4.66683ZM2.00016 5.3335C2.36835 5.3335 2.66683 5.03502 2.66683 4.66683C2.66683 4.29864 2.36835 4.00016 2.00016 4.00016C1.63197 4.00016 1.3335 4.29864 1.3335 4.66683C1.3335 5.03502 1.63197 5.3335 2.00016 5.3335ZM4.00016 6.00016C4.00016 6.36835 3.70169 6.66683 3.3335 6.66683C2.96531 6.66683 2.66683 6.36835 2.66683 6.00016C2.66683 5.63197 2.96531 5.3335 3.3335 5.3335C3.70169 5.3335 4.00016 5.63197 4.00016 6.00016ZM6.00016 6.66683C6.36835 6.66683 6.66683 6.36835 6.66683 6.00016C6.66683 5.63197 6.36835 5.3335 6.00016 5.3335C5.63197 5.3335 5.3335 5.63197 5.3335 6.00016C5.3335 6.36835 5.63197 6.66683 6.00016 6.66683ZM9.3335 6.00016C9.3335 6.36835 9.03502 6.66683 8.66683 6.66683C8.29864 6.66683 8.00016 6.36835 8.00016 6.00016C8.00016 5.63197 8.29864 5.3335 8.66683 5.3335C9.03502 5.3335 9.3335 5.63197 9.3335 6.00016ZM10.0002 8.00016C10.3684 8.00016 10.6668 7.70169 10.6668 7.3335C10.6668 6.96531 10.3684 6.66683 10.0002 6.66683C9.63197 6.66683 9.3335 6.96531 9.3335 7.3335C9.3335 7.70169 9.63197 8.00016 10.0002 8.00016ZM8.00016 7.3335C8.00016 7.70169 7.70169 8.00016 7.3335 8.00016C6.96531 8.00016 6.66683 7.70169 6.66683 7.3335C6.66683 6.96531 6.96531 6.66683 7.3335 6.66683C7.70169 6.66683 8.00016 6.96531 8.00016 7.3335ZM4.66683 8.00016C5.03502 8.00016 5.3335 7.70169 5.3335 7.3335C5.3335 6.96531 5.03502 6.66683 4.66683 6.66683C4.29864 6.66683 4.00016 6.96531 4.00016 7.3335C4.00016 7.70169 4.29864 8.00016 4.66683 8.00016ZM2.66683 7.3335C2.66683 7.70169 2.36835 8.00016 2.00016 8.00016C1.63197 8.00016 1.3335 7.70169 1.3335 7.3335C1.3335 6.96531 1.63197 6.66683 2.00016 6.66683C2.36835 6.66683 2.66683 6.96531 2.66683 7.3335Z" fill="url(#paint0_linear_60_3950)"/>
</g>
</g>
<defs>
<filter id="filter0_d_60_3950" x="1.3335" y="1.3335" width="9.3335" height="7.6665" filterUnits="userSpaceOnUse" color-interpolation-filters="sRGB">
<feFlood flood-opacity="0" result="BackgroundImageFix"/>
<feColorMatrix in="SourceAlpha" type="matrix" values="0 0 0 0 0 0 0 0 0 0 0 0 0 0 0 0 0 0 127 0" result="hardAlpha"/>
<feOffset dy="1"/>
<feColorMatrix type="matrix" values="0 0 0 0 0 0 0 0 0 0 0 0 0 0 0 0 0 0 0.06 0"/>
<feBlend mode="normal" in2="BackgroundImageFix" result="effect1_dropShadow_60_3950"/>
<feBlend mode="normal" in="SourceGraphic" in2="effect1_dropShadow_60_3950" result="shape"/>
</filter>
<linearGradient id="paint0_linear_60_3950" x1="1.3335" y1="1.3335" x2="1.3335" y2="8.00016" gradientUnits="userSpaceOnUse">
<stop stop-color="white"/>
<stop offset="1" stop-color="#F0F0F0"/>
</linearGradient>
</defs>
</svg>
