<svg width="28" height="20" viewBox="0 0 28 20" fill="none" xmlns="http://www.w3.org/2000/svg">
<rect x="0.25" y="0.25" width="27.5" height="19.5" rx="1.75" fill="white" stroke="#F5F5F5" stroke-width="0.5"/>
<mask id="mask0_60_3905" style="mask-type:alpha" maskUnits="userSpaceOnUse" x="0" y="0" width="28" height="20">
<rect x="0.25" y="0.25" width="27.5" height="19.5" rx="1.75" fill="white" stroke="white" stroke-width="0.5"/>
</mask>
<g mask="url(#mask0_60_3905)">
<path fill-rule="evenodd" clip-rule="evenodd" d="M0 6.66667H28V0H0V6.66667Z" fill="#04AAC8"/>
<path fill-rule="evenodd" clip-rule="evenodd" d="M0 20.0002H28V13.3335H0V20.0002Z" fill="#23C840"/>
<path fill-rule="evenodd" clip-rule="evenodd" d="M4.6665 5.3335C5.07778 5.3335 5.46007 5.20935 5.77793 4.9965C5.7411 4.99893 5.70395 5.00016 5.6665 5.00016C4.74603 5.00016 3.99984 4.25397 3.99984 3.3335C3.99984 2.41302 4.74603 1.66683 5.6665 1.66683C5.70395 1.66683 5.7411 1.66806 5.77793 1.6705C5.46007 1.45764 5.07778 1.3335 4.6665 1.3335C3.56193 1.3335 2.6665 2.22893 2.6665 3.3335C2.6665 4.43807 3.56193 5.3335 4.6665 5.3335ZM7.99984 4.66683C7.99984 5.03502 7.70136 5.3335 7.33317 5.3335C6.96498 5.3335 6.6665 5.03502 6.6665 4.66683C6.6665 4.29864 6.96498 4.00016 7.33317 4.00016C7.70136 4.00016 7.99984 4.29864 7.99984 4.66683ZM9.99984 2.66683C10.368 2.66683 10.6665 2.36835 10.6665 2.00016C10.6665 1.63197 10.368 1.3335 9.99984 1.3335C9.63165 1.3335 9.33317 1.63197 9.33317 2.00016C9.33317 2.36835 9.63165 2.66683 9.99984 2.66683ZM13.3332 2.00016C13.3332 2.36835 13.0347 2.66683 12.6665 2.66683C12.2983 2.66683 11.9998 2.36835 11.9998 2.00016C11.9998 1.63197 12.2983 1.3335 12.6665 1.3335C13.0347 1.3335 13.3332 1.63197 13.3332 2.00016ZM12.6665 5.3335C13.0347 5.3335 13.3332 5.03502 13.3332 4.66683C13.3332 4.29864 13.0347 4.00016 12.6665 4.00016C12.2983 4.00016 11.9998 4.29864 11.9998 4.66683C11.9998 5.03502 12.2983 5.3335 12.6665 5.3335ZM10.6665 4.66683C10.6665 5.03502 10.368 5.3335 9.99984 5.3335C9.63165 5.3335 9.33317 5.03502 9.33317 4.66683C9.33317 4.29864 9.63165 4.00016 9.99984 4.00016C10.368 4.00016 10.6665 4.29864 10.6665 4.66683Z" fill="white"/>
</g>
</svg>
