<svg width="28" height="20" viewBox="0 0 28 20" fill="none" xmlns="http://www.w3.org/2000/svg">
<rect width="28" height="20" rx="2" fill="white"/>
<mask id="mask0_60_4034" style="mask-type:alpha" maskUnits="userSpaceOnUse" x="0" y="0" width="28" height="20">
<rect width="28" height="20" rx="2" fill="white"/>
</mask>
<g mask="url(#mask0_60_4034)">
<path fill-rule="evenodd" clip-rule="evenodd" d="M0 13.3332H28V6.6665H0V13.3332Z" fill="#063191"/>
<path fill-rule="evenodd" clip-rule="evenodd" d="M0 20.0002H28V13.3335H0V20.0002Z" fill="#E2213B"/>
<path fill-rule="evenodd" clip-rule="evenodd" d="M14.0002 9.33333C14.3684 9.33333 14.6668 9.03486 14.6668 8.66667C14.6668 8.29848 14.3684 8 14.0002 8C13.632 8 13.3335 8.29848 13.3335 8.66667C13.3335 9.03486 13.632 9.33333 14.0002 9.33333ZM11.3335 10C11.7017 10 12.0002 9.70152 12.0002 9.33333C12.0002 8.96514 11.7017 8.66667 11.3335 8.66667C10.9653 8.66667 10.6668 8.96514 10.6668 9.33333C10.6668 9.70152 10.9653 10 11.3335 10ZM17.3335 9.33333C17.3335 9.70152 17.035 10 16.6668 10C16.2986 10 16.0002 9.70152 16.0002 9.33333C16.0002 8.96514 16.2986 8.66667 16.6668 8.66667C17.035 8.66667 17.3335 8.96514 17.3335 9.33333ZM10.0002 12C10.3684 12 10.6668 11.7015 10.6668 11.3333C10.6668 10.9651 10.3684 10.6667 10.0002 10.6667C9.63197 10.6667 9.3335 10.9651 9.3335 11.3333C9.3335 11.7015 9.63197 12 10.0002 12ZM18.6668 11.3333C18.6668 11.7015 18.3684 12 18.0002 12C17.632 12 17.3335 11.7015 17.3335 11.3333C17.3335 10.9651 17.632 10.6667 18.0002 10.6667C18.3684 10.6667 18.6668 10.9651 18.6668 11.3333Z" fill="white"/>
<path fill-rule="evenodd" clip-rule="evenodd" d="M0 6.66667H28V0H0V6.66667Z" fill="#FFD044"/>
</g>
</svg>
