<svg width="28" height="20" viewBox="0 0 28 20" fill="none" xmlns="http://www.w3.org/2000/svg">
<rect width="28" height="20" rx="2" fill="white"/>
<mask id="mask0_60_4012" style="mask-type:alpha" maskUnits="userSpaceOnUse" x="0" y="0" width="28" height="20">
<rect width="28" height="20" rx="2" fill="white"/>
</mask>
<g mask="url(#mask0_60_4012)">
<rect width="28" height="20" fill="#07319C"/>
<path fill-rule="evenodd" clip-rule="evenodd" d="M17.3335 10.0002C17.3335 8.90642 17.3335 7.61331 17.3335 6.66598C17.3335 5.9296 17.9304 5.3335 18.6668 5.3335H22.6668C23.4032 5.3335 24.0002 5.9296 24.0002 6.66598C24.0002 7.61331 24.0002 8.90642 24.0002 10.0002C24.0002 13.3335 20.6668 14.6668 20.6668 14.6668C20.6668 14.6668 17.3335 13.3335 17.3335 10.0002Z" fill="#008339"/>
<mask id="mask1_60_4012" style="mask-type:alpha" maskUnits="userSpaceOnUse" x="17" y="5" width="7" height="10">
<path fill-rule="evenodd" clip-rule="evenodd" d="M17.3335 10.0002C17.3335 8.90642 17.3335 7.61331 17.3335 6.66598C17.3335 5.9296 17.9304 5.3335 18.6668 5.3335H22.6668C23.4032 5.3335 24.0002 5.9296 24.0002 6.66598C24.0002 7.61331 24.0002 8.90642 24.0002 10.0002C24.0002 13.3335 20.6668 14.6668 20.6668 14.6668C20.6668 14.6668 17.3335 13.3335 17.3335 10.0002Z" fill="white"/>
</mask>
<g mask="url(#mask1_60_4012)">
<path fill-rule="evenodd" clip-rule="evenodd" d="M19.3337 8.00033C19.7018 8.00033 20.0003 7.70185 20.0003 7.33366C20.0003 6.96547 19.7018 6.66699 19.3337 6.66699C18.9655 6.66699 18.667 6.96547 18.667 7.33366C18.667 7.70185 18.9655 8.00033 19.3337 8.00033ZM19.3337 9.33366C19.7018 9.33366 20.0003 9.03518 20.0003 8.66699C20.0003 8.2988 19.7018 8.00033 19.3337 8.00033C18.9655 8.00033 18.667 8.2988 18.667 8.66699C18.667 9.03518 18.9655 9.33366 19.3337 9.33366ZM19.3337 10.667C18.9655 10.667 18.667 10.3685 18.667 10.0003C18.667 9.63214 18.9655 9.33366 19.3337 9.33366C19.7018 9.33366 20.0003 9.63214 20.0003 10.0003C20.0003 10.3685 19.7018 10.667 19.3337 10.667ZM19.3337 10.667C19.7018 10.667 20.0003 10.9655 20.0003 11.3337C20.0003 11.7018 19.7018 12.0003 19.3337 12.0003C18.9655 12.0003 18.667 11.7018 18.667 11.3337C18.667 10.9655 18.9655 10.667 19.3337 10.667ZM22.667 11.3337C22.667 11.7018 22.3685 12.0003 22.0003 12.0003C21.6321 12.0003 21.3337 11.7018 21.3337 11.3337C21.3337 10.9655 21.6321 10.667 22.0003 10.667C22.3685 10.667 22.667 10.9655 22.667 11.3337ZM22.0003 9.33366C22.3685 9.33366 22.667 9.63214 22.667 10.0003C22.667 10.3685 22.3685 10.667 22.0003 10.667C21.6321 10.667 21.3337 10.3685 21.3337 10.0003C21.3337 9.63214 21.6321 9.33366 22.0003 9.33366ZM22.0003 8.00033C21.6321 8.00033 21.3337 8.2988 21.3337 8.66699C21.3337 9.03518 21.6321 9.33366 22.0003 9.33366C22.3685 9.33366 22.667 9.03518 22.667 8.66699C22.667 8.2988 22.3685 8.00033 22.0003 8.00033ZM22.0003 8.00033C21.6321 8.00033 21.3337 7.70185 21.3337 7.33366C21.3337 6.96547 21.6321 6.66699 22.0003 6.66699C22.3685 6.66699 22.667 6.96547 22.667 7.33366C22.667 7.70185 22.3685 8.00033 22.0003 8.00033Z" fill="#FFD033"/>
<path fill-rule="evenodd" clip-rule="evenodd" d="M20.6667 11.3335C21.0349 11.3335 21.3333 10.4381 21.3333 9.3335C21.3333 8.22893 21.0349 7.3335 20.6667 7.3335C20.2985 7.3335 20 8.22893 20 9.3335C20 10.4381 20.2985 11.3335 20.6667 11.3335Z" fill="white"/>
</g>
<path d="M16.6665 13.3332C16.6665 14.6047 18.4877 15.3332 20.6665 15.3332C22.8453 15.3332 24.6665 14.6047 24.6665 13.3332C24.6665 12.965 24.368 12.6665 23.9998 12.6665C23.6316 12.6665 23.3332 12.965 23.3332 13.3332C23.3332 13.3459 23.1716 13.4987 22.7759 13.657C22.2389 13.8718 21.4822 13.9998 20.6665 13.9998C19.8508 13.9998 19.0942 13.8718 18.5571 13.657C18.1614 13.4987 17.9998 13.3459 17.9998 13.3332C17.9998 12.965 17.7014 12.6665 17.3332 12.6665C16.965 12.6665 16.6665 12.965 16.6665 13.3332V13.3332Z" fill="#FFD033"/>
<path d="M0 -0.333333H-0.901086L-0.21693 0.253086L4.33333 4.15331V5.16179L-0.193746 8.39542L-0.333333 8.49513V8.66667V9.33333V9.93475L0.176666 9.616L5.42893 6.33333H6.55984L11.0821 9.56351C11.176 9.6306 11.2886 9.66667 11.404 9.66667C11.9182 9.66667 12.1548 9.02698 11.7644 8.69237L7.66667 5.18002V4.17154L12.0542 1.03762C12.2294 0.912475 12.3333 0.710428 12.3333 0.495127V0V-0.601416L11.8233 -0.282666L6.57107 3H5.44016L0.860413 -0.271244L0.773488 -0.333333H0.666667H0Z" fill="#DB1E36" stroke="white" stroke-width="0.666667"/>
<path fill-rule="evenodd" clip-rule="evenodd" d="M0 3.33333V6H4.66667V9.33333C4.66667 9.70152 4.96514 10 5.33333 10H6.66667C7.03486 10 7.33333 9.70152 7.33333 9.33333V6H12C12.3682 6 12.6667 5.70152 12.6667 5.33333V4C12.6667 3.63181 12.3682 3.33333 12 3.33333H7.33333V0H4.66667V3.33333H0Z" fill="white"/>
<path fill-rule="evenodd" clip-rule="evenodd" d="M0 4H5.33333V3.33333V0H6.66667V3.33333V4H12V5.33333H6.66667V6V9.33333H5.33333V6V5.33333H0V4Z" fill="#DB1E36"/>
</g>
</svg>
