<svg width="28" height="20" viewBox="0 0 28 20" fill="none" xmlns="http://www.w3.org/2000/svg">
<rect width="28" height="20" rx="2" fill="white"/>
<mask id="mask0_60_4094" style="mask-type:alpha" maskUnits="userSpaceOnUse" x="0" y="0" width="28" height="20">
<rect width="28" height="20" rx="2" fill="white"/>
</mask>
<g mask="url(#mask0_60_4094)">
<rect width="28" height="20" fill="#19BFBF"/>
<path fill-rule="evenodd" clip-rule="evenodd" d="M13.9998 17.3332C18.0499 17.3332 21.3332 14.0499 21.3332 9.99984C21.3332 5.94975 18.0499 2.6665 13.9998 2.6665C9.94975 2.6665 6.6665 5.94975 6.6665 9.99984C6.6665 14.0499 9.94975 17.3332 13.9998 17.3332ZM19.9632 10.6665C19.7157 12.9057 18.236 14.7735 16.2172 15.5768C16.8672 14.2528 17.247 12.5279 17.3201 10.6665H19.9632ZM15.9855 10.6665C15.8881 12.9155 15.3009 14.9033 14.3853 15.9877C14.2579 15.9957 14.1293 15.9998 13.9998 15.9998C13.8703 15.9998 13.7418 15.9957 13.6143 15.9877C12.6988 14.9033 12.1115 12.9155 12.0142 10.6665H15.9855ZM10.6795 10.6665C10.7527 12.5279 11.1324 14.2528 11.7825 15.5768C9.7637 14.7735 8.28398 12.9057 8.03646 10.6665H10.6795ZM12.0142 9.33317H15.9855C15.8881 7.08412 15.3009 5.09641 14.3853 4.01202C14.2579 4.00394 14.1293 3.99984 13.9998 3.99984C13.8703 3.99984 13.7418 4.00394 13.6143 4.01202C12.6988 5.09641 12.1115 7.08412 12.0142 9.33317ZM11.7825 4.42286C11.1324 5.74689 10.7527 7.47181 10.6795 9.33317H8.03646C8.28398 7.094 9.7637 5.22621 11.7825 4.42286ZM19.9632 9.33317H17.3201C17.247 7.47181 16.8672 5.74688 16.2172 4.42286C18.236 5.2262 19.7157 7.094 19.9632 9.33317Z" fill="white"/>
</g>
</svg>
